<svg xmlns="http://www.w3.org/2000/svg" width="226.771" height="226.772" viewBox="0 0 226.771 226.772"><path fill="#4AA32C" d="M0 0h226.771v226.772h-226.771z"/><path d="M140.867 165.862l-8.154-23.132h-37.96l-8.156 23.132h-22.242l39.74-103.792h20.165l39.44 103.792h-22.833zm-21.945-61.683c-2.076-6.08-4.151-12.306-5.19-16.162-1.037 3.856-3.112 10.083-5.189 16.162l-6.672 18.832h23.725l-6.674-18.832zm-58.864 12.657c-.489 1.455-2.065 2.238-3.521 1.749l-28.946-9.714c-1.455-.488-2.24-2.064-1.751-3.52l2.407-7.172c.489-1.455 2.065-2.238 3.521-1.75l28.945 9.714c1.457.489 2.241 2.063 1.753 3.519l-2.408 7.174zm-1.58 22.726c.488 1.455-.297 3.032-1.754 3.519l-20.618 7.319c-1.457.486-3.03-.298-3.519-1.754l-2.402-7.173c-.487-1.455.298-3.032 1.755-3.518l20.618-7.32c1.456-.486 3.03.299 3.518 1.754l2.402 7.173zm-5.675-66.189c-1.214.938-1.438 2.685-.498 3.9l13.065 17.549c.94 1.214 2.685 1.438 3.9.499l5.984-4.625c1.215-.94 1.439-2.685.5-3.9l-13.067-17.55c-.938-1.213-2.684-1.437-3.9-.498l-5.984 4.625zm114.987 43.463c.489 1.455 2.065 2.238 3.521 1.749l28.947-9.714c1.454-.488 2.238-2.064 1.75-3.52l-2.407-7.172c-.488-1.455-2.064-2.238-3.521-1.75l-28.945 9.714c-1.456.489-2.241 2.063-1.753 3.519l2.408 7.174zm1.581 22.726c-.489 1.455.297 3.032 1.755 3.519l20.617 7.319c1.458.486 3.032-.298 3.519-1.754l2.401-7.173c.489-1.455-.297-3.032-1.754-3.518l-20.617-7.32c-1.456-.486-3.032.299-3.519 1.754l-2.402 7.173zm5.675-66.189c1.214.938 1.438 2.685.497 3.9l-13.066 17.549c-.94 1.214-2.684 1.438-3.899.499l-5.985-4.625c-1.214-.94-1.438-2.685-.498-3.9l13.065-17.55c.939-1.213 2.686-1.437 3.9-.498l5.986 4.625z" fill="#fff"/></svg>