<?xml version="1.0" standalone="no"?> <!DOCTYPE svg PUBLIC "-//W3C//DTD SVG 1.0//EN" "http://www.w3.org/TR/2001/REC-SVG-20010904/DTD/svg10.dtd" > <svg xmlns="http://www.w3.org/2000/svg" width="100%" height="100%">
<defs >
<font id="SunAntwerpen_300" horiz-adv-x="975" ><font-face
    font-family="SunAntwerpen"
    units-per-em="2000"
    panose-1="2 11 3 3 5 3 2 2 2 4"
    ascent="1800"
    descent="-400"
    alphabetic="0" />
<missing-glyph horiz-adv-x="1100" d="M900 200V900H200V200H900ZM500 700V800H800V300H700V500H500V600H700V700H500ZM100 100V1000H1000V100H100ZM300 300V800H400V400H600V300H300Z" />
<glyph unicode="&#xd;" glyph-name="CR" horiz-adv-x="0" />
<glyph unicode=" " glyph-name="space" horiz-adv-x="480" />
<glyph unicode="!" glyph-name="exclam" horiz-adv-x="742" d="M387 273L364 1350H508L481 273H387ZM516 71Q516 46 513 30T500 5T475 -8T433 -11Q407 -11 391 -8T365 4T352 28T348 67Q348 91 351 107T365 132T391 145T434 149Q460 149 475 146T500 133T512 109T516
71V71Z" />
<glyph unicode="&quot;" glyph-name="quotedbl" horiz-adv-x="847" d="M201 845L183 1350H307L288 845H201ZM548 845L529 1350H653L635 845H548Z" />
<glyph unicode="#" glyph-name="numbersign" horiz-adv-x="1006" d="M698 427L649 0H548L597 427H340L291 0H190L239 427H65V512H249L295 902H65V986H305L348 1350H450L407 986H663L706 1350H808L765 986H942V902H755L708 512H942V427H698ZM653 902H396L350 512H607L653
902Z" />
<glyph unicode="$" glyph-name="dollar" horiz-adv-x="1000" d="M451 -209L439 1Q347 5 270 32T127 100L168 171Q197 153 233 139T307 116T383 101T455 95Q525 95 582 111T678 158T739 233T761 333Q761 392 734 435T663 510T563 569T449 622T335 677T234 747T164
841T137 968Q137 1028 158 1080T218 1173T313 1240T439 1276L451 1488H527L539 1279Q612 1273 678 1253T797 1205L764 1135Q742 1145 712 1154T648 1172T577 1185T505 1190Q442 1190 396 1174T319 1128T273 1062T258 983Q258 922 285 880T356 804T456 744T572 692T688
636T788 566T859 472T887 345Q887 277 863 219T793 117T683 43T539 4L527 -209H451Z" />
<glyph unicode="%" glyph-name="percent" horiz-adv-x="1379" d="M655 1052Q655 892 588 816T389 740Q315 740 266 758T188 813T147 909T134 1047Q134 1131 152 1191T204 1289T288 1346T402 1364Q473 1364 521 1344T600 1285T642 1187T655 1052V1052ZM549 1043Q549
1101 541 1145T515 1221T468 1268T394 1284Q357 1284 329 1272T281 1233T251 1163T241 1055Q241 993 250 949T277 876T325 834T396 820Q439 820 468 835T515 880T541 950T549 1043V1043ZM1244 298Q1244 138 1177 62T978 -14Q905 -14 856 4T778 59T736 155T724 293Q724
377 741 437T793 535T877 592T992 610Q1063 610 1111 590T1189 531T1231 433T1244 298V298ZM1138 289Q1138 347 1131 391T1105 467T1057 514T983 530Q947 530 919 518T871 479T841 409T830 301Q830 239 839 195T866 122T914 80T985 66Q1028 66 1057 81T1105 126T1130
196T1138 289V289ZM245 -30L176 17L1133 1380L1203 1333L245 -30Z" />
<glyph unicode="&amp;" glyph-name="ampersand" horiz-adv-x="1404" d="M1184 744Q1184 680 1169 612T1129 478T1068 351T992 239Q1087 160 1150 120T1250 79H1311V6Q1302 1 1292 -2T1269 -8T1241 -12T1209 -14Q1186 -14 1158 -3T1093 31T1013 86T915 161Q874
120 825 88T723 33T612 -2T494 -14Q402 -14 333 10T218 76T149 179T126 311Q126 383 145 442T197 552T277 644T380 727Q343 778 315 823T268 911T238 991T228 1065Q228 1129 250 1184T314 1278T418 1341T561 1364Q633 1364 688 1346T781 1295T837 1219T856 1125Q856
1061 834 1009T769 911T666 820T527 724Q568 670 615 616T713 509T816 404T918 307Q954 354 981 407T1028 516T1057 629T1068 744H1184ZM245 339Q245 276 262 227T315 144T403 93T525 76Q575 76 620 88T707 120T783 166T846 221Q792 268 738 321T630 430T527 544T434
658Q394 629 360 597T301 526T260 442T245 339V339ZM741 1104Q741 1139 730 1170T696 1226T635 1265T545 1279Q496 1279 459 1264T396 1223T357 1162T344 1083Q344 1054 352 1022T376 954T417 878T475 791Q553 844 604 885T686 961T729 1031T741 1104V1104Z" />
<glyph unicode="&apos;" glyph-name="quotesingle" horiz-adv-x="640" d="M284 845L266 1350H387L369 845H284Z" />
<glyph unicode="(" glyph-name="parenleft" horiz-adv-x="620" d="M428 -341Q370 -253 323 -149T243 70T192 303T174 541Q174 674 194 801T249 1044T330 1262T428 1448L506 1415Q459 1325 421 1223T354 1011T309 787T293 561Q293 430 311 309T358 79T426 -128T506
-307L428 -341Z" />
<glyph unicode=")" glyph-name="parenright" horiz-adv-x="620" d="M114 -307Q160 -217 199 -115T266 97T311 320T327 547Q327 678 309 799T262 1029T194 1236T114 1415L192 1449Q250 1360 297 1256T377 1038T428 805T446 567Q446 433 426 306T371 64T290 -154T192
-340L114 -307Z" />
<glyph unicode="*" glyph-name="asterisk" horiz-adv-x="1000" d="M799 809L541 985L560 674H442L463 985L205 809L147 911L426 1050L147 1189L205 1291L463 1115L442 1426H560L541 1115L799 1291L857 1189L578 1050L857 911L799 809Z" />
<glyph unicode="+" glyph-name="plus" horiz-adv-x="1000" d="M550 548V159H448V548H88V639H448V1020H550V639H907V548H550Z" />
<glyph unicode="," glyph-name="comma" horiz-adv-x="611" d="M129 -225Q169 -198 196 -174T239 -128T262 -85T269 -44Q269 -24 263 -14T248 4T233 25T226 64Q226 90 229 107T240 135T266 149T312 154Q337 154 353 149T377 133T389 106T393 67Q393 4 381 -45T342
-135T274 -212T176 -283L129 -225Z" />
<glyph unicode="-" glyph-name="hyphen" horiz-adv-x="463" d="M69 540V635H461V540H69Z" />
<glyph unicode="." glyph-name="period" horiz-adv-x="580" d="M393 72Q393 47 390 31T377 5T351 -8T310 -12Q284 -12 268 -9T243 4T230 28T226 69Q226 94 229 111T242 137T268 150T311 154Q336 154 352 151T377 138T389 113T393 72V72Z" />
<glyph unicode="/" glyph-name="slash" horiz-adv-x="1000" d="M117 -208H0L851 1418H968L117 -208Z" />
<glyph unicode="0" glyph-name="zero" horiz-adv-x="1000" d="M888 696Q888 492 863 355T787 137T663 21T486 -14Q390 -14 322 17T206 122T135 328T110 658Q110 859 135 995T209 1212T333 1328T510 1364Q606 1364 675 1334T791 1229T863 1025T888 696ZM764 664Q764
843 749 960T701 1145T620 1241T498 1270Q427 1270 378 1241T296 1144T248 966T232 690Q232 511 247 393T295 207T377 109T498 80Q569 80 618 110T700 207T748 386T764 664Z" />
<glyph unicode="1" glyph-name="one" horiz-adv-x="1000" d="M154 0V104H474V1224L188 1108L158 1184L500 1350H596V104H882V0H154Z" />
<glyph unicode="2" glyph-name="two" horiz-adv-x="1000" d="M108 0V92Q270 258 381 389T561 625T662 817T694 986Q694 1056 678 1108T628 1195T548 1247T438 1264Q408 1264 378 1261T316 1250T247 1232T158 1202L138 1284Q206 1312 246 1325T324 1347T402 1360T488
1364Q565 1364 629 1341T739 1271T807 1158T830 1004Q830 912 800 821T703 627T526 397T248 104H864V0H108Z" />
<glyph unicode="3" glyph-name="three" horiz-adv-x="1000" d="M858 398Q858 187 758 87T446 -14Q377 -14 288 3T80 58L94 134Q210 108 294 96T442 84Q519 84 573 102T660 156T710 247T726 382Q726 455 709 509T655 599T563 653T428 672H274V766H420Q684 766 684
1034Q684 1093 670 1136T625 1208T547 1251T434 1266Q371 1266 286 1253T148 1220L128 1302Q210 1332 300 1348T478 1364Q556 1364 618 1343T723 1280T789 1180T812 1054Q812 989 798 935T755 839T688 770T600 732Q657 730 704 705T786 633T839 526T858 398Z" />
<glyph unicode="4" glyph-name="four" horiz-adv-x="1000" d="M754 322V0H636V322H62V410Q124 532 190 656T323 902T457 1136T586 1350H754V426H928V322H754ZM636 1248Q586 1165 530 1069T415 867T295 649T176 426H636V1248Z" />
<glyph unicode="5" glyph-name="five" horiz-adv-x="1000" d="M860 412Q860 304 835 224T759 92T627 13T434 -14Q364 -14 276 3T78 54L90 128Q210 105 294 94T444 82Q517 82 570 98T660 151T714 246T732 390Q732 465 714 524T656 626T557 690T414 712Q347 712
281 705T142 682L186 1350H768V1246H280L252 794Q289 801 343 805T454 810Q552 810 628 782T756 702T834 576T860 412Z" />
<glyph unicode="6" glyph-name="six" horiz-adv-x="1000" d="M896 416Q896 315 869 235T792 100T673 15T518 -14Q420 -14 350 16T231 116T159 310T134 618Q134 765 150 880T196 1077T266 1215T356 1303T461 1350T580 1364Q640 1364 708 1351T866 1308L850 1230Q779
1248 713 1259T586 1270Q509 1270 448 1234T345 1124T280 937T256 672Q301 697 339 715T416 746T492 765T572 772Q646 772 706 748T808 678T873 566T896 416ZM774 388Q774 531 713 603T524 676Q468 676 405 654T258 582V574Q258 445 274 352T324 198T407 109T528
80Q589 80 635 101T713 162T759 259T774 388Z" />
<glyph unicode="7" glyph-name="seven" horiz-adv-x="1000" d="M618 626Q583 553 542 469T456 298T368 131T288 -14L210 18L774 1246H96V1350H916V1262L618 626Z" />
<glyph unicode="8" glyph-name="eight" horiz-adv-x="1000" d="M901 324Q901 254 876 193T799 85T670 13T485 -14Q386 -14 314 9T194 75T123 175T99 302Q99 376 124 434T190 538T285 622T396 692Q343 722 296 756T211 831T152 924T130 1040Q130 1110 155 1169T229
1272T349 1340T513 1364Q615 1364 683 1340T793 1273T852 1176T870 1062Q870 996 848 945T787 852T700 775T598 709Q656 678 710 643T807 561T875 458T901 324V324ZM780 302Q780 367 755 417T689 506T594 579T484 644Q432 614 384 582T300 512T242 428T220 323Q220
265 238 220T294 143T385 95T512 78Q571 78 620 94T705 140T760 211T780 302V302ZM487 1273Q434 1273 390 1258T315 1214T268 1147T251 1060Q251 1003 271 960T327 880T409 814T506 756Q554 784 598 813T676 875T729 949T749 1039Q749 1095 734 1138T688 1212T607
1257T487 1273V1273Z" />
<glyph unicode="9" glyph-name="nine" horiz-adv-x="1000" d="M866 728Q866 578 849 463T802 266T729 129T637 44T530 -1T410 -14Q379 -14 347 -11T279 -1T202 17T110 44L122 122Q205 101 273 91T402 80Q481 80 543 114T650 220T719 405T744 674Q699 649 661 631T584
600T508 581T428 574Q354 574 294 598T192 668T127 780T104 930Q104 1031 131 1111T208 1248T328 1334T482 1364Q580 1364 650 1334T769 1232T841 1037T866 728ZM742 772Q742 1029 677 1149T472 1270Q411 1270 365 1248T287 1185T241 1087T226 958Q226 815 287
743T476 670Q532 670 595 692T742 764V772Z" />
<glyph unicode=":" glyph-name="colon" horiz-adv-x="612" d="M414 904Q414 879 410 863T397 838T371 826T332 822Q308 822 293 825T267 837T254 861T250 900Q250 924 253 940T267 965T293 978T334 982Q357 982 372 979T397 966T410 942T414 904V904ZM414 81Q414
57 410 41T397 16T371 4T332 0Q308 0 293 3T267 15T254 39T250 78Q250 102 253 118T267 143T293 156T334 160Q357 160 372 157T397 144T410 120T414 81V81Z" />
<glyph unicode=";" glyph-name="semicolon" horiz-adv-x="612" d="M413 904Q413 879 409 863T396 838T370 826T331 822Q307 822 292 825T266 837T253 861T249 900Q249 924 252 940T266 965T292 978T333 982Q356 982 371 979T396 966T409 942T413 904V904ZM149
-228Q190 -201 217 -177T262 -130T286 -85T293 -43Q293 -29 290 -21T282 -7T271 4T260 17T252 35T249 63Q249 88 252 104T265 131T290 145T333 149Q356 149 372 145T397 130T409 104T413 67Q413 5 401 -43T362 -133T294 -211T196 -282L149 -228Z" />
<glyph unicode="&lt;" glyph-name="less" horiz-adv-x="1000" d="M847 151L80 551V636L847 1036L892 948L205 594L892 242L847 151Z" />
<glyph unicode="=" glyph-name="equal" horiz-adv-x="1000" d="M102 739V831H898V739H102ZM102 356V448H898V356H102Z" />
<glyph unicode="&gt;" glyph-name="greater" horiz-adv-x="1000" d="M153 151L108 239L795 593L108 945L153 1036L920 636V551L153 151Z" />
<glyph unicode="?" glyph-name="question" horiz-adv-x="1000" d="M845 1074Q845 996 822 938T762 831T683 740T604 652T543 553T516 428L514 273H420L412 444Q409 507 430 561T486 664T560 759T635 851T693 945T717 1047Q717 1097 700 1137T651 1207T571 1252T464
1268Q425 1268 390 1264T321 1254T258 1241T205 1225L179 1302Q216 1316 255 1327T334 1346T412 1359T485 1364Q581 1364 649 1341T760 1279T824 1186T845 1074V1074ZM550 67Q550 43 547 28T534 4T510 -8T468 -11Q442 -11 425 -8T399 4T386 28T382 67Q382 91 385
107T398 132T425 145T469 149Q494 149 509 146T534 133T546 107T550 67V67Z" />
<glyph unicode="@" glyph-name="at" horiz-adv-x="2009" d="M1478 -198Q1425 -223 1359 -244T1219 -282T1071 -307T924 -316Q793 -316 688 -295T499 -231T356 -128T255 14T196 191T177 403Q177 538 204 665T284 906T418 1113T602 1275T837 1380T1121 1418Q1285
1418 1405 1375T1603 1253T1718 1063T1756 817Q1756 680 1723 560T1620 351T1443 210T1186 158H1127L1136 364Q1099 316 1062 276T986 206T904 161T816 145Q754 145 710 166T638 229T597 327T584 457Q584 578 614 677T703 846T851 954T1055 993Q1125 993 1190 984T1307
960L1228 250Q1302 250 1361 270T1467 326T1546 411T1601 520T1632 645T1642 781Q1642 860 1630 932T1590 1065T1520 1175T1416 1259T1276 1312T1096 1330Q958 1330 845 1294T643 1193T488 1043T377 856T312 647T290 428Q290 273 328 151T446 -55T654 -183T961
-228Q1014 -228 1081 -220T1215 -197T1346 -164T1456 -124L1478 -198ZM1184 882Q1157 889 1118 895T1034 901Q947 901 885 869T783 781T724 648T705 483Q705 424 713 379T738 304T783 258T850 242Q882 242 914 256T982 301T1055 376T1139 484L1184 882Z" />
<glyph unicode="A" glyph-name="A" horiz-adv-x="1034" d="M758 404Q700 604 634 810T498 1222Q440 1038 377 826T260 404H758V404ZM862 0Q846 70 826 148T784 306H236Q216 232 198 154T164 0H40Q80 156 126 326T223 669T329 1015T440 1350H582Q708 988 810 656T994
0H862Z" />
<glyph unicode="B" glyph-name="B" horiz-adv-x="1103" d="M844 388Q844 518 760 591T500 664H320V102Q358 98 412 95T518 92Q600 92 662 113T764 174T824 268T844 388ZM776 1028Q776 1130 709 1192T508 1254H320V758H472Q553 758 612 781T707 842T759 928T776
1028ZM974 402Q974 312 944 238T851 110T695 26T476 -4Q410 -4 320 -2T198 0V1350H544Q635 1350 703 1327T816 1263T881 1167T902 1048Q902 931 843 850T688 728Q742 723 793 700T885 636T950 535T974 402Z" />
<glyph unicode="C" glyph-name="C" horiz-adv-x="1038" d="M960 183Q891 92 796 39T576 -14Q358 -14 239 158T120 656Q120 820 155 952T254 1176T406 1316T600 1364Q706 1364 790 1316T938 1142L872 1094Q822 1180 756 1222T604 1264Q512 1264 445 1215T335 1085T271
900T250 684Q251 384 341 236T605 88Q694 88 763 125T904 244L960 183V183Z" />
<glyph unicode="D" glyph-name="D" horiz-adv-x="1147" d="M896 686Q896 800 875 903T802 1084T664 1208T448 1254Q416 1254 384 1254T320 1252V102Q392 96 466 96Q676 96 786 239T896 686ZM1026 706Q1026 542 990 411T879 188T689 47T418 -2Q360 -2 300 -1T198
0V1350L476 1352Q628 1352 733 1298T903 1154T997 948T1026 706Z" />
<glyph unicode="E" glyph-name="E" horiz-adv-x="942" d="M198 0V1350H814V1250H320V754H726V656H320V100H822V0H198Z" />
<glyph unicode="F" glyph-name="F" horiz-adv-x="898" d="M320 1252V738H762V640H320V0H198V1350H802V1252H320Z" />
<glyph unicode="G" glyph-name="G" horiz-adv-x="1141" d="M962 136Q890 68 796 27T580 -14Q476 -14 392 25T247 148T153 360T120 664Q120 829 158 960T265 1182T421 1318T606 1364Q704 1364 790 1323T944 1216L890 1154Q832 1202 762 1233T618 1264Q451 1264
351 1112T250 688Q250 532 275 418T347 231T459 123T606 88Q684 88 744 110T840 164V620H630V716H962V136Z" />
<glyph unicode="H" glyph-name="H" horiz-adv-x="1316" d="M996 0V658H320V0H198V1350H320V764H996V1350H1118V0H996Z" />
<glyph unicode="I" glyph-name="I" horiz-adv-x="518" d="M198 0V1350H320V0H198Z" />
<glyph unicode="J" glyph-name="J" horiz-adv-x="535" d="M338 136Q338 50 332 -15T307 -138T257 -247T172 -346L110 -294Q171 -221 193 -123T216 130V1350H338V136Z" />
<glyph unicode="K" glyph-name="K" horiz-adv-x="1023" d="M814 0L323 682H320V0H198V1350H320V737H323L787 1350H930L434 732L967 0H814Z" />
<glyph unicode="L" glyph-name="L" horiz-adv-x="842" d="M198 0V1350H320V100H804V0H198Z" />
<glyph unicode="M" glyph-name="M" horiz-adv-x="1674" d="M1368 0Q1364 166 1356 336T1337 663T1312 958T1286 1198H1284L870 0H780L362 1198H360Q350 1084 339 945T321 651T308 331T300 0H176Q180 160 188 330T209 673T239 1017T276 1350H436L834 212H836L1232
1350H1388Q1408 1188 1427 1017T1460 673T1484 330T1498 0H1368Z" />
<glyph unicode="N" glyph-name="N" horiz-adv-x="1303" d="M996 0L494 864Q456 930 421 990T360 1097Q329 1152 302 1200H300Q301 1154 303 1103Q304 1059 305 1004T306 890V0H198V1350H354L802 580Q839 517 874 456T938 344Q971 286 1000 232H1002Q1000 281 999
335Q997 381 997 438T996 554V1350H1106V0H996Z" />
<glyph unicode="O" glyph-name="O" horiz-adv-x="1271" d="M1020 668Q1020 973 923 1120T630 1268Q541 1268 472 1234T353 1129T277 946T250 682Q250 377 347 231T640 84Q729 84 799 118T918 223T994 405T1020 668ZM1150 696Q1150 512 1111 376T1002 154T835 27T620
-14Q504 -14 413 24T256 143T155 351T120 654Q120 838 159 974T269 1196T436 1323T650 1364Q766 1364 857 1326T1014 1207T1115 999T1150 696Z" />
<glyph unicode="P" glyph-name="P" horiz-adv-x="1009" d="M816 938Q816 1101 726 1178T446 1256H320V614H444Q626 614 721 697T816 938ZM946 956Q946 851 912 769T809 629T641 543T408 514H320V0H198V1350Q228 1350 309 1351T464 1352Q586 1352 677 1327T827
1253T916 1129T946 956Z" />
<glyph unicode="Q" glyph-name="Q" horiz-adv-x="1271" d="M1020 668Q1020 976 922 1122T630 1268Q544 1268 474 1234T354 1130T277 947T250 686Q250 374 348 229T640 84Q726 84 796 117T916 221T993 403T1020 668ZM1346 -294Q1270 -250 1203 -240T1075 -231T958
-236T847 -223T738 -159T628 -14Q510 -16 417 22T258 140T156 347T120 654Q120 844 160 978T272 1198T442 1324T652 1364Q764 1364 855 1327T1012 1211T1114 1005T1150 698Q1150 376 1035 200T714 -6Q768 -72 823 -98T934 -130T1047 -131T1162 -130T1278 -156T1392
-238L1346 -294Z" />
<glyph unicode="R" glyph-name="R" horiz-adv-x="1053" d="M818 986Q818 1050 800 1099T741 1183T637 1236T484 1254H320V710H498Q648 710 733 783T818 986ZM874 0L446 614H320V0H198V1350Q230 1350 329 1351T508 1352Q719 1352 833 1259T948 1008Q948 913 916
844T829 730T710 663T576 632L1030 0H874Z" />
<glyph unicode="S" glyph-name="S" horiz-adv-x="992" d="M902 358Q902 274 871 206T784 89T651 13T478 -14Q370 -14 280 16T118 90L152 162Q220 132 310 108T464 84Q606 84 688 153T770 342Q770 426 723 483T602 581T446 657T292 738T172 855T124 1028Q124 1102
152 1163T230 1269T351 1339T506 1364Q596 1364 674 1341T814 1278L782 1208Q730 1230 661 1249T520 1268Q388 1268 320 1205T252 1046Q252 962 299 905T419 807T577 730T736 646T856 528T902 358Z" />
<glyph unicode="T" glyph-name="T" horiz-adv-x="932" d="M526 1250V0H404V1250H32V1350H900V1250H526Z" />
<glyph unicode="U" glyph-name="U" horiz-adv-x="1304" d="M1110 500Q1110 368 1077 271T981 110T830 17T630 -14Q407 -14 301 103T194 476V1350H316V496Q316 381 336 302T398 175T504 104T658 82Q737 82 797 103T900 171T965 296T988 488V1350H1110V500Z" />
<glyph unicode="V" glyph-name="V" horiz-adv-x="1029" d="M988 1350Q905 1003 805 666T584 0H446Q318 367 219 697T40 1350H174Q238 1072 324 781T528 134Q629 441 711 737T862 1350H988Z" />
<glyph unicode="W" glyph-name="W" horiz-adv-x="1694" d="M1642 1350Q1598 1164 1554 991T1464 653T1368 325T1264 0H1130L884 940L842 1122H840L800 934L572 0H434Q375 173 326 332T231 652T141 984T52 1350H184Q222 1183 261 1028T340 729T420 451T510 156H512L538
274L798 1350H904L1176 302L1210 156H1214Q1301 453 1377 747T1518 1350H1642Z" />
<glyph unicode="X" glyph-name="X" horiz-adv-x="1081" d="M872 0Q824 96 780 179T693 337T609 479T526 609Q487 549 445 483T360 340T275 180T190 0H60Q107 104 156 197T255 375T357 541T463 702Q418 771 375 841T287 989T196 1156T97 1350H236Q277 1267 316
1192T392 1049T467 919T541 800Q580 856 620 919T699 1052T775 1196T844 1350H973Q936 1267 893 1186T803 1024T707 867T607 715Q657 635 706 556T806 391T907 209T1014 0H872Z" />
<glyph unicode="Y" glyph-name="Y" horiz-adv-x="959" d="M960 1350Q913 1256 865 1160T765 968T658 779T541 598V0H419V598Q362 685 309 772T205 950T104 1140T1 1350H143Q186 1257 228 1174T312 1011T398 856T492 705Q541 777 586 858T674 1023T753 1189T824 1350H960Z" />
<glyph unicode="Z" glyph-name="Z" horiz-adv-x="969" d="M86 0V84L712 1250H117L122 1350H856V1269L229 104H888L883 0H86Z" />
<glyph unicode="[" glyph-name="bracketleft" horiz-adv-x="701" d="M260 -346V1478H564V1394H368V-262H564V-346H260Z" />
<glyph unicode="\" glyph-name="backslash" horiz-adv-x="1000" d="M883 -208L32 1418H149L1000 -208H883Z" />
<glyph unicode="]" glyph-name="bracketright" horiz-adv-x="701" d="M137 -346V-262H333V1394H137V1478H441V-346H137Z" />
<glyph unicode="^" glyph-name="asciicircum" horiz-adv-x="1000" d="M817 735L500 1320L183 735L91 777L445 1418H556L910 777L817 735Z" />
<glyph unicode="_" glyph-name="underscore" horiz-adv-x="1000" d="M0 -348V-254H1000V-348H0Z" />
<glyph unicode="`" glyph-name="grave" horiz-adv-x="667" d="M446 1126L162 1368L253 1434L506 1169L446 1126Z" />
<glyph unicode="a" glyph-name="a" horiz-adv-x="972" d="M697 0L685 118Q650 89 615 65T541 23T460 -4T370 -14Q234 -14 163 54T92 245Q92 317 120 377T207 480T361 547T587 571H673V688Q673 743 660 785T617 854T542 896T433 910Q394 910 357 905T285 891T219
873T163 853L142 929Q171 942 206 955T283 978T371 994T469 1000Q559 1000 620 978T718 918T772 826T789 709V0H697ZM673 486H571Q461 486 391 469T281 423T227 352T212 264Q212 222 224 188T259 129T318 91T400 78Q464 78 532 108T673 203V486Z" />
<glyph unicode="b" glyph-name="b" horiz-adv-x="1024" d="M185 1418H301V878Q335 907 370 929T440 967T510 992T584 1001Q655 1001 715 966T819 868T887 718T911 528Q911 383 874 280T773 112T622 17T437 -14Q395 -14 362 -12T298 -6T241 3T185 13V1418ZM301
102Q331 91 374 84T470 76Q537 76 595 102T696 180T764 312T789 499Q789 588 774 662T728 791T655 876T555 907Q532 907 503 899T440 876T371 836T301 779V102Z" />
<glyph unicode="c" glyph-name="c" horiz-adv-x="857" d="M790 132Q760 99 727 72T655 26T572 -3T477 -14Q391 -14 323 17T209 110T138 263T113 478Q113 600 140 697T217 862T335 965T486 1001Q574 1001 643 969T762 879L715 819Q661 866 610 887T498 908Q435
908 387 880T305 799T254 671T236 501Q236 398 252 320T301 189T384 108T502 81Q562 81 620 106T742 193L790 132Z" />
<glyph unicode="d" glyph-name="d" horiz-adv-x="1024" d="M745 0L731 115Q697 87 662 64T590 23T515 -4T436 -14Q365 -14 306 20T204 116T137 264T113 457Q113 605 151 708T254 877T401 971T574 1001Q611 1001 652 998T724 991V1418H840V0H745ZM724 882Q680 896
635 903T549 910Q482 910 425 884T325 806T259 674T235 485Q235 394 251 319T297 191T371 109T469 80Q517 80 584 111T724 205V882Z" />
<glyph unicode="e" glyph-name="e" horiz-adv-x="965" d="M235 486V464Q235 361 254 288T311 169T403 102T529 81Q563 81 597 85T666 96T736 115T807 143L834 68Q764 33 679 10T498 -14Q411 -14 340 12T219 95T141 242T113 463Q113 591 139 691T214 860T335 965T500
1001Q556 1001 604 988T691 948T759 879T806 780T832 650T835 486H235ZM719 571V578Q719 655 705 717T663 822T591 889T488 913Q426 913 381 886T304 813T256 704T236 571H719Z" />
<glyph unicode="f" glyph-name="f" horiz-adv-x="582" d="M618 1304Q584 1321 546 1331T476 1342Q396 1342 360 1298T324 1162V986H560V900H324V0H208V900H34V986H208V1154Q208 1218 223 1269T268 1357T343 1413T448 1432Q476 1432 504 1428T559 1415T607 1397T648
1376L618 1304Z" />
<glyph unicode="g" glyph-name="g" horiz-adv-x="1024" d="M840 29Q840 -49 829 -108T795 -209T742 -279T670 -323T582 -346T479 -353Q444 -353 407 -350T332 -339T257 -323T187 -303L201 -230Q277 -244 345 -251T469 -259Q534 -259 582 -247T661 -205T708 -129T724
-10V147Q659 98 586 63T434 28Q365 28 307 62T205 157T138 301T113 484Q113 619 151 717T254 878T401 971T572 1001Q607 1001 643 998T713 991T780 982T840 971V29ZM724 881Q703 888 680 893T633 902T586 908T545 910Q479 910 422 884T324 807T259 683T235 518Q235
430 250 357T295 231T369 149T471 119Q500 119 532 129T598 157T664 197T724 245V881Z" />
<glyph unicode="h" glyph-name="h" horiz-adv-x="1073" d="M776 0Q776 68 776 141T778 285T779 419T780 530Q780 632 766 703T725 819T659 884T567 905Q541 905 509 897T443 872T373 830T301 773V0H185V1418H301V871Q332 898 367 921T441 962T521 990T608 1001Q672
1001 725 979T816 905T876 771T897 567Q897 521 896 455T894 313T892 156T891 0H776Z" />
<glyph unicode="i" glyph-name="i" horiz-adv-x="485" d="M319 1280Q319 1258 316 1244T306 1221T284 1210T244 1207Q219 1207 204 1210T181 1221T170 1243T167 1280Q167 1303 169 1317T180 1340T204 1350T244 1353Q269 1353 283 1351T306 1340T316 1318T319 1280V1280ZM185
0V986H301V0H185Z" />
<glyph unicode="j" glyph-name="j" horiz-adv-x="485" d="M301 73Q301 1 292 -58T260 -168T203 -264T115 -351L50 -308Q109 -248 147 -162T185 34V944V986H301V73ZM319 1280Q319 1258 316 1244T306 1221T284 1210T244 1207Q219 1207 204 1210T181 1221T170 1243T167
1280Q167 1303 169 1317T180 1340T204 1350T244 1353Q269 1353 283 1351T306 1340T316 1318T319 1280V1280Z" />
<glyph unicode="k" glyph-name="k" horiz-adv-x="885" d="M704 0L304 528H301V0H185V1418H301V571H304L653 986H799L412 564L848 0H704Z" />
<glyph unicode="l" glyph-name="l" horiz-adv-x="525" d="M453 4Q442 1 427 -2T397 -7T366 -10T339 -11Q298 -11 269 -4T221 24T194 82T185 181V1418H301V226Q301 179 304 150T315 105T340 84T381 78Q398 78 415 78T446 81L453 4Z" />
<glyph unicode="m" glyph-name="m" horiz-adv-x="1622" d="M1324 0Q1324 63 1325 133T1327 274T1328 411T1329 534Q1329 634 1316 704T1277 819T1215 884T1132 905Q1103 905 1069 894T998 863T926 815T855 758Q858 742 861 724T867 684T871 634T873 568V0H757V534Q757
631 744 701T705 817T643 883T560 905Q534 905 503 896T438 869T370 827T301 773V0H185V986H281L293 865Q324 891 359 916T434 960T515 990T600 1001Q648 1001 685 987T751 950T798 898T830 838Q869 872 909 901T992 953T1080 988T1172 1001Q1231 1001 1281 979T1367
905T1424 771T1445 567Q1445 515 1444 447T1442 302T1440 148T1439 0H1324Z" />
<glyph unicode="n" glyph-name="n" horiz-adv-x="1073" d="M776 0Q776 63 776 133T778 274T779 411T780 534Q780 634 767 704T727 819T660 884T569 905Q539 905 506 896T439 869T370 827T301 773V0H185V986H281L293 865Q328 896 365 921T443 963T524 991T609 1001Q674
1001 726 979T817 905T876 771T897 567Q897 515 896 446T894 302T892 148T891 0H776Z" />
<glyph unicode="o" glyph-name="o" horiz-adv-x="1029" d="M916 511Q916 420 903 347T863 215T800 113T715 42T612 0T493 -14Q405 -14 335 15T215 104T140 257T113 476Q113 565 127 639T166 772T229 874T314 945T417 987T536 1001Q624 1001 694 972T814 882T890
730T916 511V511ZM794 468Q794 585 777 668T725 805T638 884T513 909Q450 909 399 885T311 811T256 689T236 518Q236 401 252 318T304 181T391 103T516 78Q580 78 631 102T718 175T774 297T794 468V468Z" />
<glyph unicode="p" glyph-name="p" horiz-adv-x="1024" d="M185 -346V986H278L293 872Q327 900 362 923T434 964T508 991T584 1001Q656 1001 716 967T820 870T887 721T911 529Q911 387 875 285T774 115T624 17T440 -14Q416 -14 378 -13T301 -7V-346H185ZM301 104Q341
89 385 83T472 76Q539 76 596 101T697 179T764 312T789 501Q789 589 774 663T728 792T655 876T555 907Q531 907 502 899T440 876T371 836T301 779V104Z" />
<glyph unicode="q" glyph-name="q" horiz-adv-x="1024" d="M724 -346V108Q694 83 661 62T591 23T516 -4T441 -14Q393 -14 350 1T270 46T205 116T155 209T124 324T113 457Q113 600 150 702T251 871T402 969T591 1001Q622 1001 653 999T715 994T777 985T840 971V-346H724ZM724
882Q705 889 685 894T642 903T596 908T552 910Q485 910 427 884T327 805T260 672T235 485Q235 396 251 322T296 194T369 110T468 80Q496 80 529 89T595 117T661 157T724 207V882Z" />
<glyph unicode="r" glyph-name="r" horiz-adv-x="685" d="M614 866Q589 874 573 876T541 878Q517 878 493 868T439 836T376 777T301 689V0H185V986H281L294 801Q339 856 375 894T443 955T500 989T553 999Q571 999 588 995T627 980L614 866Z" />
<glyph unicode="s" glyph-name="s" horiz-adv-x="790" d="M698 264Q698 140 607 63T364 -14Q290 -14 223 2T92 50L112 122Q179 99 235 89T350 78Q458 78 516 126T574 252Q574 293 559 323T516 376T456 415T368 453T282 489T217 524T155 575T112 646T96 740Q96
795 118 842T180 925T277 980T402 1000Q460 1000 513 989T620 952L598 880Q556 895 509 903T420 912Q323 912 271 867T218 752Q218 700 242 665T306 606T420 552T531 506T607 459T673 380T698 264Z" />
<glyph unicode="t" glyph-name="t" horiz-adv-x="691" d="M617 115L636 41Q609 28 581 18T525 1T472 -10T424 -14Q366 -14 325 -1T257 44T218 127T206 253V900H35V986H207Q211 1019 215 1052T224 1121T232 1192T240 1266H322V986H610V900H322V282Q322 229 326
190T345 127T384 91T453 79Q467 79 483 80T519 85T563 96T617 115V115Z" />
<glyph unicode="u" glyph-name="u" horiz-adv-x="1073" d="M792 0L780 122Q745 91 708 66T630 23T549 -4T464 -14Q400 -14 347 8T257 81T198 215T177 419Q177 472 178 540T180 685T182 838T183 986H298Q298 923 297 853T295 712T294 575T293 453Q293 353 306 283T347
168T413 102T504 81Q534 81 567 90T634 117T703 159T773 213V986H889V0H792Z" />
<glyph unicode="v" glyph-name="v" horiz-adv-x="904" d="M841 986Q815 874 781 748T704 493T610 238T499 0H389L46 986H172L415 290L461 137Q504 232 541 337T610 551T669 770T715 986H841Z" />
<glyph unicode="w" glyph-name="w" horiz-adv-x="1434" d="M1365 986Q1343 878 1314 760T1247 517T1165 262T1066 0H950L735 709L706 826H703L676 707L488 0H362L57 986H183L383 324L433 148H435L469 289L653 986H770L988 269L1023 150H1025Q1059 250 1091 354T1151
563T1202 774T1245 986H1365Z" />
<glyph unicode="x" glyph-name="x" horiz-adv-x="927" d="M723 0L456 451Q422 392 387 332T318 213T255 100T200 0H63L395 524L119 986H256L470 608Q496 651 524 700T580 801T631 899T674 986H807L530 541L863 0H723Z" />
<glyph unicode="y" glyph-name="y" horiz-adv-x="906" d="M841 986Q790 766 740 592T639 283T541 47T445 -123T354 -237T268 -307T189 -342T116 -352Q88 -352 60 -346T6 -332V-258Q11 -259 20 -259T40 -260T62 -260T81 -261Q136 -261 182 -244T267 -191Q292 -168
309 -145T339 -98T356 -48T361 10Q361 51 346 119T290 297L44 986H172L384 384Q401 335 415 287T438 197T450 121T450 64Q487 147 524 255T597 484T662 734T715 986H841Z" />
<glyph unicode="z" glyph-name="z" horiz-adv-x="800" d="M696 0H96V75L544 894H115L120 986H679V914L231 95H701L696 0Z" />
<glyph unicode="{" glyph-name="braceleft" horiz-adv-x="776" d="M539 -346Q471 -346 428 -331T359 -285T324 -210T315 -106V319Q315 362 308 400T283 467T233 513T153 531H112V621H153Q201 621 233 637T283 681T308 745T315 824V1240Q315 1297 328 1342T370
1417T443 1462T546 1478H601V1401H553Q523 1401 499 1390T458 1359T432 1309T422 1243V887Q422 806 408 749T369 655T308 600T230 578Q272 574 307 556T368 499T408 403T422 263V-111Q422 -153 429 -183T453 -232T494 -260T555 -269H601V-346H539Z" />
<glyph unicode="|" glyph-name="bar" horiz-adv-x="501" d="M195 -346V1506H304V-346H195Z" />
<glyph unicode="}" glyph-name="braceright" horiz-adv-x="776" d="M620 531Q571 531 540 515T490 471T465 406T458 328V-108Q458 -166 444 -210T402 -285T330 -330T226 -346H171V-269H219Q249 -269 273 -258T315 -227T341 -177T350 -111V265Q350 346 364 403T403
497T464 552T543 574Q500 578 465 596T404 653T364 749T350 889V1243Q350 1285 343 1315T320 1364T279 1392T217 1401H171V1478H234Q302 1478 345 1463T414 1417T448 1342T458 1238V833Q458 789 465 751T490 685T539 639T620 621H660V531H620Z" />
<glyph unicode="~" glyph-name="asciitilde" horiz-adv-x="1000" d="M916 1175Q916 1120 900 1072T851 988T774 932T672 911Q616 911 578 926T511 965T460 1015T414 1066T364 1104T298 1120Q264 1120 237 1107T192 1068T165 1009T156 934H66V952Q66 1011 84 1059T134
1143T212 1197T310 1216Q365 1216 403 1201T471 1162T522 1112T568 1062T618 1023T684 1007Q722 1007 748 1022T792 1063T818 1122T826 1193H916V1175Z" />
<glyph unicode="&#x8e;" glyph-name="Zcaron" horiz-adv-x="969" d="M86 0V84L712 1250H117L122 1350H856V1269L229 104H888L883 0H86ZM210 1644L246 1704L493 1573L735 1704L772 1645L490 1463L210 1644Z" />
<glyph unicode="&#x9e;" glyph-name="zcaron" horiz-adv-x="800" d="M696 0H96V75L544 894H115L120 986H679V914L231 95H701L696 0ZM658 1130L394 1384L441 1436L663 1261L881 1436L928 1385L658 1130Z" />
<glyph unicode="&#xa0;" glyph-name="space" horiz-adv-x="480" />
<glyph unicode="&#xa1;" glyph-name="exclamdown" horiz-adv-x="742" d="M354 869L378 -208H234L260 869H354ZM226 1075Q226 1098 229 1113T242 1138T267 1150T309 1153Q335 1153 351 1150T377 1138T390 1114T394 1075Q394 1051 391 1035T378 1010T352 997T309
993Q283 993 267 996T242 1009T230 1035T226 1075V1075Z" />
<glyph unicode="&#xa2;" glyph-name="cent" horiz-adv-x="1000" d="M831 351Q805 326 777 304T716 264T649 235T573 219L561 -2H485L474 214Q396 220 335 249T232 334T167 471T144 662Q144 767 168 849T237 990T341 1086T474 1135L485 1351H561L573 1137Q640 1133
694 1105T802 1021L755 961Q694 1010 643 1030T542 1051Q480 1051 429 1025T342 950T287 835T267 686Q267 593 285 523T338 405T423 332T539 307Q570 307 600 313T660 332T721 364T783 412L831 351Z" />
<glyph unicode="&#xa3;" glyph-name="sterling" horiz-adv-x="1000" d="M91 0V84Q153 147 191 207T249 333T270 471T260 635H74V724H244Q237 755 230 788T216 854T207 921T203 990Q203 1088 229 1158T301 1274T410 1341T546 1363Q583 1363 624 1357T706 1341T785
1317T855 1289L833 1219Q750 1246 684 1257T565 1269Q496 1269 450 1250T377 1196T339 1116T328 1018Q328 979 332 943T342 870T357 797T372 724H760V635H386Q397 553 396 482T376 345T322 219T225 98H891V0H91Z" />
<glyph unicode="&#xa4;" glyph-name="currency" horiz-adv-x="1000" d="M835 40L701 215Q655 181 601 164T480 147Q422 147 375 161T290 203L165 40L80 104L226 254Q194 296 177 359T159 510Q159 598 179 666T238 782L80 944L165 1008L300 834Q345 868 398 884T521
901Q577 901 625 887T710 845L835 1008L921 944L774 794Q806 752 824 689T842 544Q842 452 822 384T762 267L921 104L835 40ZM728 509Q728 592 715 651T673 747T600 802T493 820Q440 820 399 803T330 752T286 666T271 544Q271 460 284 400T325 302T398 246T504
228Q557 228 598 245T668 298T713 385T728 509V509Z" />
<glyph unicode="&#xa5;" glyph-name="yen" horiz-adv-x="1000" d="M855 485H559V304H855V216H559V0H441V216H145V304H441V485H145V573H441V622Q383 707 331 792T228 965T127 1149T24 1350H163Q207 1258 249 1176T333 1016T420 865T513 718Q562 788 607 867T693
1028T771 1192T843 1350H976Q930 1261 882 1169T782 984T675 801T559 622V573H855V485Z" />
<glyph unicode="&#xa6;" glyph-name="brokenbar" horiz-adv-x="501" d="M302 -346H200V392H302V-346ZM200 1512H302V736H200V1512Z" />
<glyph unicode="&#xa7;" glyph-name="section" horiz-adv-x="1002" d="M258 -223Q303 -241 345 -248T441 -256Q493 -256 528 -242T585 -203T615 -144T625 -67Q625 -18 603 26T545 112T463 195T368 282T274 376T191 484T133 609T111 757Q111 835 129 910T179 1053T255
1177T351 1275T460 1340T576 1363Q637 1363 686 1351T771 1319L743 1244Q710 1256 668 1262T578 1269Q527 1269 492 1256T436 1218T406 1158T397 1080Q397 1031 419 987T477 901T559 817T653 730T748 635T830 527T888 400T910 250Q910 173 892 99T842 -41T767 -165T671
-263T561 -327T444 -350Q408 -350 379 -347T324 -337T276 -320T229 -296L258 -223ZM800 225Q800 309 774 377T707 503T615 611T512 707T417 800T345 896T311 1003T331 1127Q303 1090 283 1050T250 967T229 878T221 782Q221 699 247 632T315 507T407 401T509 305T604
212T676 116T709 7T687 -121Q712 -88 732 -53T768 24T791 114T800 225V225Z" />
<glyph unicode="&#xa8;" glyph-name="dieresis" horiz-adv-x="843" d="M682 1281Q682 1259 679 1246T669 1226T649 1216T612 1213Q590 1213 576 1215T554 1225T544 1246T541 1281Q541 1303 543 1316T554 1337T576 1347T612 1350Q635 1350 648 1348T669 1338T679
1317T682 1281ZM302 1281Q302 1259 300 1246T290 1226T270 1216T235 1213Q211 1213 197 1215T175 1225T165 1246T162 1281Q162 1303 164 1316T174 1337T196 1347T235 1350Q256 1350 269 1348T290 1338T299 1317T302 1281Z" />
<glyph unicode="&#xa9;" glyph-name="copyright" horiz-adv-x="1545" d="M1450 674Q1450 580 1427 493T1361 329T1257 189T1120 80T957 9T773 -17Q673 -17 585 7T421 75T286 181T183 320T118 487T95 676Q95 768 118 855T185 1019T288 1160T424 1269T587 1339T771
1365Q873 1365 963 1341T1129 1272T1264 1164T1365 1024T1428 858T1450 674V674ZM1357 676Q1357 805 1314 916T1194 1107T1009 1233T773 1279Q649 1279 543 1232T357 1102T234 910T189 674Q189 547 233 437T355 245T539 116T773 69Q897 69 1004 117T1189 247T1312
440T1357 676V676ZM1016 409Q992 386 966 367T909 334T845 313T770 306Q633 306 558 396T482 669Q482 760 505 831T569 952T668 1027T794 1053Q855 1053 902 1031T995 964L947 909Q906 944 868 956T794 969Q748 969 712 949T650 890T611 800T598 686Q598 616 610
562T646 470T707 411T792 391Q836 391 881 408T971 463L1016 409Z" />
<glyph unicode="&#xaa;" glyph-name="ordfeminine" horiz-adv-x="918" d="M604 678L595 771Q559 744 528 724T467 690T409 672T351 666Q301 666 262 682T196 727T156 793T142 872Q142 916 160 958T220 1035T332 1089T507 1110H585V1187Q585 1230 571 1260T533
1310T473 1337T397 1346Q349 1346 296 1336T191 1306L170 1375Q195 1386 227 1396T294 1414T367 1426T439 1430Q516 1430 565 1413T642 1364T680 1290T691 1199V678H604ZM585 1033H504Q426 1033 378 1022T301 992T262 945T251 884Q251 857 259 833T282 790T322
761T380 750Q401 750 425 758T475 778T528 807T585 842V1033ZM144 429V512H708V429H144Z" />
<glyph unicode="&#xab;" glyph-name="guillemotleft" horiz-adv-x="1003" d="M349 218L110 592L349 966L424 932L240 592L424 251L349 218ZM734 228L501 592L735 956L808 924L630 592L808 260L734 228Z" />
<glyph unicode="&#xac;" glyph-name="logicalnot" horiz-adv-x="1000" d="M773 277V547H86V640H878V277H773Z" />
<glyph unicode="&#xad;" glyph-name="hyphen" horiz-adv-x="463" d="M69 540V635H461V540H69Z" />
<glyph unicode="&#xae;" glyph-name="registered" horiz-adv-x="1134" d="M1011 969Q1011 876 976 795T881 654T739 559T564 524Q470 524 389 558T248 653T153 794T118 968Q118 1061 153 1141T248 1282T390 1377T565 1412Q659 1412 740 1378T881 1283T976 1143T1011
969V969ZM930 968Q930 1044 902 1110T824 1227T708 1306T564 1335Q488 1335 422 1306T306 1227T228 1111T199 968Q199 893 227 826T305 709T421 630T564 601Q641 601 707 630T823 709T901 826T930 968V968ZM639 729L525 932H510V729H425V1216Q466 1216 495 1216T551
1216Q597 1216 629 1206T682 1177T712 1135T722 1081Q722 1035 692 1000T609 945L744 729H639ZM510 998H548Q588 998 610 1020T633 1072Q633 1106 614 1127T541 1149H510V998Z" />
<glyph unicode="&#xaf;" glyph-name="macron" horiz-adv-x="830" d="M162 1219V1309H669V1219H162Z" />
<glyph unicode="&#xb0;" glyph-name="degree" horiz-adv-x="900" d="M699 1124Q699 1062 684 1016T637 938T560 891T454 875Q388 875 341 889T264 932T218 1008T203 1118Q203 1180 219 1227T267 1306T347 1354T460 1371Q522 1371 567 1357T642 1312T685 1235T699
1124V1124ZM593 1122Q593 1171 586 1203T563 1254T521 1280T454 1288Q412 1288 385 1279T341 1249T317 1198T310 1122Q310 1077 315 1046T335 996T378 967T454 958Q494 958 520 967T563 997T586 1049T593 1122V1122Z" />
<glyph unicode="&#xb1;" glyph-name="plusminus" horiz-adv-x="1000" d="M89 0V88H905V0H89ZM550 623V254H449V623H89V712H449V1072H550V712H905V623H550Z" />
<glyph unicode="&#xb2;" glyph-name="twosuperior" horiz-adv-x="673" d="M90 737V813Q194 898 263 964T373 1082T432 1174T450 1247Q450 1286 438 1312T404 1353T355 1374T297 1380Q276 1380 255 1377T213 1369T168 1358T119 1345L104 1411Q133 1421 160 1430T215
1445T275 1455T344 1458Q387 1458 427 1448T498 1414T547 1353T566 1263Q566 1220 549 1174T492 1075T385 959T219 823H587V737H90Z" />
<glyph unicode="&#xb3;" glyph-name="threesuperior" horiz-adv-x="678" d="M96 825Q129 818 158 814T214 806T265 802T310 801Q357 801 391 809T447 834T479 877T489 938Q489 970 479 995T446 1038T388 1063T301 1072H200V1145H300Q379 1145 422 1177T465 1270Q465
1323 430 1352T318 1382Q297 1382 273 1380T223 1375T174 1366T132 1357L114 1419Q155 1434 215 1446T348 1458Q404 1458 447 1445T518 1409T561 1353T576 1283Q576 1248 565 1220T535 1172T492 1138T440 1118Q477 1115 507 1100T559 1062T591 1008T603 946Q603
887 585 846T531 777T443 738T323 725Q275 725 217 733T85 764L96 825Z" />
<glyph unicode="&#xb4;" glyph-name="acute" horiz-adv-x="667" d="M221 1126L162 1169L414 1434L506 1368L221 1126Z" />
<glyph unicode="&#xb5;" glyph-name="mu" horiz-adv-x="1081" d="M800 0L788 122Q754 92 718 68T643 26T564 -2T484 -12Q413 -12 363 19T288 95Q288 95 289 77T291 27T293 -44T296 -125T299 -206T301 -277T303 -327T304 -346H185V986H301V413Q301 341 309 280T340
175T405 106T511 81Q542 81 575 90T642 117T711 159T780 213V986H896V0H800Z" />
<glyph unicode="&#xb6;" glyph-name="paragraph" horiz-adv-x="1220" d="M928 -208V1261H727V-208H624V616Q526 598 441 618T294 686T195 809T159 976Q159 1055 186 1123T265 1242T392 1321T561 1350H1032V-208H928Z" />
<glyph unicode="&#xb7;" glyph-name="periodcentered" horiz-adv-x="511" d="M338 593Q338 568 335 552T323 526T297 513T256 509Q230 509 214 512T189 525T176 549T173 590Q173 615 176 631T188 657T215 670T257 674Q282 674 297 671T322 658T335 634T338 593V593Z" />
<glyph unicode="&#xb8;" glyph-name="cedilla" horiz-adv-x="526" d="M362 -87Q370 -172 333 -237T224 -353L162 -310Q189 -285 207 -262T237 -214T253 -158T256 -87H362Z" />
<glyph unicode="&#xb9;" glyph-name="onesuperior" horiz-adv-x="664" d="M109 737V818H298V1353L129 1302L108 1364L323 1450H404V818H578V737H109Z" />
<glyph unicode="&#xba;" glyph-name="ordmasculine" horiz-adv-x="870" d="M742 1066Q742 962 717 887T647 763T541 690T411 666Q348 666 293 684T197 746T133 862T109 1041Q109 1143 135 1217T206 1338T309 1407T433 1430Q497 1430 553 1410T651 1346T718 1233T742
1066V1066ZM632 1031Q632 1113 619 1172T580 1270T514 1327T422 1346Q373 1346 336 1327T273 1273T234 1186T220 1072Q220 985 233 925T272 825T337 768T429 750Q476 750 514 767T578 819T618 907T632 1031V1031ZM141 429V512H705V429H141Z" />
<glyph unicode="&#xbb;" glyph-name="guillemotright" horiz-adv-x="1003" d="M654 966L894 592L654 218L579 252L764 592L579 933L654 966ZM269 956L503 592L269 228L195 261L374 592L195 924L269 956Z" />
<glyph unicode="&#xbc;" glyph-name="onequarter" horiz-adv-x="1408" d="M109 737V818H298V1353L129 1302L108 1364L323 1450H404V818H578V737H109ZM1286 1459L1360 1418L220 -128L146 -86L1286 1459ZM1243 52V-111H1138V52H776V124Q810 183 849 245T930 370T1014
490T1097 598H1243V133H1362V52H1243ZM1138 526Q1108 489 1073 442T1003 344T932 238T866 133H1138V526Z" />
<glyph unicode="&#xbd;" glyph-name="onehalf" horiz-adv-x="1466" d="M109 737V818H298V1353L129 1302L108 1364L323 1450H404V818H578V737H109ZM1286 1459L1360 1418L220 -128L146 -86L1286 1459ZM882 -111V-35Q986 50 1055 116T1165 234T1224 326T1242 399Q1242
438 1230 464T1196 505T1147 526T1089 532Q1068 532 1047 529T1005 521T960 510T911 497L896 563Q925 573 952 582T1007 597T1067 607T1136 610Q1179 610 1219 600T1290 566T1339 505T1358 415Q1358 372 1341 326T1284 227T1177 111T1011 -25H1379V-111H882Z" />
<glyph unicode="&#xbe;" glyph-name="threequarters" horiz-adv-x="1438" d="M96 825Q129 818 158 814T214 806T265 802T310 801Q357 801 391 809T447 834T479 877T489 938Q489 970 479 995T446 1038T388 1063T301 1072H200V1145H300Q379 1145 422 1177T465 1270Q465
1323 430 1352T318 1382Q297 1382 273 1380T223 1375T174 1366T132 1357L114 1419Q155 1434 215 1446T348 1458Q404 1458 447 1445T518 1409T561 1353T576 1283Q576 1248 565 1220T535 1172T492 1138T440 1118Q477 1115 507 1100T559 1062T591 1008T603 946Q603
887 585 846T531 777T443 738T323 725Q275 725 217 733T85 764L96 825ZM1317 1459L1391 1418L251 -128L177 -86L1317 1459ZM1274 52V-111H1169V52H807V124Q841 183 880 245T961 370T1045 490T1128 598H1274V133H1393V52H1274ZM1169 526Q1139 489 1104 442T1034
344T963 238T897 133H1169V526Z" />
<glyph unicode="&#xbf;" glyph-name="questiondown" horiz-adv-x="1000" d="M155 81Q155 152 178 207T238 308T317 395T396 483T457 585T484 714L486 869H580L588 698Q590 633 569 578T514 472T440 377T365 288T307 199T283 107Q283 53 300 10T349 -63T429 -110T536
-126Q574 -126 610 -123T679 -113T742 -100T795 -83L821 -160Q784 -174 745 -185T666 -204T588 -217T515 -222Q419 -222 351 -199T240 -135T176 -39T155 81V81ZM450 1075Q450 1098 453 1113T466 1138T490 1150T532 1153Q558 1153 575 1150T601 1138T614 1114T618
1075Q618 1051 615 1035T602 1010T575 997T531 993Q506 993 491 996T466 1009T454 1035T450 1075V1075Z" />
<glyph unicode="&#xc0;" glyph-name="Agrave" horiz-adv-x="1034" d="M758 404Q700 604 634 810T498 1222Q440 1038 377 826T260 404H758V404ZM862 0Q846 70 826 148T784 306H236Q216 232 198 154T164 0H40Q80 156 126 326T223 669T329 1015T440 1350H582Q708
988 810 656T994 0H862ZM549 1463L204 1610L262 1704L586 1525L549 1463Z" />
<glyph unicode="&#xc1;" glyph-name="Aacute" horiz-adv-x="1034" d="M758 404Q700 604 634 810T498 1222Q440 1038 377 826T260 404H758V404ZM862 0Q846 70 826 148T784 306H236Q216 232 198 154T164 0H40Q80 156 126 326T223 669T329 1015T440 1350H582Q708
988 810 656T994 0H862ZM742 1704L800 1610L455 1463L418 1525L742 1704Z" />
<glyph unicode="&#xc2;" glyph-name="Acircumflex" horiz-adv-x="1034" d="M758 404Q700 604 634 810T498 1222Q440 1038 377 826T260 404H758V404ZM862 0Q846 70 826 148T784 306H236Q216 232 198 154T164 0H40Q80 156 126 326T223 669T329 1015T440 1350H582Q708
988 810 656T994 0H862ZM796 1522L759 1463L513 1593L270 1463L234 1522L515 1704L796 1522Z" />
<glyph unicode="&#xc3;" glyph-name="Atilde" horiz-adv-x="1034" d="M758 404Q700 604 634 810T498 1222Q440 1038 377 826T260 404H758V404ZM862 0Q846 70 826 148T784 306H236Q216 232 198 154T164 0H40Q80 156 126 326T223 669T329 1015T440 1350H582Q708
988 810 656T994 0H862ZM838 1628Q812 1586 789 1557T742 1509T691 1483T630 1474Q582 1474 548 1491T485 1531T431 1571T376 1589Q359 1589 345 1584T315 1565T281 1531T239 1479L182 1520Q208 1562 230 1591T277 1638T328 1665T390 1674Q437 1674 471 1656T534
1616T588 1577T643 1559Q661 1559 675 1564T705 1583T738 1617T780 1669L838 1628Z" />
<glyph unicode="&#xc4;" glyph-name="Adieresis" horiz-adv-x="1034" d="M758 404Q700 604 634 810T498 1222Q440 1038 377 826T260 404H758V404ZM862 0Q846 70 826 148T784 306H236Q216 232 198 154T164 0H40Q80 156 126 326T223 669T329 1015T440 1350H582Q708
988 810 656T994 0H862ZM782 1553Q782 1533 779 1520T768 1500T747 1489T711 1486Q688 1486 674 1489T651 1499T641 1520T638 1553Q638 1575 640 1588T651 1609T673 1619T711 1621Q733 1621 746 1619T768 1610T779 1589T782 1553ZM389 1553Q389 1533 387 1520T377
1500T356 1489T320 1486Q297 1486 283 1489T261 1499T250 1520T247 1553Q247 1575 250 1588T260 1609T282 1619T320 1621Q342 1621 355 1619T376 1610T386 1589T389 1553Z" />
<glyph unicode="&#xc5;" glyph-name="Aring" horiz-adv-x="1034" d="M758 404Q700 604 634 810T498 1222Q440 1038 377 826T260 404H758V404ZM862 0Q846 70 826 148T784 306H236Q216 232 198 154T164 0H40Q80 156 126 326T223 669T329 1015T440 1350H582Q708 988
810 656T994 0H862ZM692 1551Q692 1512 678 1482T639 1430T579 1398T501 1387Q454 1387 420 1397T364 1426T332 1475T322 1541Q322 1577 335 1607T374 1658T434 1692T514 1704Q561 1704 595 1693T650 1661T681 1612T692 1551V1551ZM597 1543Q597 1591 577 1613T507
1635Q458 1635 437 1613T416 1543Q416 1520 421 1504T436 1477T464 1461T507 1456Q558 1456 577 1478T597 1543V1543Z" />
<glyph unicode="&#xc6;" glyph-name="AE" horiz-adv-x="1409" d="M665 0V307H233Q218 268 201 228T169 149T139 72T112 0H-19Q52 171 128 343T283 686T443 1023T607 1350H1281V1250H787V754H1193V657H787V101H1289V0H665ZM665 1250H663Q607 1138 556 1031T457
819T363 611T273 404H665V1250Z" />
<glyph unicode="&#xc7;" glyph-name="Ccedilla" horiz-adv-x="1038" d="M960 183Q891 92 796 39T576 -14Q358 -14 239 158T120 656Q120 820 155 952T254 1176T406 1316T600 1364Q706 1364 790 1316T938 1142L872 1094Q822 1180 756 1222T604 1264Q512 1264 445
1215T335 1085T271 900T250 684Q251 384 341 236T605 88Q694 88 763 125T904 244L960 183V183ZM648 -87Q656 -172 619 -237T510 -353L448 -310Q475 -285 493 -262T523 -214T539 -158T542 -87H648Z" />
<glyph unicode="&#xc8;" glyph-name="Egrave" horiz-adv-x="942" d="M198 0V1350H814V1250H320V754H726V656H320V100H822V0H198ZM560 1463L215 1610L273 1704L597 1525L560 1463Z" />
<glyph unicode="&#xc9;" glyph-name="Eacute" horiz-adv-x="942" d="M198 0V1350H814V1250H320V754H726V656H320V100H822V0H198ZM740 1704L798 1610L453 1463L416 1525L740 1704Z" />
<glyph unicode="&#xca;" glyph-name="Ecircumflex" horiz-adv-x="942" d="M198 0V1350H814V1250H320V754H726V656H320V100H822V0H198ZM784 1522L747 1463L501 1593L258 1463L222 1522L503 1704L784 1522Z" />
<glyph unicode="&#xcb;" glyph-name="Edieresis" horiz-adv-x="942" d="M198 0V1350H814V1250H320V754H726V656H320V100H822V0H198ZM772 1553Q772 1533 769 1520T758 1500T737 1489T701 1486Q678 1486 664 1489T641 1499T631 1520T628 1553Q628 1575 630 1588T641
1609T663 1619T701 1621Q723 1621 736 1619T758 1610T769 1589T772 1553ZM379 1553Q379 1533 377 1520T367 1500T346 1489T310 1486Q287 1486 273 1489T251 1499T240 1520T237 1553Q237 1575 240 1588T250 1609T272 1619T310 1621Q332 1621 345 1619T366 1610T376
1589T379 1553Z" />
<glyph unicode="&#xcc;" glyph-name="Igrave" horiz-adv-x="518" d="M198 0V1350H320V0H198ZM297 1463L-48 1610L10 1704L334 1525L297 1463Z" />
<glyph unicode="&#xcd;" glyph-name="Iacute" horiz-adv-x="518" d="M198 0V1350H320V0H198ZM494 1704L552 1610L207 1463L170 1525L494 1704Z" />
<glyph unicode="&#xce;" glyph-name="Icircumflex" horiz-adv-x="518" d="M198 0V1350H320V0H198ZM543 1522L506 1463L260 1593L17 1463L-19 1522L262 1704L543 1522Z" />
<glyph unicode="&#xcf;" glyph-name="Idieresis" horiz-adv-x="518" d="M198 0V1350H320V0H198ZM528 1553Q528 1533 525 1520T514 1500T493 1489T457 1486Q434 1486 420 1489T397 1499T387 1520T384 1553Q384 1575 386 1588T397 1609T419 1619T457 1621Q479 1621
492 1619T514 1610T525 1589T528 1553ZM135 1553Q135 1533 133 1520T123 1500T102 1489T66 1486Q43 1486 29 1489T7 1499T-4 1520T-7 1553Q-7 1575 -4 1588T6 1609T28 1619T66 1621Q88 1621 101 1619T122 1610T132 1589T135 1553Z" />
<glyph unicode="&#xd0;" glyph-name="Eth" horiz-adv-x="1167" d="M218 1350Q287 1350 352 1351T495 1352Q597 1352 677 1328T819 1259T923 1155T993 1022T1033 870T1046 706Q1046 542 1010 411T898 188T709 47T438 -3Q409 -3 379 -3T321 -2T266 -1T218 0V657H79V754H218V1350ZM340
754H604V657H340V101Q376 98 413 97T485 96Q589 96 669 131T804 239T887 424T916 687Q916 763 907 835T877 970T822 1085T738 1175T621 1234T468 1255Q452 1255 436 1255T404 1255T372 1255T340 1253V754Z" />
<glyph unicode="&#xd1;" glyph-name="Ntilde" horiz-adv-x="1303" d="M996 0L494 864Q456 930 421 990T360 1097Q329 1152 302 1200H300Q301 1154 303 1103Q304 1059 305 1004T306 890V0H198V1350H354L802 580Q839 517 874 456T938 344Q971 286 1000 232H1002Q1000
281 999 335Q997 381 997 438T996 554V1350H1106V0H996ZM998 1628Q972 1586 949 1557T902 1509T851 1483T790 1474Q742 1474 708 1491T645 1531T591 1571T536 1589Q519 1589 505 1584T475 1565T441 1531T399 1479L342 1520Q368 1562 390 1591T437 1638T488 1665T550
1674Q597 1674 631 1656T694 1616T748 1577T803 1559Q821 1559 835 1564T865 1583T898 1617T940 1669L998 1628Z" />
<glyph unicode="&#xd2;" glyph-name="Ograve" horiz-adv-x="1271" d="M1020 668Q1020 973 923 1120T630 1268Q541 1268 472 1234T353 1129T277 946T250 682Q250 377 347 231T640 84Q729 84 799 118T918 223T994 405T1020 668ZM1150 696Q1150 512 1111 376T1002
154T835 27T620 -14Q504 -14 413 24T256 143T155 351T120 654Q120 838 159 974T269 1196T436 1323T650 1364Q766 1364 857 1326T1014 1207T1115 999T1150 696ZM661 1463L316 1610L374 1704L698 1525L661 1463Z" />
<glyph unicode="&#xd3;" glyph-name="Oacute" horiz-adv-x="1271" d="M1020 668Q1020 973 923 1120T630 1268Q541 1268 472 1234T353 1129T277 946T250 682Q250 377 347 231T640 84Q729 84 799 118T918 223T994 405T1020 668ZM1150 696Q1150 512 1111 376T1002
154T835 27T620 -14Q504 -14 413 24T256 143T155 351T120 654Q120 838 159 974T269 1196T436 1323T650 1364Q766 1364 857 1326T1014 1207T1115 999T1150 696ZM895 1704L953 1610L608 1463L571 1525L895 1704Z" />
<glyph unicode="&#xd4;" glyph-name="Ocircumflex" horiz-adv-x="1271" d="M1020 668Q1020 973 923 1120T630 1268Q541 1268 472 1234T353 1129T277 946T250 682Q250 377 347 231T640 84Q729 84 799 118T918 223T994 405T1020 668ZM1150 696Q1150 512 1111 376T1002
154T835 27T620 -14Q504 -14 413 24T256 143T155 351T120 654Q120 838 159 974T269 1196T436 1323T650 1364Q766 1364 857 1326T1014 1207T1115 999T1150 696ZM919 1522L882 1463L636 1593L393 1463L357 1522L638 1704L919 1522Z" />
<glyph unicode="&#xd5;" glyph-name="Otilde" horiz-adv-x="1271" d="M1020 668Q1020 973 923 1120T630 1268Q541 1268 472 1234T353 1129T277 946T250 682Q250 377 347 231T640 84Q729 84 799 118T918 223T994 405T1020 668ZM1150 696Q1150 512 1111 376T1002
154T835 27T620 -14Q504 -14 413 24T256 143T155 351T120 654Q120 838 159 974T269 1196T436 1323T650 1364Q766 1364 857 1326T1014 1207T1115 999T1150 696ZM965 1628Q939 1586 916 1557T869 1509T818 1483T757 1474Q709 1474 675 1491T612 1531T558 1571T503
1589Q486 1589 472 1584T442 1565T408 1531T366 1479L309 1520Q335 1562 357 1591T404 1638T455 1665T517 1674Q564 1674 598 1656T661 1616T715 1577T770 1559Q788 1559 802 1564T832 1583T865 1617T907 1669L965 1628Z" />
<glyph unicode="&#xd6;" glyph-name="Odieresis" horiz-adv-x="1271" d="M1020 668Q1020 973 923 1120T630 1268Q541 1268 472 1234T353 1129T277 946T250 682Q250 377 347 231T640 84Q729 84 799 118T918 223T994 405T1020 668ZM1150 696Q1150 512 1111 376T1002
154T835 27T620 -14Q504 -14 413 24T256 143T155 351T120 654Q120 838 159 974T269 1196T436 1323T650 1364Q766 1364 857 1326T1014 1207T1115 999T1150 696ZM903 1553Q903 1533 900 1520T889 1500T868 1489T832 1486Q809 1486 795 1489T772 1499T762 1520T759
1553Q759 1575 761 1588T772 1609T794 1619T832 1621Q854 1621 867 1619T889 1610T900 1589T903 1553ZM510 1553Q510 1533 508 1520T498 1500T477 1489T441 1486Q418 1486 404 1489T382 1499T371 1520T368 1553Q368 1575 371 1588T381 1609T403 1619T441 1621Q463
1621 476 1619T497 1610T507 1589T510 1553Z" />
<glyph unicode="&#xd7;" glyph-name="multiply" horiz-adv-x="1000" d="M848 314L780 246L500 526L220 246L154 312L434 592L156 870L224 938L502 660L780 938L846 872L568 593L848 314Z" />
<glyph unicode="&#xd8;" glyph-name="Oslash" horiz-adv-x="1271" d="M1150 697Q1150 570 1132 469T1081 288T1000 152T894 58T765 4T620 -14Q536 -14 463 7T330 76L202 -141L126 -98L264 134Q198 210 160 338T121 653Q121 779 139 881T190 1062T271 1198T377
1292T506 1346T651 1364Q736 1364 809 1343T941 1274L1069 1491L1145 1448L1007 1217Q1073 1139 1111 1011T1150 697V697ZM1024 667Q1024 809 1002 917T935 1097L388 173Q436 126 498 103T640 80Q699 80 750 94T844 140T920 219T977 331T1012 480T1024 667V667ZM631
1270Q543 1270 472 1237T351 1132T274 949T247 683Q247 543 269 435T336 253L883 1177Q836 1223 773 1246T631 1270V1270Z" />
<glyph unicode="&#xd9;" glyph-name="Ugrave" horiz-adv-x="1304" d="M1110 500Q1110 368 1077 271T981 110T830 17T630 -14Q407 -14 301 103T194 476V1350H316V496Q316 381 336 302T398 175T504 104T658 82Q737 82 797 103T900 171T965 296T988 488V1350H1110V500ZM674
1463L329 1610L387 1704L711 1525L674 1463Z" />
<glyph unicode="&#xda;" glyph-name="Uacute" horiz-adv-x="1304" d="M1110 500Q1110 368 1077 271T981 110T830 17T630 -14Q407 -14 301 103T194 476V1350H316V496Q316 381 336 302T398 175T504 104T658 82Q737 82 797 103T900 171T965 296T988 488V1350H1110V500ZM931
1704L989 1610L644 1463L607 1525L931 1704Z" />
<glyph unicode="&#xdb;" glyph-name="Ucircumflex" horiz-adv-x="1304" d="M1110 500Q1110 368 1077 271T981 110T830 17T630 -14Q407 -14 301 103T194 476V1350H316V496Q316 381 336 302T398 175T504 104T658 82Q737 82 797 103T900 171T965 296T988 488V1350H1110V500ZM937
1522L900 1463L654 1593L411 1463L375 1522L656 1704L937 1522Z" />
<glyph unicode="&#xdc;" glyph-name="Udieresis" horiz-adv-x="1304" d="M1110 500Q1110 368 1077 271T981 110T830 17T630 -14Q407 -14 301 103T194 476V1350H316V496Q316 381 336 302T398 175T504 104T658 82Q737 82 797 103T900 171T965 296T988 488V1350H1110V500ZM920
1553Q920 1533 917 1520T906 1500T885 1489T849 1486Q826 1486 812 1489T789 1499T779 1520T776 1553Q776 1575 778 1588T789 1609T811 1619T849 1621Q871 1621 884 1619T906 1610T917 1589T920 1553ZM527 1553Q527 1533 525 1520T515 1500T494 1489T458 1486Q435
1486 421 1489T399 1499T388 1520T385 1553Q385 1575 388 1588T398 1609T420 1619T458 1621Q480 1621 493 1619T514 1610T524 1589T527 1553Z" />
<glyph unicode="&#xdd;" glyph-name="Yacute" horiz-adv-x="959" d="M960 1350Q913 1256 865 1160T765 968T658 779T541 598V0H419V598Q362 685 309 772T205 950T104 1140T1 1350H143Q186 1257 228 1174T312 1011T398 856T492 705Q541 777 586 858T674 1023T753
1189T824 1350H960ZM740 1704L798 1610L453 1463L416 1525L740 1704Z" />
<glyph unicode="&#xde;" glyph-name="Thorn" horiz-adv-x="1009" d="M198 0V1350H322V1127Q348 1128 381 1128T464 1128Q600 1128 692 1099T840 1018T921 892T945 731Q945 643 917 563T823 423T653 327T398 291H320V0H198ZM320 388H444Q540 388 610 411T725 477T793
580T816 713Q816 788 796 847T731 947T615 1010T440 1032H320V388Z" />
<glyph unicode="&#xdf;" glyph-name="germandbls" horiz-adv-x="1079" d="M185 0V1015Q185 1119 207 1197T275 1327T390 1404T552 1430Q623 1430 680 1413T776 1363T837 1285T858 1183Q858 1109 841 1062T796 983T739 929T682 884T638 830T620 754Q620 712 635
681T677 625T736 579T804 537T872 491T931 435T973 362T989 266Q989 207 970 156T913 68T822 9T699 -13Q639 -13 584 -1T484 34L503 105Q538 92 587 84T682 76Q727 76 761 89T820 126T856 182T869 252Q869 312 842 351T774 421T686 478T599 539T531 621T504 742Q504
799 521 836T566 900T623 949T680 998T725 1065T743 1164Q743 1206 729 1239T689 1295T625 1329T539 1341Q471 1341 425 1319T351 1256T312 1156T301 1025V0H185Z" />
<glyph unicode="&#xe0;" glyph-name="agrave" horiz-adv-x="972" d="M697 0L685 118Q650 89 615 65T541 23T460 -4T370 -14Q234 -14 163 54T92 245Q92 317 120 377T207 480T361 547T587 571H673V688Q673 743 660 785T617 854T542 896T433 910Q394 910 357 905T285
891T219 873T163 853L142 929Q171 942 206 955T283 978T371 994T469 1000Q559 1000 620 978T718 918T772 826T789 709V0H697ZM673 486H571Q461 486 391 469T281 423T227 352T212 264Q212 222 224 188T259 129T318 91T400 78Q464 78 532 108T673 203V486ZM482 1126L198
1368L289 1434L542 1169L482 1126Z" />
<glyph unicode="&#xe1;" glyph-name="aacute" horiz-adv-x="972" d="M697 0L685 118Q650 89 615 65T541 23T460 -4T370 -14Q234 -14 163 54T92 245Q92 317 120 377T207 480T361 547T587 571H673V688Q673 743 660 785T617 854T542 896T433 910Q394 910 357 905T285
891T219 873T163 853L142 929Q171 942 206 955T283 978T371 994T469 1000Q559 1000 620 978T718 918T772 826T789 709V0H697ZM673 486H571Q461 486 391 469T281 423T227 352T212 264Q212 222 224 188T259 129T318 91T400 78Q464 78 532 108T673 203V486ZM442 1126L383
1169L635 1434L727 1368L442 1126Z" />
<glyph unicode="&#xe2;" glyph-name="acircumflex" horiz-adv-x="972" d="M697 0L685 118Q650 89 615 65T541 23T460 -4T370 -14Q234 -14 163 54T92 245Q92 317 120 377T207 480T361 547T587 571H673V688Q673 743 660 785T617 854T542 896T433 910Q394 910 357
905T285 891T219 873T163 853L142 929Q171 942 206 955T283 978T371 994T469 1000Q559 1000 620 978T718 918T772 826T789 709V0H697ZM673 486H571Q461 486 391 469T281 423T227 352T212 264Q212 222 224 188T259 129T318 91T400 78Q464 78 532 108T673 203V486ZM687
1131L465 1306L246 1131L200 1183L470 1437L734 1183L687 1131Z" />
<glyph unicode="&#xe3;" glyph-name="atilde" horiz-adv-x="972" d="M697 0L685 118Q650 89 615 65T541 23T460 -4T370 -14Q234 -14 163 54T92 245Q92 317 120 377T207 480T361 547T587 571H673V688Q673 743 660 785T617 854T542 896T433 910Q394 910 357 905T285
891T219 873T163 853L142 929Q171 942 206 955T283 978T371 994T469 1000Q559 1000 620 978T718 918T772 826T789 709V0H697ZM673 486H571Q461 486 391 469T281 423T227 352T212 264Q212 222 224 188T259 129T318 91T400 78Q464 78 532 108T673 203V486ZM1039 1323Q1012
1282 990 1253T944 1205T893 1178T832 1169Q785 1169 751 1187T688 1226T635 1266T580 1284Q563 1284 549 1279T519 1261T485 1227T443 1175L387 1216Q413 1257 435 1286T481 1334T532 1361T593 1370Q640 1370 674 1352T737 1312T790 1273T845 1255Q863 1255 877
1260T906 1278T939 1312T982 1364L1039 1323Z" />
<glyph unicode="&#xe4;" glyph-name="adieresis" horiz-adv-x="972" d="M697 0L685 118Q650 89 615 65T541 23T460 -4T370 -14Q234 -14 163 54T92 245Q92 317 120 377T207 480T361 547T587 571H673V688Q673 743 660 785T617 854T542 896T433 910Q394 910 357 905T285
891T219 873T163 853L142 929Q171 942 206 955T283 978T371 994T469 1000Q559 1000 620 978T718 918T772 826T789 709V0H697ZM673 486H571Q461 486 391 469T281 423T227 352T212 264Q212 222 224 188T259 129T318 91T400 78Q464 78 532 108T673 203V486ZM731 1281Q731
1259 728 1246T718 1226T698 1216T661 1213Q639 1213 625 1215T603 1225T593 1246T590 1281Q590 1303 592 1316T603 1337T625 1347T661 1350Q684 1350 697 1348T718 1338T728 1317T731 1281ZM351 1281Q351 1259 349 1246T339 1226T319 1216T284 1213Q260 1213 246
1215T224 1225T214 1246T211 1281Q211 1303 213 1316T223 1337T245 1347T284 1350Q305 1350 318 1348T339 1338T348 1317T351 1281Z" />
<glyph unicode="&#xe5;" glyph-name="aring" horiz-adv-x="972" d="M697 0L685 118Q650 89 615 65T541 23T460 -4T370 -14Q234 -14 163 54T92 245Q92 317 120 377T207 480T361 547T587 571H673V688Q673 743 660 785T617 854T542 896T433 910Q394 910 357 905T285
891T219 873T163 853L142 929Q171 942 206 955T283 978T371 994T469 1000Q559 1000 620 978T718 918T772 826T789 709V0H697ZM673 486H571Q461 486 391 469T281 423T227 352T212 264Q212 222 224 188T259 129T318 91T400 78Q464 78 532 108T673 203V486ZM645 1269Q645
1228 632 1197T593 1143T532 1109T452 1097Q404 1097 370 1107T314 1138T282 1189T271 1259Q271 1297 285 1328T324 1381T385 1416T466 1429Q513 1429 547 1417T603 1384T635 1334T645 1269V1269ZM549 1261Q549 1285 544 1303T528 1332T500 1349T458 1355Q409 1355
388 1332T367 1261Q367 1238 372 1221T387 1193T415 1177T458 1171Q510 1171 529 1194T549 1261V1261Z" />
<glyph unicode="&#xe6;" glyph-name="ae" horiz-adv-x="1518" d="M1387 68Q1317 33 1232 10T1050 -14Q995 -14 944 -3T849 34T771 99T715 196Q681 140 642 100T560 35T469 -2T370 -14Q234 -14 163 54T92 245Q92 317 120 377T207 480T361 547T587 571H673V688Q673
743 660 785T617 854T542 896T433 910Q394 910 357 905T285 891T219 873T163 853L142 929Q171 942 207 955T284 978T373 994T472 1000Q536 1000 584 988T667 953T724 898T758 826Q782 869 812 901T880 956T960 989T1053 1001Q1109 1001 1157 988T1244 948T1312
879T1359 780T1385 650T1388 486H788V464Q788 361 807 288T864 169T955 102T1082 81Q1116 81 1150 85T1219 96T1288 115T1360 143L1387 68ZM1272 571V578Q1272 655 1258 717T1216 822T1144 889T1041 913Q979 913 934 886T857 813T809 704T788 571H1272ZM571 486Q461
486 391 469T281 423T227 352T212 264Q212 222 224 188T259 129T318 91T400 78Q487 78 555 130T673 274Q673 323 673 376T673 486H571Z" />
<glyph unicode="&#xe7;" glyph-name="ccedilla" horiz-adv-x="857" d="M790 132Q760 99 727 72T655 26T572 -3T477 -14Q391 -14 323 17T209 110T138 263T113 478Q113 600 140 697T217 862T335 965T486 1001Q574 1001 643 969T762 879L715 819Q661 866 610 887T498
908Q435 908 387 880T305 799T254 671T236 501Q236 398 252 320T301 189T384 108T502 81Q562 81 620 106T742 193L790 132ZM530 -87Q538 -172 501 -237T392 -353L330 -310Q357 -285 375 -262T405 -214T421 -158T424 -87H530Z" />
<glyph unicode="&#xe8;" glyph-name="egrave" horiz-adv-x="965" d="M235 486V464Q235 361 254 288T311 169T403 102T529 81Q563 81 597 85T666 96T736 115T807 143L834 68Q764 33 679 10T498 -14Q411 -14 340 12T219 95T141 242T113 463Q113 591 139 691T214
860T335 965T500 1001Q556 1001 604 988T691 948T759 879T806 780T832 650T835 486H235ZM719 571V578Q719 655 705 717T663 822T591 889T488 913Q426 913 381 886T304 813T256 704T236 571H719ZM517 1126L233 1368L324 1434L577 1169L517 1126Z" />
<glyph unicode="&#xe9;" glyph-name="eacute" horiz-adv-x="965" d="M235 486V464Q235 361 254 288T311 169T403 102T529 81Q563 81 597 85T666 96T736 115T807 143L834 68Q764 33 679 10T498 -14Q411 -14 340 12T219 95T141 242T113 463Q113 591 139 691T214
860T335 965T500 1001Q556 1001 604 988T691 948T759 879T806 780T832 650T835 486H235ZM719 571V578Q719 655 705 717T663 822T591 889T488 913Q426 913 381 886T304 813T256 704T236 571H719ZM483 1126L424 1169L676 1434L768 1368L483 1126Z" />
<glyph unicode="&#xea;" glyph-name="ecircumflex" horiz-adv-x="965" d="M235 486V464Q235 361 254 288T311 169T403 102T529 81Q563 81 597 85T666 96T736 115T807 143L834 68Q764 33 679 10T498 -14Q411 -14 340 12T219 95T141 242T113 463Q113 591 139 691T214
860T335 965T500 1001Q556 1001 604 988T691 948T759 879T806 780T832 650T835 486H235ZM719 571V578Q719 655 705 717T663 822T591 889T488 913Q426 913 381 886T304 813T256 704T236 571H719ZM709 1131L487 1306L268 1131L222 1183L492 1437L756 1183L709 1131Z"
/>
<glyph unicode="&#xeb;" glyph-name="edieresis" horiz-adv-x="965" d="M235 486V464Q235 361 254 288T311 169T403 102T529 81Q563 81 597 85T666 96T736 115T807 143L834 68Q764 33 679 10T498 -14Q411 -14 340 12T219 95T141 242T113 463Q113 591 139 691T214
860T335 965T500 1001Q556 1001 604 988T691 948T759 879T806 780T832 650T835 486H235ZM719 571V578Q719 655 705 717T663 822T591 889T488 913Q426 913 381 886T304 813T256 704T236 571H719ZM749 1281Q749 1259 746 1246T736 1226T716 1216T679 1213Q657 1213
643 1215T621 1225T611 1246T608 1281Q608 1303 610 1316T621 1337T643 1347T679 1350Q702 1350 715 1348T736 1338T746 1317T749 1281ZM369 1281Q369 1259 367 1246T357 1226T337 1216T302 1213Q278 1213 264 1215T242 1225T232 1246T229 1281Q229 1303 231 1316T241
1337T263 1347T302 1350Q323 1350 336 1348T357 1338T366 1317T369 1281Z" />
<glyph unicode="&#xec;" glyph-name="igrave" horiz-adv-x="485" d="M185 0V986H301V0H185ZM272 1126L-12 1368L79 1434L332 1169L272 1126Z" />
<glyph unicode="&#xed;" glyph-name="iacute" horiz-adv-x="485" d="M185 0V986H301V0H185ZM224 1126L165 1169L417 1434L509 1368L224 1126Z" />
<glyph unicode="&#xee;" glyph-name="icircumflex" horiz-adv-x="485" d="M185 0V986H301V0H185ZM465 1131L243 1306L24 1131L-22 1183L248 1437L512 1183L465 1131Z" />
<glyph unicode="&#xef;" glyph-name="idieresis" horiz-adv-x="485" d="M185 0V986H301V0H185ZM466 1281Q466 1259 464 1246T454 1226T433 1216T397 1213Q374 1213 361 1215T339 1225T329 1246T327 1281Q327 1303 329 1316T339 1337T360 1347T397 1350Q420 1350
433 1348T453 1338T463 1317T466 1281V1281ZM161 1281Q161 1259 159 1246T149 1226T129 1216T94 1213Q70 1213 56 1215T35 1225T25 1246T22 1281Q22 1303 24 1316T34 1337T56 1347T94 1350Q116 1350 129 1348T149 1338T158 1317T161 1281V1281Z" />
<glyph unicode="&#xf0;" glyph-name="eth" horiz-adv-x="1027" d="M663 1232Q717 1167 759 1095T831 944T876 777T891 593Q891 478 876 388T833 231T767 117T684 41T588 -1T486 -14Q385 -14 314 21T195 120T127 272T105 470Q105 601 136 698T226 861T364 958T540
990Q560 990 584 989T629 985T668 979T694 972Q683 995 670 1020T639 1073T601 1129T556 1187L348 1066L295 1134L499 1251Q467 1285 423 1326T317 1418H478Q493 1405 510 1390T544 1360T576 1328T606 1298L796 1408L849 1340L663 1232ZM765 566Q765 675 754 748T727
869Q712 875 689 881T638 891T580 898T523 901Q460 901 407 877T314 805T252 681T230 501Q230 389 248 310T300 179T385 104T505 80Q554 80 601 99T684 171T743 320T765 566V566Z" />
<glyph unicode="&#xf1;" glyph-name="ntilde" horiz-adv-x="1073" d="M776 0Q776 63 776 133T778 274T779 411T780 534Q780 634 767 704T727 819T660 884T569 905Q539 905 506 896T439 869T370 827T301 773V0H185V986H281L293 865Q328 896 365 921T443 963T524
991T609 1001Q674 1001 726 979T817 905T876 771T897 567Q897 515 896 446T894 302T892 148T891 0H776ZM873 1323Q846 1282 824 1253T778 1205T727 1178T666 1169Q619 1169 585 1187T522 1226T469 1266T414 1284Q397 1284 383 1279T353 1261T319 1227T277 1175L221
1216Q247 1257 269 1286T315 1334T366 1361T427 1370Q474 1370 508 1352T571 1312T624 1273T679 1255Q697 1255 711 1260T740 1278T773 1312T816 1364L873 1323Z" />
<glyph unicode="&#xf2;" glyph-name="ograve" horiz-adv-x="1029" d="M916 511Q916 420 903 347T863 215T800 113T715 42T612 0T493 -14Q405 -14 335 15T215 104T140 257T113 476Q113 565 127 639T166 772T229 874T314 945T417 987T536 1001Q624 1001 694 972T814
882T890 730T916 511V511ZM794 468Q794 585 777 668T725 805T638 884T513 909Q450 909 399 885T311 811T256 689T236 518Q236 401 252 318T304 181T391 103T516 78Q580 78 631 102T718 175T774 297T794 468V468ZM533 1126L249 1368L340 1434L593 1169L533 1126Z"
/>
<glyph unicode="&#xf3;" glyph-name="oacute" horiz-adv-x="1029" d="M916 511Q916 420 903 347T863 215T800 113T715 42T612 0T493 -14Q405 -14 335 15T215 104T140 257T113 476Q113 565 127 639T166 772T229 874T314 945T417 987T536 1001Q624 1001 694 972T814
882T890 730T916 511V511ZM794 468Q794 585 777 668T725 805T638 884T513 909Q450 909 399 885T311 811T256 689T236 518Q236 401 252 318T304 181T391 103T516 78Q580 78 631 102T718 175T774 297T794 468V468ZM509 1126L450 1169L702 1434L794 1368L509 1126Z"
/>
<glyph unicode="&#xf4;" glyph-name="ocircumflex" horiz-adv-x="1029" d="M916 511Q916 420 903 347T863 215T800 113T715 42T612 0T493 -14Q405 -14 335 15T215 104T140 257T113 476Q113 565 127 639T166 772T229 874T314 945T417 987T536 1001Q624 1001 694
972T814 882T890 730T916 511V511ZM794 468Q794 585 777 668T725 805T638 884T513 909Q450 909 399 885T311 811T256 689T236 518Q236 401 252 318T304 181T391 103T516 78Q580 78 631 102T718 175T774 297T794 468V468ZM742 1131L520 1306L301 1131L255 1183L525
1437L789 1183L742 1131Z" />
<glyph unicode="&#xf5;" glyph-name="otilde" horiz-adv-x="1029" d="M916 511Q916 420 903 347T863 215T800 113T715 42T612 0T493 -14Q405 -14 335 15T215 104T140 257T113 476Q113 565 127 639T166 772T229 874T314 945T417 987T536 1001Q624 1001 694 972T814
882T890 730T916 511V511ZM794 468Q794 585 777 668T725 805T638 884T513 909Q450 909 399 885T311 811T256 689T236 518Q236 401 252 318T304 181T391 103T516 78Q580 78 631 102T718 175T774 297T794 468V468ZM840 1323Q813 1282 791 1253T745 1205T694 1178T633
1169Q586 1169 552 1187T489 1226T436 1266T381 1284Q364 1284 350 1279T320 1261T286 1227T244 1175L188 1216Q214 1257 236 1286T282 1334T333 1361T394 1370Q441 1370 475 1352T538 1312T591 1273T646 1255Q664 1255 678 1260T707 1278T740 1312T783 1364L840
1323Z" />
<glyph unicode="&#xf6;" glyph-name="odieresis" horiz-adv-x="1029" d="M916 511Q916 420 903 347T863 215T800 113T715 42T612 0T493 -14Q405 -14 335 15T215 104T140 257T113 476Q113 565 127 639T166 772T229 874T314 945T417 987T536 1001Q624 1001 694 972T814
882T890 730T916 511V511ZM794 468Q794 585 777 668T725 805T638 884T513 909Q450 909 399 885T311 811T256 689T236 518Q236 401 252 318T304 181T391 103T516 78Q580 78 631 102T718 175T774 297T794 468V468ZM778 1281Q778 1259 775 1246T765 1226T745 1216T708
1213Q686 1213 672 1215T650 1225T640 1246T637 1281Q637 1303 639 1316T650 1337T672 1347T708 1350Q731 1350 744 1348T765 1338T775 1317T778 1281ZM398 1281Q398 1259 396 1246T386 1226T366 1216T331 1213Q307 1213 293 1215T271 1225T261 1246T258 1281Q258
1303 260 1316T270 1337T292 1347T331 1350Q352 1350 365 1348T386 1338T395 1317T398 1281Z" />
<glyph unicode="&#xf7;" glyph-name="divide" horiz-adv-x="1000" d="M579 212Q579 188 576 173T563 148T539 135T498 132Q473 132 458 135T434 147T421 171T418 209Q418 233 421 249T433 274T459 287T500 290Q524 290 539 287T563 275T575 251T579 212V212ZM88
548V639H908V548H88ZM579 974Q579 951 576 936T564 912T540 900T500 897Q475 897 459 900T434 912T421 937T418 977Q418 1001 421 1016T433 1039T458 1051T498 1055Q523 1055 538 1052T563 1039T575 1014T579 974V974Z" />
<glyph unicode="&#xf8;" glyph-name="oslash" horiz-adv-x="1029" d="M798 901Q855 842 885 746T916 511Q916 420 903 347T864 215T802 113T718 42T616 0T497 -14Q441 -14 392 -2T302 35L201 -141L127 -98L231 85Q175 144 144 239T113 476Q113 565 126 639T166
772T228 874T311 945T413 987T533 1001Q584 1001 635 990T727 951L828 1127L902 1084L798 901ZM353 122Q384 98 424 87T518 75Q582 75 634 99T722 172T778 296T798 468Q798 578 782 659T732 793L353 122ZM677 864Q644 888 602 900T511 912Q447 912 396 888T307
814T251 691T231 518Q231 407 247 327T297 192L677 864Z" />
<glyph unicode="&#xf9;" glyph-name="ugrave" horiz-adv-x="1073" d="M792 0L780 122Q745 91 708 66T630 23T549 -4T464 -14Q400 -14 347 8T257 81T198 215T177 419Q177 472 178 540T180 685T182 838T183 986H298Q298 923 297 853T295 712T294 575T293 453Q293
353 306 283T347 168T413 102T504 81Q534 81 567 90T634 117T703 159T773 213V986H889V0H792ZM561 1126L277 1368L368 1434L621 1169L561 1126Z" />
<glyph unicode="&#xfa;" glyph-name="uacute" horiz-adv-x="1073" d="M792 0L780 122Q745 91 708 66T630 23T549 -4T464 -14Q400 -14 347 8T257 81T198 215T177 419Q177 472 178 540T180 685T182 838T183 986H298Q298 923 297 853T295 712T294 575T293 453Q293
353 306 283T347 168T413 102T504 81Q534 81 567 90T634 117T703 159T773 213V986H889V0H792ZM535 1126L476 1169L728 1434L820 1368L535 1126Z" />
<glyph unicode="&#xfb;" glyph-name="ucircumflex" horiz-adv-x="1073" d="M792 0L780 122Q745 91 708 66T630 23T549 -4T464 -14Q400 -14 347 8T257 81T198 215T177 419Q177 472 178 540T180 685T182 838T183 986H298Q298 923 297 853T295 712T294 575T293 453Q293
353 306 283T347 168T413 102T504 81Q534 81 567 90T634 117T703 159T773 213V986H889V0H792ZM757 1131L535 1306L316 1131L270 1183L540 1437L804 1183L757 1131Z" />
<glyph unicode="&#xfc;" glyph-name="udieresis" horiz-adv-x="1073" d="M792 0L780 122Q745 91 708 66T630 23T549 -4T464 -14Q400 -14 347 8T257 81T198 215T177 419Q177 472 178 540T180 685T182 838T183 986H298Q298 923 297 853T295 712T294 575T293 453Q293
353 306 283T347 168T413 102T504 81Q534 81 567 90T634 117T703 159T773 213V986H889V0H792ZM800 1281Q800 1259 797 1246T787 1226T767 1216T730 1213Q708 1213 694 1215T672 1225T662 1246T659 1281Q659 1303 661 1316T672 1337T694 1347T730 1350Q753 1350
766 1348T787 1338T797 1317T800 1281ZM420 1281Q420 1259 418 1246T408 1226T388 1216T353 1213Q329 1213 315 1215T293 1225T283 1246T280 1281Q280 1303 282 1316T292 1337T314 1347T353 1350Q374 1350 387 1348T408 1338T417 1317T420 1281Z" />
<glyph unicode="&#xfd;" glyph-name="yacute" horiz-adv-x="906" d="M841 986Q790 766 740 592T639 283T541 47T445 -123T354 -237T268 -307T189 -342T116 -352Q88 -352 60 -346T6 -332V-258Q11 -259 20 -259T40 -260T62 -260T81 -261Q136 -261 182 -244T267 -191Q292
-168 309 -145T339 -98T356 -48T361 10Q361 51 346 119T290 297L44 986H172L384 384Q401 335 415 287T438 197T450 121T450 64Q487 147 524 255T597 484T662 734T715 986H841ZM462 1126L403 1169L655 1434L747 1368L462 1126Z" />
<glyph unicode="&#xfe;" glyph-name="thorn" horiz-adv-x="1024" d="M185 -346V1418H301V878Q335 906 369 928T438 967T510 992T584 1001Q655 1001 715 966T819 869T887 720T911 529Q911 385 874 283T774 114T624 17T441 -14Q428 -14 410 -14T373 -12T335 -10T301
-5V-346H185ZM301 102Q316 96 337 92T381 84T427 78T470 76Q538 76 596 102T697 180T764 312T789 499Q789 588 774 663T728 792T655 876T555 907Q508 907 440 876T301 778V102Z" />
<glyph unicode="&#xff;" glyph-name="ydieresis" horiz-adv-x="906" d="M841 986Q790 766 740 592T639 283T541 47T445 -123T354 -237T268 -307T189 -342T116 -352Q88 -352 60 -346T6 -332V-258Q11 -259 20 -259T40 -260T62 -260T81 -261Q136 -261 182 -244T267
-191Q292 -168 309 -145T339 -98T356 -48T361 10Q361 51 346 119T290 297L44 986H172L384 384Q401 335 415 287T438 197T450 121T450 64Q487 147 524 255T597 484T662 734T715 986H841ZM712 1281Q712 1259 709 1246T699 1226T679 1216T642 1213Q620 1213 606 1215T584
1225T574 1246T571 1281Q571 1303 573 1316T584 1337T606 1347T642 1350Q665 1350 678 1348T699 1338T709 1317T712 1281ZM332 1281Q332 1259 330 1246T320 1226T300 1216T265 1213Q241 1213 227 1215T205 1225T195 1246T192 1281Q192 1303 194 1316T204 1337T226
1347T265 1350Q286 1350 299 1348T320 1338T329 1317T332 1281Z" />
<glyph unicode="&#x100;" glyph-name="Amacron" horiz-adv-x="1034" d="M758 404Q700 604 634 810T498 1222Q440 1038 377 826T260 404H758V404ZM862 0Q846 70 826 148T784 306H236Q216 232 198 154T164 0H40Q80 156 126 326T223 669T329 1015T440 1350H582Q708
988 810 656T994 0H862ZM253 1510V1597H781V1510H253Z" />
<glyph unicode="&#x101;" glyph-name="amacron" horiz-adv-x="972" d="M697 0L685 118Q650 89 615 65T541 23T460 -4T370 -14Q234 -14 163 54T92 245Q92 317 120 377T207 480T361 547T587 571H673V688Q673 743 660 785T617 854T542 896T433 910Q394 910 357 905T285
891T219 873T163 853L142 929Q171 942 206 955T283 978T371 994T469 1000Q559 1000 620 978T718 918T772 826T789 709V0H697ZM673 486H571Q461 486 391 469T281 423T227 352T212 264Q212 222 224 188T259 129T318 91T400 78Q464 78 532 108T673 203V486ZM219 1219V1309H726V1219H219Z"
/>
<glyph unicode="&#x102;" glyph-name="Abreve" horiz-adv-x="1034" d="M758 404Q700 604 634 810T498 1222Q440 1038 377 826T260 404H758V404ZM862 0Q846 70 826 148T784 306H236Q216 232 198 154T164 0H40Q80 156 126 326T223 669T329 1015T440 1350H582Q708
988 810 656T994 0H862ZM767 1701Q767 1653 750 1608T701 1529T621 1473T512 1452Q448 1452 400 1472T320 1526T273 1606T257 1701H334Q334 1674 344 1646T376 1596T431 1559T513 1544Q558 1544 591 1558T646 1594T678 1644T689 1701H767Z" />
<glyph unicode="&#x103;" glyph-name="abreve" horiz-adv-x="972" d="M697 0L685 118Q650 89 615 65T541 23T460 -4T370 -14Q234 -14 163 54T92 245Q92 317 120 377T207 480T361 547T587 571H673V688Q673 743 660 785T617 854T542 896T433 910Q394 910 357 905T285
891T219 873T163 853L142 929Q171 942 206 955T283 978T371 994T469 1000Q559 1000 620 978T718 918T772 826T789 709V0H697ZM673 486H571Q461 486 391 469T281 423T227 352T212 264Q212 222 224 188T259 129T318 91T400 78Q464 78 532 108T673 203V486ZM720 1424Q720
1359 703 1308T654 1222T574 1169T465 1150Q399 1150 351 1169T271 1223T224 1309T209 1424H287Q287 1381 298 1349T331 1296T387 1263T465 1251Q508 1251 541 1261T597 1293T630 1347T642 1424H720Z" />
<glyph unicode="&#x104;" glyph-name="Aogonek" horiz-adv-x="1034" d="M1039 -306Q1025 -316 1007 -325T970 -340T930 -349T889 -353Q850 -353 822 -344T775 -317T747 -276T737 -221Q737 -190 746 -161T773 -103T813 -48T862 0Q853 35 844 72T825 148T805 226T783
307H236Q216 231 198 154T164 0H40Q79 156 125 325T223 668T330 1015T441 1350H583Q646 1168 702 996T809 656T907 326T994 0Q957 -23 929 -47T881 -97T853 -148T844 -198Q844 -231 860 -251T918 -272Q940 -272 966 -265T1016 -244L1039 -306ZM758 404Q728 504
698 605T635 809T568 1016T499 1223Q470 1130 439 1030T378 826T318 615T261 404H758Z" />
<glyph unicode="&#x105;" glyph-name="aogonek" horiz-adv-x="972" d="M855 -306Q840 -316 823 -325T785 -340T745 -349T704 -353Q666 -353 637 -344T590 -317T562 -276T552 -221Q552 -160 590 -99T695 12L685 118Q650 89 615 65T541 23T460 -4T370 -14Q234 -14
163 54T92 245Q92 317 120 377T207 480T361 547T587 571H673V688Q673 743 660 785T617 854T542 896T433 910Q394 910 357 905T285 891T219 873T163 853L142 929Q171 942 206 955T283 978T371 994T469 1000Q559 1000 620 978T718 918T772 826T789 709V0Q728 -52
694 -100T659 -198Q659 -231 675 -251T733 -272Q755 -272 782 -265T831 -244L855 -306ZM673 486H571Q460 486 390 469T280 422T226 351T212 264Q212 222 224 188T259 129T318 91T400 78Q464 78 532 108T673 203V486Z" />
<glyph unicode="&#x106;" glyph-name="Cacute" horiz-adv-x="1038" d="M960 183Q891 92 796 39T576 -14Q358 -14 239 158T120 656Q120 820 155 952T254 1176T406 1316T600 1364Q706 1364 790 1316T938 1142L872 1094Q822 1180 756 1222T604 1264Q512 1264 445
1215T335 1085T271 900T250 684Q251 384 341 236T605 88Q694 88 763 125T904 244L960 183V183ZM883 1704L941 1610L596 1463L559 1525L883 1704Z" />
<glyph unicode="&#x107;" glyph-name="cacute" horiz-adv-x="857" d="M790 132Q760 99 727 72T655 26T572 -3T477 -14Q391 -14 323 17T209 110T138 263T113 478Q113 600 140 697T217 862T335 965T486 1001Q574 1001 643 969T762 879L715 819Q661 866 610 887T498
908Q435 908 387 880T305 799T254 671T236 501Q236 398 252 320T301 189T384 108T502 81Q562 81 620 106T742 193L790 132ZM522 1126L463 1169L715 1434L807 1368L522 1126Z" />
<glyph unicode="&#x108;" glyph-name="Ccircumflex" horiz-adv-x="1038" d="M960 183Q891 92 796 39T576 -14Q358 -14 239 158T120 656Q120 820 155 952T254 1176T406 1316T600 1364Q706 1364 790 1316T938 1142L872 1094Q822 1180 756 1222T604 1264Q512 1264
445 1215T335 1085T271 900T250 684Q251 384 341 236T605 88Q694 88 763 125T904 244L960 183V183ZM869 1522L832 1463L586 1593L343 1463L307 1522L588 1704L869 1522Z" />
<glyph unicode="&#x109;" glyph-name="ccircumflex" horiz-adv-x="857" d="M790 132Q760 99 727 72T655 26T572 -3T477 -14Q391 -14 323 17T209 110T138 263T113 478Q113 600 140 697T217 862T335 965T486 1001Q574 1001 643 969T762 879L715 819Q661 866 610
887T498 908Q435 908 387 880T305 799T254 671T236 501Q236 398 252 320T301 189T384 108T502 81Q562 81 620 106T742 193L790 132ZM707 1131L485 1306L266 1131L220 1183L490 1437L754 1183L707 1131Z" />
<glyph unicode="&#x10a;" glyph-name="Cdotaccent" horiz-adv-x="1038" d="M960 183Q891 92 796 39T576 -14Q358 -14 239 158T120 656Q120 820 155 952T254 1176T406 1316T600 1364Q706 1364 790 1316T938 1142L872 1094Q822 1180 756 1222T604 1264Q512 1264
445 1215T335 1085T271 900T250 684Q251 384 341 236T605 88Q694 88 763 125T904 244L960 183V183ZM660 1555Q660 1535 658 1522T647 1501T625 1491T587 1488Q562 1488 547 1490T524 1500T513 1521T510 1555Q510 1577 513 1590T524 1612T548 1622T587 1625Q611
1625 625 1623T647 1613T657 1592T660 1555V1555Z" />
<glyph unicode="&#x10b;" glyph-name="cdotaccent" horiz-adv-x="857" d="M790 132Q760 99 727 72T655 26T572 -3T477 -14Q391 -14 323 17T209 110T138 263T113 478Q113 600 140 697T217 862T335 965T486 1001Q574 1001 643 969T762 879L715 819Q661 866 610 887T498
908Q435 908 387 880T305 799T254 671T236 501Q236 398 252 320T301 189T384 108T502 81Q562 81 620 106T742 193L790 132ZM550 1282Q550 1260 547 1246T537 1224T515 1213T475 1210Q450 1210 435 1213T412 1224T401 1246T398 1282Q398 1305 400 1319T411 1341T435
1351T475 1354Q500 1354 514 1352T537 1341T547 1319T550 1282V1282Z" />
<glyph unicode="&#x10c;" glyph-name="Ccaron" horiz-adv-x="1038" d="M960 183Q891 92 796 39T576 -14Q358 -14 239 158T120 656Q120 820 155 952T254 1176T406 1316T600 1364Q706 1364 790 1316T938 1142L872 1094Q822 1180 756 1222T604 1264Q512 1264 445
1215T335 1085T271 900T250 684Q251 384 341 236T605 88Q694 88 763 125T904 244L960 183V183ZM334 1644L370 1704L617 1573L859 1704L896 1645L614 1463L334 1644Z" />
<glyph unicode="&#x10d;" glyph-name="ccaron" horiz-adv-x="857" d="M790 132Q760 99 727 72T655 26T572 -3T477 -14Q391 -14 323 17T209 110T138 263T113 478Q113 600 140 697T217 862T335 965T486 1001Q574 1001 643 969T762 879L715 819Q661 866 610 887T498
908Q435 908 387 880T305 799T254 671T236 501Q236 398 252 320T301 189T384 108T502 81Q562 81 620 106T742 193L790 132ZM496 1130L232 1384L279 1436L501 1261L719 1436L766 1385L496 1130Z" />
<glyph unicode="&#x10e;" glyph-name="Dcaron" horiz-adv-x="1147" d="M896 686Q896 800 875 903T802 1084T664 1208T448 1254Q416 1254 384 1254T320 1252V102Q392 96 466 96Q676 96 786 239T896 686ZM1026 706Q1026 542 990 411T879 188T689 47T418 -2Q360 -2
300 -1T198 0V1350L476 1352Q628 1352 733 1298T903 1154T997 948T1026 706ZM258 1644L294 1704L541 1573L783 1704L820 1645L538 1463L258 1644Z" />
<glyph unicode="&#x10f;" glyph-name="dcaron" horiz-adv-x="1051" d="M745 0L731 115Q697 87 662 64T590 23T515 -4T436 -14Q365 -14 306 20T204 116T137 264T113 457Q113 605 151 708T254 877T401 971T574 1001Q611 1001 652 998T724 991V1418H840V0H745ZM724
882Q680 896 635 903T549 910Q482 910 425 884T325 806T259 674T235 485Q235 394 251 319T297 191T371 109T469 80Q517 80 584 111T724 205V882ZM1007 1137L938 1151L1008 1493L1114 1471L1007 1137Z" />
<glyph unicode="&#x110;" glyph-name="Dcroat" horiz-adv-x="1167" d="M218 1350Q287 1350 352 1351T495 1352Q597 1352 677 1328T819 1259T923 1155T993 1022T1033 870T1046 706Q1046 542 1010 411T898 188T709 47T438 -3Q409 -3 379 -3T321 -2T266 -1T218 0V657H79V754H218V1350ZM340
754H604V657H340V101Q376 98 413 97T485 96Q589 96 669 131T804 239T887 424T916 687Q916 763 907 835T877 970T822 1085T738 1175T621 1234T468 1255Q452 1255 436 1255T404 1255T372 1255T340 1253V754Z" />
<glyph unicode="&#x111;" glyph-name="dcroat" horiz-adv-x="1024" d="M840 0H745L731 115Q697 87 662 64T590 23T515 -4T436 -14Q365 -14 306 20T204 116T137 264T113 457Q113 605 151 708T254 877T401 971T574 1001Q611 1001 652 998T724 991V1162H485V1240H724V1418H840V1240H1014V1162H840V0ZM724
882Q680 896 635 903T549 910Q482 910 425 884T325 806T259 674T235 485Q235 394 251 319T297 191T371 109T469 80Q517 80 584 111T724 205V882Z" />
<glyph unicode="&#x112;" glyph-name="Emacron" horiz-adv-x="942" d="M198 0V1350H814V1250H320V754H726V656H320V100H822V0H198ZM237 1510V1597H765V1510H237Z" />
<glyph unicode="&#x113;" glyph-name="emacron" horiz-adv-x="965" d="M235 486V464Q235 361 254 288T311 169T403 102T529 81Q563 81 597 85T666 96T736 115T807 143L834 68Q764 33 679 10T498 -14Q411 -14 340 12T219 95T141 242T113 463Q113 591 139 691T214
860T335 965T500 1001Q556 1001 604 988T691 948T759 879T806 780T832 650T835 486H235ZM719 571V578Q719 655 705 717T663 822T591 889T488 913Q426 913 381 886T304 813T256 704T236 571H719ZM230 1219V1309H737V1219H230Z" />
<glyph unicode="&#x114;" glyph-name="Ebreve" horiz-adv-x="942" d="M198 0V1350H814V1250H320V754H726V656H320V100H822V0H198ZM761 1701Q761 1653 744 1608T695 1529T615 1473T506 1452Q442 1452 394 1472T314 1526T267 1606T251 1701H328Q328 1674 338 1646T370
1596T425 1559T507 1544Q552 1544 585 1558T640 1594T672 1644T683 1701H761Z" />
<glyph unicode="&#x115;" glyph-name="ebreve" horiz-adv-x="965" d="M235 486V464Q235 361 254 288T311 169T403 102T529 81Q563 81 597 85T666 96T736 115T807 143L834 68Q764 33 679 10T498 -14Q411 -14 340 12T219 95T141 242T113 463Q113 591 139 691T214
860T335 965T500 1001Q556 1001 604 988T691 948T759 879T806 780T832 650T835 486H235ZM719 571V578Q719 655 705 717T663 822T591 889T488 913Q426 913 381 886T304 813T256 704T236 571H719ZM743 1424Q743 1359 726 1308T677 1222T597 1169T488 1150Q422 1150
374 1169T294 1223T247 1309T232 1424H310Q310 1381 321 1349T354 1296T410 1263T488 1251Q531 1251 564 1261T620 1293T653 1347T665 1424H743Z" />
<glyph unicode="&#x116;" glyph-name="Edotaccent" horiz-adv-x="942" d="M198 0V1350H814V1250H320V754H726V656H320V100H822V0H198ZM588 1554Q588 1534 586 1521T575 1500T553 1490T515 1487Q490 1487 475 1489T452 1499T441 1520T438 1554Q438 1576 441 1589T452
1611T476 1621T515 1624Q539 1624 553 1622T575 1612T585 1591T588 1554V1554Z" />
<glyph unicode="&#x117;" glyph-name="edotaccent" horiz-adv-x="965" d="M235 486V464Q235 361 254 288T311 169T403 102T529 81Q563 81 597 85T666 96T736 115T807 143L834 68Q764 33 679 10T498 -14Q411 -14 340 12T219 95T141 242T113 463Q113 591 139 691T214
860T335 965T500 1001Q556 1001 604 988T691 948T759 879T806 780T832 650T835 486H235ZM719 571V578Q719 655 705 717T663 822T591 889T488 913Q426 913 381 886T304 813T256 704T236 571H719ZM564 1282Q564 1260 561 1246T551 1224T529 1213T489 1210Q464 1210
449 1213T426 1224T415 1246T412 1282Q412 1305 414 1319T425 1341T449 1351T489 1354Q514 1354 528 1352T551 1341T561 1319T564 1282V1282Z" />
<glyph unicode="&#x118;" glyph-name="Eogonek" horiz-adv-x="942" d="M822 0Q790 -26 765 -51T723 -100T698 -149T689 -198Q689 -231 705 -251T763 -272Q785 -272 811 -265T861 -244L884 -306Q870 -316 853 -325T815 -340T775 -349T734 -353Q695 -353 667 -344T620
-317T592 -276T582 -221Q582 -190 591 -160T618 -102T659 -47T708 0H198V1350H814V1250H320V754H726V657H320V101H822V0Z" />
<glyph unicode="&#x119;" glyph-name="eogonek" horiz-adv-x="965" d="M834 68Q783 26 746 -11T685 -81T650 -143T639 -198Q639 -231 655 -251T713 -272Q735 -272 761 -265T811 -244L834 -306Q820 -316 802 -325T765 -340T725 -349T684 -353Q645 -353 617 -344T570
-317T542 -276T532 -221Q532 -160 568 -103T669 10Q626 -3 583 -8T498 -14Q411 -14 340 12T219 95T141 242T113 463Q113 591 139 691T214 860T335 965T500 1001Q556 1001 604 988T691 948T759 879T806 780T832 650T835 486H235V464Q235 361 254 288T311 169T403
102T529 81Q563 81 597 85T666 96T736 115T807 143L834 68ZM719 571V578Q719 655 705 717T663 822T591 889T488 913Q425 913 379 885T303 810T256 701T236 571H719Z" />
<glyph unicode="&#x11a;" glyph-name="Ecaron" horiz-adv-x="942" d="M198 0V1350H814V1250H320V754H726V656H320V100H822V0H198ZM226 1644L262 1704L509 1573L751 1704L788 1645L506 1463L226 1644Z" />
<glyph unicode="&#x11b;" glyph-name="ecaron" horiz-adv-x="965" d="M235 486V464Q235 361 254 288T311 169T403 102T529 81Q563 81 597 85T666 96T736 115T807 143L834 68Q764 33 679 10T498 -14Q411 -14 340 12T219 95T141 242T113 463Q113 591 139 691T214
860T335 965T500 1001Q556 1001 604 988T691 948T759 879T806 780T832 650T835 486H235ZM719 571V578Q719 655 705 717T663 822T591 889T488 913Q426 913 381 886T304 813T256 704T236 571H719ZM489 1130L225 1384L272 1436L494 1261L712 1436L759 1385L489 1130Z"
/>
<glyph unicode="&#x11c;" glyph-name="Gcircumflex" horiz-adv-x="1141" d="M962 136Q890 68 796 27T580 -14Q476 -14 392 25T247 148T153 360T120 664Q120 829 158 960T265 1182T421 1318T606 1364Q704 1364 790 1323T944 1216L890 1154Q832 1202 762 1233T618
1264Q451 1264 351 1112T250 688Q250 532 275 418T347 231T459 123T606 88Q684 88 744 110T840 164V620H630V716H962V136ZM887 1522L850 1463L604 1593L361 1463L325 1522L606 1704L887 1522Z" />
<glyph unicode="&#x11d;" glyph-name="gcircumflex" horiz-adv-x="1024" d="M840 29Q840 -49 829 -108T795 -209T742 -279T670 -323T582 -346T479 -353Q444 -353 407 -350T332 -339T257 -323T187 -303L201 -230Q277 -244 345 -251T469 -259Q534 -259 582 -247T661
-205T708 -129T724 -10V147Q659 98 586 63T434 28Q365 28 307 62T205 157T138 301T113 484Q113 619 151 717T254 878T401 971T572 1001Q607 1001 643 998T713 991T780 982T840 971V29ZM724 881Q703 888 680 893T633 902T586 908T545 910Q479 910 422 884T324 807T259
683T235 518Q235 430 250 357T295 231T369 149T471 119Q500 119 532 129T598 157T664 197T724 245V881ZM732 1131L510 1306L291 1131L245 1183L515 1437L779 1183L732 1131Z" />
<glyph unicode="&#x11e;" glyph-name="Gbreve" horiz-adv-x="1141" d="M962 136Q890 68 796 27T580 -14Q476 -14 392 25T247 148T153 360T120 664Q120 829 158 960T265 1182T421 1318T606 1364Q704 1364 790 1323T944 1216L890 1154Q832 1202 762 1233T618 1264Q451
1264 351 1112T250 688Q250 532 275 418T347 231T459 123T606 88Q684 88 744 110T840 164V620H630V716H962V136ZM846 1701Q846 1653 829 1608T780 1529T700 1473T591 1452Q527 1452 479 1472T399 1526T352 1606T336 1701H413Q413 1674 423 1646T455 1596T510 1559T592
1544Q637 1544 670 1558T725 1594T757 1644T768 1701H846Z" />
<glyph unicode="&#x11f;" glyph-name="gbreve" horiz-adv-x="1024" d="M840 29Q840 -49 829 -108T795 -209T742 -279T670 -323T582 -346T479 -353Q444 -353 407 -350T332 -339T257 -323T187 -303L201 -230Q277 -244 345 -251T469 -259Q534 -259 582 -247T661 -205T708
-129T724 -10V147Q659 98 586 63T434 28Q365 28 307 62T205 157T138 301T113 484Q113 619 151 717T254 878T401 971T572 1001Q607 1001 643 998T713 991T780 982T840 971V29ZM724 881Q703 888 680 893T633 902T586 908T545 910Q479 910 422 884T324 807T259 683T235
518Q235 430 250 357T295 231T369 149T471 119Q500 119 532 129T598 157T664 197T724 245V881ZM782 1424Q782 1359 765 1308T716 1222T636 1169T527 1150Q461 1150 413 1169T333 1223T286 1309T271 1424H349Q349 1381 360 1349T393 1296T449 1263T527 1251Q570
1251 603 1261T659 1293T692 1347T704 1424H782Z" />
<glyph unicode="&#x120;" glyph-name="Gdotaccent" horiz-adv-x="1141" d="M962 136Q890 68 796 27T580 -14Q476 -14 392 25T247 148T153 360T120 664Q120 829 158 960T265 1182T421 1318T606 1364Q704 1364 790 1323T944 1216L890 1154Q832 1202 762 1233T618
1264Q451 1264 351 1112T250 688Q250 532 275 418T347 231T459 123T606 88Q684 88 744 110T840 164V620H630V716H962V136ZM682 1555Q682 1535 680 1522T669 1501T647 1491T609 1488Q584 1488 569 1490T546 1500T535 1521T532 1555Q532 1577 535 1590T546 1612T570
1622T609 1625Q633 1625 647 1623T669 1613T679 1592T682 1555V1555Z" />
<glyph unicode="&#x121;" glyph-name="gdotaccent" horiz-adv-x="1024" d="M840 29Q840 -49 829 -108T795 -209T742 -279T670 -323T582 -346T479 -353Q444 -353 407 -350T332 -339T257 -323T187 -303L201 -230Q277 -244 345 -251T469 -259Q534 -259 582 -247T661
-205T708 -129T724 -10V147Q659 98 586 63T434 28Q365 28 307 62T205 157T138 301T113 484Q113 619 151 717T254 878T401 971T572 1001Q607 1001 643 998T713 991T780 982T840 971V29ZM724 881Q703 888 680 893T633 902T586 908T545 910Q479 910 422 884T324 807T259
683T235 518Q235 430 250 357T295 231T369 149T471 119Q500 119 532 129T598 157T664 197T724 245V881ZM583 1282Q583 1260 580 1246T570 1224T548 1213T508 1210Q483 1210 468 1213T445 1224T434 1246T431 1282Q431 1305 433 1319T444 1341T468 1351T508 1354Q533
1354 547 1352T570 1341T580 1319T583 1282V1282Z" />
<glyph unicode="&#x122;" glyph-name="Gcommaaccent" horiz-adv-x="1141" d="M962 136Q890 68 796 27T580 -14Q476 -14 392 25T247 148T153 360T120 664Q120 829 158 960T265 1182T421 1318T606 1364Q704 1364 790 1323T944 1216L890 1154Q832 1202 762 1233T618
1264Q451 1264 351 1112T250 688Q250 532 275 418T347 231T459 123T606 88Q684 88 744 110T840 164V620H630V716H962V136ZM582 -81Q599 -81 611 -84T631 -95T642 -115T646 -145Q646 -185 635 -215T601 -271T546 -315T472 -352L447 -305Q494 -276 517 -252T540 -204Q540
-193 537 -188T529 -178T521 -164T518 -139Q518 -125 522 -114T533 -96T553 -85T582 -81V-81Z" />
<glyph unicode="&#x123;" glyph-name="gcommaaccent" horiz-adv-x="1024" d="M840 29Q840 -49 829 -108T795 -209T742 -279T670 -323T582 -346T479 -353Q444 -353 407 -350T332 -339T257 -323T187 -303L201 -230Q277 -244 345 -251T469 -259Q534 -259 582 -247T661
-205T708 -129T724 -10V147Q659 98 586 63T434 28Q365 28 307 62T205 157T138 301T113 484Q113 619 151 717T254 878T401 971T572 1001Q607 1001 643 998T713 991T780 982T840 971V29ZM724 881Q703 888 680 893T633 902T586 908T545 910Q479 910 422 884T324 807T259
683T235 518Q235 430 250 357T295 231T369 149T471 119Q500 119 532 129T598 157T664 197T724 245V881ZM747 1376Q713 1363 690 1348T653 1316T631 1283T624 1255Q624 1245 627 1240T635 1229T642 1215T646 1190Q646 1175 642 1165T631 1147T611 1135T582 1131Q565
1131 553 1135T534 1146T522 1166T518 1196Q518 1235 530 1271T568 1336T633 1389T727 1428L747 1376Z" />
<glyph unicode="&#x124;" glyph-name="Hcircumflex" horiz-adv-x="1316" d="M996 0V658H320V0H198V1350H320V764H996V1350H1118V0H996ZM939 1522L902 1463L656 1593L413 1463L377 1522L658 1704L939 1522Z" />
<glyph unicode="&#x125;" glyph-name="hcircumflex" horiz-adv-x="1073" d="M776 0Q776 68 776 141T778 285T779 419T780 530Q780 632 766 703T725 819T659 884T567 905Q541 905 509 897T443 872T373 830T301 773V0H185V1418H301V871Q332 898 367 921T441 962T521
990T608 1001Q672 1001 725 979T816 905T876 771T897 567Q897 521 896 455T894 313T892 156T891 0H776ZM528 1588L491 1529L245 1659L2 1529L-34 1588L247 1770L528 1588Z" />
<glyph unicode="&#x126;" glyph-name="Hbar" horiz-adv-x="1356" d="M1016 0V611H340V0H218V974H43V1068H218V1350H340V1068H1016V1350H1138V1068H1312V974H1138V0H1016ZM1016 715V974H340V715H1016Z" />
<glyph unicode="&#x127;" glyph-name="hbar" horiz-adv-x="1073" d="M776 0Q776 68 776 141T778 285T779 418T780 529Q780 631 766 702T725 818T659 883T567 904Q541 904 509 896T443 870T373 829T301 772V0H185V1169H13V1255H185V1422H301V1255H598V1169H301V870Q332
897 367 920T441 961T521 989T608 999Q672 999 725 977T816 904T876 770T897 566Q897 520 896 454T894 312T892 156T891 0H776Z" />
<glyph unicode="&#x128;" glyph-name="Itilde" horiz-adv-x="518" d="M198 0V1350H320V0H198ZM588 1628Q562 1586 539 1557T492 1509T441 1483T380 1474Q332 1474 298 1491T235 1531T181 1571T126 1589Q109 1589 95 1584T65 1565T31 1531T-11 1479L-68 1520Q-42
1562 -20 1591T27 1638T78 1665T140 1674Q187 1674 221 1656T284 1616T338 1577T393 1559Q411 1559 425 1564T455 1583T488 1617T530 1669L588 1628Z" />
<glyph unicode="&#x129;" glyph-name="itilde" horiz-adv-x="485" d="M185 0V986H301V0H185ZM570 1323Q543 1282 521 1253T475 1205T424 1178T363 1169Q316 1169 282 1187T219 1226T166 1266T111 1284Q94 1284 80 1279T50 1261T16 1227T-26 1175L-82 1216Q-56
1257 -34 1286T12 1334T63 1361T124 1370Q171 1370 205 1352T268 1312T321 1273T376 1255Q394 1255 408 1260T437 1278T470 1312T513 1364L570 1323Z" />
<glyph unicode="&#x12a;" glyph-name="Imacron" horiz-adv-x="518" d="M198 0V1350H320V0H198ZM-4 1510V1597H524V1510H-4Z" />
<glyph unicode="&#x12b;" glyph-name="imacron" horiz-adv-x="485" d="M185 0V986H301V0H185ZM-8 1219V1309H499V1219H-8Z" />
<glyph unicode="&#x12c;" glyph-name="Ibreve" horiz-adv-x="518" d="M198 0V1350H320V0H198ZM516 1701Q516 1653 499 1608T450 1529T370 1473T261 1452Q197 1452 149 1472T69 1526T22 1606T6 1701H83Q83 1674 93 1646T125 1596T180 1559T262 1544Q307 1544 340
1558T395 1594T427 1644T438 1701H516Z" />
<glyph unicode="&#x12d;" glyph-name="ibreve" horiz-adv-x="485" d="M185 0V986H301V0H185ZM500 1424Q500 1359 483 1308T434 1222T354 1169T245 1150Q179 1150 131 1169T51 1223T4 1309T-11 1424H67Q67 1381 78 1349T111 1296T167 1263T245 1251Q288 1251 321
1261T377 1293T410 1347T422 1424H500Z" />
<glyph unicode="&#x12e;" glyph-name="Iogonek" horiz-adv-x="518" d="M198 1350H320V0Q292 -23 269 -47T229 -98T202 -149T192 -198Q192 -231 208 -251T266 -272Q289 -272 315 -265T365 -244L388 -306Q374 -316 356 -325T319 -340T278 -349T238 -353Q199 -353
170 -344T123 -317T95 -276T86 -221Q86 -164 117 -109T198 0V1350Z" />
<glyph unicode="&#x12f;" glyph-name="iogonek" horiz-adv-x="485" d="M319 1280Q319 1258 317 1244T306 1222T284 1210T244 1207Q219 1207 204 1210T181 1221T170 1243T167 1280Q167 1303 169 1317T180 1340T204 1350T244 1353Q269 1353 283 1351T306 1340T316
1318T319 1280V1280ZM185 986H301V0Q274 -23 252 -47T213 -98T188 -149T178 -198Q178 -231 194 -251T253 -272Q275 -272 301 -265T351 -244L374 -306Q360 -316 342 -325T305 -340T265 -349T224 -353Q185 -353 157 -344T109 -317T81 -276T72 -221Q72 -164 103 -109T185
0V986Z" />
<glyph unicode="&#x130;" glyph-name="Idotaccent" horiz-adv-x="518" d="M198 0V1350H320V0H198ZM333 1554Q333 1534 331 1521T320 1500T298 1490T260 1487Q235 1487 220 1489T197 1499T186 1520T183 1554Q183 1576 186 1589T197 1611T221 1621T260 1624Q284
1624 298 1622T320 1612T330 1591T333 1554V1554Z" />
<glyph unicode="&#x131;" glyph-name="dotlessi" horiz-adv-x="485" d="M185 0V986H301V0H185Z" />
<glyph unicode="&#x132;" glyph-name="IJ" horiz-adv-x="1053" d="M198 0V1350H320V0H198ZM856 136Q856 50 850 -15T825 -138T775 -247T690 -346L628 -294Q689 -221 711 -123T734 130V1350H856V136Z" />
<glyph unicode="&#x133;" glyph-name="ij" horiz-adv-x="971" d="M319 1280Q319 1258 316 1244T306 1221T284 1210T244 1207Q219 1207 204 1210T181 1221T170 1243T167 1280Q167 1303 169 1317T180 1340T204 1350T244 1353Q269 1353 283 1351T306 1340T316 1318T319
1280V1280ZM185 0V986H301V0H185ZM786 73Q786 1 777 -58T745 -168T688 -264T600 -351L535 -308Q594 -248 632 -162T670 34V944V986H786V73ZM804 1280Q804 1258 801 1244T791 1221T769 1210T729 1207Q704 1207 689 1210T666 1221T655 1243T652 1280Q652 1303 654
1317T665 1340T689 1350T729 1353Q754 1353 768 1351T791 1340T801 1318T804 1280V1280Z" />
<glyph unicode="&#x134;" glyph-name="Jcircumflex" horiz-adv-x="535" d="M338 136Q338 50 332 -15T307 -138T257 -247T172 -346L110 -294Q171 -221 193 -123T216 130V1350H338V136ZM559 1522L522 1463L276 1593L33 1463L-3 1522L278 1704L559 1522Z" />
<glyph unicode="&#x135;" glyph-name="jcircumflex" horiz-adv-x="485" d="M301 73Q301 1 292 -58T260 -168T203 -264T115 -351L50 -308Q109 -248 147 -162T185 34V986H301V73ZM464 1131L242 1306L23 1131L-23 1183L247 1437L511 1183L464 1131Z" />
<glyph unicode="&#x136;" glyph-name="Kcommaaccent" horiz-adv-x="1023" d="M814 0L323 682H320V0H198V1350H320V737H323L787 1350H930L434 732L967 0H814ZM546 -81Q563 -81 575 -84T595 -95T606 -115T610 -145Q610 -185 599 -215T565 -271T510 -315T436 -352L411
-305Q458 -276 481 -252T504 -204Q504 -193 501 -188T493 -178T485 -164T482 -139Q482 -125 486 -114T497 -96T517 -85T546 -81V-81Z" />
<glyph unicode="&#x137;" glyph-name="kcommaaccent" horiz-adv-x="885" d="M704 0L304 528H301V0H185V1418H301V571H304L653 986H799L412 564L848 0H704ZM486 -81Q503 -81 515 -84T535 -95T546 -115T550 -145Q550 -185 539 -215T505 -271T450 -315T376 -352L351
-305Q398 -276 421 -252T444 -204Q444 -193 441 -188T433 -178T425 -164T422 -139Q422 -125 426 -114T437 -96T457 -85T486 -81V-81Z" />
<glyph unicode="&#x138;" glyph-name="kgreenlandic" horiz-adv-x="885" d="M704 0L304 508H301V0H185V986H301V551H304L653 986H799L412 544L848 0H704Z" />
<glyph unicode="&#x139;" glyph-name="Lacute" horiz-adv-x="842" d="M198 0V1350H320V100H804V0H198ZM570 1704L628 1610L283 1463L246 1525L570 1704Z" />
<glyph unicode="&#x13a;" glyph-name="lacute" horiz-adv-x="525" d="M453 4Q442 1 427 -2T397 -7T366 -10T339 -11Q298 -11 269 -4T221 24T194 82T185 181V1418H301V226Q301 179 304 150T315 105T340 84T381 78Q398 78 415 78T446 81L453 4ZM544 1718L602 1624L257
1477L220 1539L544 1718Z" />
<glyph unicode="&#x13b;" glyph-name="Lcommaaccent" horiz-adv-x="842" d="M198 0V1350H320V100H804V0H198ZM492 -81Q509 -81 521 -84T541 -95T552 -115T556 -145Q556 -185 545 -215T511 -271T456 -315T382 -352L357 -305Q404 -276 427 -252T450 -204Q450 -193
447 -188T439 -178T431 -164T428 -139Q428 -125 432 -114T443 -96T463 -85T492 -81V-81Z" />
<glyph unicode="&#x13c;" glyph-name="lcommaaccent" horiz-adv-x="525" d="M453 4Q442 1 427 -2T397 -7T366 -10T339 -11Q298 -11 269 -4T221 24T194 82T185 181V1418H301V226Q301 179 304 150T315 105T340 84T381 78Q398 78 415 78T446 81L453 4ZM341 -81Q358
-81 370 -84T390 -95T401 -115T405 -145Q405 -185 394 -215T360 -271T305 -315T231 -352L206 -305Q253 -276 276 -252T299 -204Q299 -193 296 -188T288 -178T280 -164T277 -139Q277 -125 281 -114T292 -96T312 -85T341 -81V-81Z" />
<glyph unicode="&#x13d;" glyph-name="Lcaron" horiz-adv-x="842" d="M198 0V1350H320V100H804V0H198ZM585 1137L516 1151L586 1493L692 1471L585 1137Z" />
<glyph unicode="&#x13e;" glyph-name="lcaron" horiz-adv-x="549" d="M453 4Q442 1 427 -2T397 -7T366 -10T339 -11Q298 -11 269 -4T221 24T194 82T185 181V1418H301V226Q301 179 304 150T315 105T340 84T381 78Q398 78 415 78T446 81L453 4ZM468 1137L399 1151L469
1493L575 1471L468 1137Z" />
<glyph unicode="&#x13f;" glyph-name="Ldot" horiz-adv-x="1055" d="M198 0V1350H320V100H804V0H198ZM941 673Q941 648 938 632T926 606T900 593T859 589Q833 589 817 592T792 605T779 629T776 670Q776 695 779 711T791 737T818 750T860 754Q885 754 900 751T925
738T938 714T941 673V673Z" />
<glyph unicode="&#x140;" glyph-name="ldot" horiz-adv-x="922" d="M453 4Q442 1 427 -2T397 -7T366 -10T339 -11Q298 -11 269 -4T221 24T194 82T185 181V1418H301V226Q301 179 304 150T315 105T340 84T381 78Q398 78 415 78T446 81L453 4ZM786 593Q786 568 783
552T771 526T745 513T704 509Q678 509 662 512T637 525T624 549T621 590Q621 615 624 631T636 657T663 670T705 674Q730 674 745 671T770 658T783 634T786 593V593Z" />
<glyph unicode="&#x141;" glyph-name="Lslash" horiz-adv-x="861" d="M603 1038V936L339 791V101H822V0H217V726L49 635V737L217 828V1350H339V892L603 1038Z" />
<glyph unicode="&#x142;" glyph-name="lslash" horiz-adv-x="547" d="M472 4Q460 1 446 -2T416 -7T385 -10T358 -11Q317 -11 288 -4T240 24T212 82T203 181V686L46 599V700L203 786V1418H320V850L477 936V836L320 749V226Q320 179 323 150T334 105T358 84T400
78Q416 78 434 78T465 81L472 4Z" />
<glyph unicode="&#x143;" glyph-name="Nacute" horiz-adv-x="1303" d="M996 0L494 864Q456 930 421 990T360 1097Q329 1152 302 1200H300Q301 1154 303 1103Q304 1059 305 1004T306 890V0H198V1350H354L802 580Q839 517 874 456T938 344Q971 286 1000 232H1002Q1000
281 999 335Q997 381 997 438T996 554V1350H1106V0H996ZM931 1704L989 1610L644 1463L607 1525L931 1704Z" />
<glyph unicode="&#x144;" glyph-name="nacute" horiz-adv-x="1073" d="M776 0Q776 63 776 133T778 274T779 411T780 534Q780 634 767 704T727 819T660 884T569 905Q539 905 506 896T439 869T370 827T301 773V0H185V986H281L293 865Q328 896 365 921T443 963T524
991T609 1001Q674 1001 726 979T817 905T876 771T897 567Q897 515 896 446T894 302T892 148T891 0H776ZM536 1126L477 1169L729 1434L821 1368L536 1126Z" />
<glyph unicode="&#x145;" glyph-name="Ncommaaccent" horiz-adv-x="1303" d="M996 0L494 864Q456 930 421 990T360 1097Q329 1152 302 1200H300Q301 1154 303 1103Q304 1059 305 1004T306 890V0H198V1350H354L802 580Q839 517 874 456T938 344Q971 286 1000 232H1002Q1000
281 999 335Q997 381 997 438T996 554V1350H1106V0H996ZM634 -81Q651 -81 663 -84T683 -95T694 -115T698 -145Q698 -185 687 -215T653 -271T598 -315T524 -352L499 -305Q546 -276 569 -252T592 -204Q592 -193 589 -188T581 -178T573 -164T570 -139Q570 -125 574
-114T585 -96T605 -85T634 -81V-81Z" />
<glyph unicode="&#x146;" glyph-name="ncommaaccent" horiz-adv-x="1073" d="M776 0Q776 63 776 133T778 274T779 411T780 534Q780 634 767 704T727 819T660 884T569 905Q539 905 506 896T439 869T370 827T301 773V0H185V986H281L293 865Q328 896 365 921T443
963T524 991T609 1001Q674 1001 726 979T817 905T876 771T897 567Q897 515 896 446T894 302T892 148T891 0H776ZM532 -81Q549 -81 561 -84T581 -95T592 -115T596 -145Q596 -185 585 -215T551 -271T496 -315T422 -352L397 -305Q444 -276 467 -252T490 -204Q490 -193
487 -188T479 -178T471 -164T468 -139Q468 -125 472 -114T483 -96T503 -85T532 -81V-81Z" />
<glyph unicode="&#x147;" glyph-name="Ncaron" horiz-adv-x="1303" d="M996 0L494 864Q456 930 421 990T360 1097Q329 1152 302 1200H300Q301 1154 303 1103Q304 1059 305 1004T306 890V0H198V1350H354L802 580Q839 517 874 456T938 344Q971 286 1000 232H1002Q1000
281 999 335Q997 381 997 438T996 554V1350H1106V0H996ZM397 1644L433 1704L680 1573L922 1704L959 1645L677 1463L397 1644Z" />
<glyph unicode="&#x148;" glyph-name="ncaron" horiz-adv-x="1073" d="M776 0Q776 63 776 133T778 274T779 411T780 534Q780 634 767 704T727 819T660 884T569 905Q539 905 506 896T439 869T370 827T301 773V0H185V986H281L293 865Q328 896 365 921T443 963T524
991T609 1001Q674 1001 726 979T817 905T876 771T897 567Q897 515 896 446T894 302T892 148T891 0H776ZM538 1130L274 1384L321 1436L543 1261L761 1436L808 1385L538 1130Z" />
<glyph unicode="&#x149;" glyph-name="napostrophe" horiz-adv-x="1178" d="M55 1100Q94 1126 120 1149T163 1194T185 1236T192 1275Q192 1295 186 1304T172 1322T158 1341T151 1378Q151 1402 154 1418T165 1443T188 1457T231 1461Q254 1461 269 1457T292 1442T303
1417T306 1381Q306 1319 294 1272T257 1186T192 1113T98 1046L55 1100ZM881 0Q881 63 881 133T883 274T884 411T885 534Q885 634 872 704T832 819T765 884T674 905Q644 905 611 896T544 869T475 827T406 773V0H290V986H386L398 865Q433 896 470 921T548 963T629
991T714 1001Q779 1001 831 979T922 905T981 771T1002 567Q1002 515 1001 446T999 302T997 148T996 0H881Z" />
<glyph unicode="&#x14a;" glyph-name="Eng" horiz-adv-x="1303" d="M1105 51Q1105 -16 1099 -72T1075 -177T1025 -269T941 -353L883 -294Q913 -265 933 -233T966 -164T983 -87T988 0H981L490 861Q452 927 418 987T359 1096Q328 1151 303 1200H301Q302 1154 304
1103Q305 1059 306 1004T307 890V0H198V1350H354L804 562Q840 501 874 438T937 324Q970 264 1000 208H1003Q1001 260 1000 316Q998 364 998 422T997 537V1350H1105V51Z" />
<glyph unicode="&#x14b;" glyph-name="eng" horiz-adv-x="1073" d="M644 -308Q703 -248 740 -162T778 34V534Q778 634 765 704T725 819T660 884T569 905Q539 905 506 896T439 869T370 827T301 773V0H185V986H281L293 865Q328 896 365 921T443 963T524 991T609
1001Q674 1001 726 979T816 905T874 771T895 567V73Q895 1 886 -58T854 -168T797 -264T709 -351L644 -308Z" />
<glyph unicode="&#x14c;" glyph-name="Omacron" horiz-adv-x="1271" d="M1020 668Q1020 973 923 1120T630 1268Q541 1268 472 1234T353 1129T277 946T250 682Q250 377 347 231T640 84Q729 84 799 118T918 223T994 405T1020 668ZM1150 696Q1150 512 1111 376T1002
154T835 27T620 -14Q504 -14 413 24T256 143T155 351T120 654Q120 838 159 974T269 1196T436 1323T650 1364Q766 1364 857 1326T1014 1207T1115 999T1150 696ZM372 1510V1597H900V1510H372Z" />
<glyph unicode="&#x14d;" glyph-name="omacron" horiz-adv-x="1029" d="M916 511Q916 420 903 347T863 215T800 113T715 42T612 0T493 -14Q405 -14 335 15T215 104T140 257T113 476Q113 565 127 639T166 772T229 874T314 945T417 987T536 1001Q624 1001 694 972T814
882T890 730T916 511V511ZM794 468Q794 585 777 668T725 805T638 884T513 909Q450 909 399 885T311 811T256 689T236 518Q236 401 252 318T304 181T391 103T516 78Q580 78 631 102T718 175T774 297T794 468V468ZM260 1219V1309H767V1219H260Z" />
<glyph unicode="&#x14e;" glyph-name="Obreve" horiz-adv-x="1271" d="M1020 668Q1020 973 923 1120T630 1268Q541 1268 472 1234T353 1129T277 946T250 682Q250 377 347 231T640 84Q729 84 799 118T918 223T994 405T1020 668ZM1150 696Q1150 512 1111 376T1002
154T835 27T620 -14Q504 -14 413 24T256 143T155 351T120 654Q120 838 159 974T269 1196T436 1323T650 1364Q766 1364 857 1326T1014 1207T1115 999T1150 696ZM892 1701Q892 1653 875 1608T826 1529T746 1473T637 1452Q573 1452 525 1472T445 1526T398 1606T382
1701H459Q459 1674 469 1646T501 1596T556 1559T638 1544Q683 1544 716 1558T771 1594T803 1644T814 1701H892Z" />
<glyph unicode="&#x14f;" glyph-name="obreve" horiz-adv-x="1029" d="M916 511Q916 420 903 347T863 215T800 113T715 42T612 0T493 -14Q405 -14 335 15T215 104T140 257T113 476Q113 565 127 639T166 772T229 874T314 945T417 987T536 1001Q624 1001 694 972T814
882T890 730T916 511V511ZM794 468Q794 585 777 668T725 805T638 884T513 909Q450 909 399 885T311 811T256 689T236 518Q236 401 252 318T304 181T391 103T516 78Q580 78 631 102T718 175T774 297T794 468V468ZM769 1424Q769 1359 752 1308T703 1222T623 1169T514
1150Q448 1150 400 1169T320 1223T273 1309T258 1424H336Q336 1381 347 1349T380 1296T436 1263T514 1251Q557 1251 590 1261T646 1293T679 1347T691 1424H769Z" />
<glyph unicode="&#x150;" glyph-name="Ohungarumlaut" horiz-adv-x="1271" d="M1020 668Q1020 973 923 1120T630 1268Q541 1268 472 1234T353 1129T277 946T250 682Q250 377 347 231T640 84Q729 84 799 118T918 223T994 405T1020 668ZM1150 696Q1150 512 1111
376T1002 154T835 27T620 -14Q504 -14 413 24T256 143T155 351T120 654Q120 838 159 974T269 1196T436 1323T650 1364Q766 1364 857 1326T1014 1207T1115 999T1150 696ZM814 1454L774 1499L1079 1704L1146 1629L814 1454ZM464 1451L418 1492L704 1720L777 1649L464
1451Z" />
<glyph unicode="&#x151;" glyph-name="ohungarumlaut" horiz-adv-x="1029" d="M916 511Q916 420 903 347T863 215T800 113T715 42T612 0T493 -14Q405 -14 335 15T215 104T140 257T113 476Q113 565 127 639T166 772T229 874T314 945T417 987T536 1001Q624 1001
694 972T814 882T890 730T916 511V511ZM794 468Q794 585 777 668T725 805T638 884T513 909Q450 909 399 885T311 811T256 689T236 518Q236 401 252 318T304 181T391 103T516 78Q580 78 631 102T718 175T774 297T794 468V468ZM669 1126L611 1171L861 1432L949 1362L669
1126ZM340 1119L280 1162L511 1440L601 1373L340 1119Z" />
<glyph unicode="&#x152;" glyph-name="OE" horiz-adv-x="1525" d="M794 0Q750 -7 706 -10T620 -14Q508 -14 416 23T258 140T157 347T121 654Q121 779 139 881T190 1062T271 1198T377 1292T506 1346T651 1364Q685 1364 724 1362T801 1350H1397V1250H903V754H1309V657H903V101H1405V0H794ZM781
1242Q749 1254 712 1260T631 1267Q544 1267 474 1234T354 1129T278 948T251 684Q251 530 275 417T348 230T470 120T640 83Q680 83 715 87T781 99V1242Z" />
<glyph unicode="&#x153;" glyph-name="oe" horiz-adv-x="1643" d="M1512 68Q1442 33 1357 10T1176 -14Q1118 -14 1067 -2T974 36T899 103T844 204Q820 147 785 106T705 38T608 -1T497 -14Q414 -14 344 12T222 98T142 250T113 476Q113 566 126 640T166 772T228
874T311 945T413 987T532 1001Q585 1001 634 989T726 951T803 882T860 778Q879 824 907 864T975 935T1065 983T1178 1001Q1233 1001 1281 988T1368 948T1437 879T1484 780T1510 650T1513 486H913V464Q913 361 932 288T989 169T1080 102T1207 81Q1241 81 1275 85T1344
96T1413 115T1485 143L1512 68ZM1397 571V578Q1397 655 1383 717T1341 822T1269 889T1166 913Q1104 913 1059 886T982 813T934 704T913 571H1397ZM794 468Q794 585 778 668T726 805T638 884T510 909Q446 909 395 885T309 812T255 690T236 518Q236 401 252 318T303
181T391 103T520 78Q583 78 634 102T720 175T775 297T794 468V468Z" />
<glyph unicode="&#x154;" glyph-name="Racute" horiz-adv-x="1053" d="M818 986Q818 1050 800 1099T741 1183T637 1236T484 1254H320V710H498Q648 710 733 783T818 986ZM874 0L446 614H320V0H198V1350Q230 1350 329 1351T508 1352Q719 1352 833 1259T948 1008Q948
913 916 844T829 730T710 663T576 632L1030 0H874ZM752 1704L810 1610L465 1463L428 1525L752 1704Z" />
<glyph unicode="&#x155;" glyph-name="racute" horiz-adv-x="685" d="M614 866Q589 874 573 876T541 878Q517 878 493 868T439 836T376 777T301 689V0H185V986H281L294 801Q339 856 375 894T443 955T500 989T553 999Q571 999 588 995T627 980L614 866ZM391 1126L332
1169L584 1434L676 1368L391 1126Z" />
<glyph unicode="&#x156;" glyph-name="Rcommaaccent" horiz-adv-x="1053" d="M818 986Q818 1050 800 1099T741 1183T637 1236T484 1254H320V710H498Q648 710 733 783T818 986ZM874 0L446 614H320V0H198V1350Q230 1350 329 1351T508 1352Q719 1352 833 1259T948
1008Q948 913 916 844T829 730T710 663T576 632L1030 0H874ZM555 -81Q572 -81 584 -84T604 -95T615 -115T619 -145Q619 -185 608 -215T574 -271T519 -315T445 -352L420 -305Q467 -276 490 -252T513 -204Q513 -193 510 -188T502 -178T494 -164T491 -139Q491 -125
495 -114T506 -96T526 -85T555 -81V-81Z" />
<glyph unicode="&#x157;" glyph-name="rcommaaccent" horiz-adv-x="685" d="M614 866Q589 874 573 876T541 878Q517 878 493 868T439 836T376 777T301 689V0H185V986H281L294 801Q339 856 375 894T443 955T500 989T553 999Q571 999 588 995T627 980L614 866ZM504
-81Q521 -81 533 -84T553 -95T564 -115T568 -145Q568 -185 557 -215T523 -271T468 -315T394 -352L369 -305Q416 -276 439 -252T462 -204Q462 -193 459 -188T451 -178T443 -164T440 -139Q440 -125 444 -114T455 -96T475 -85T504 -81V-81Z" />
<glyph unicode="&#x158;" glyph-name="Rcaron" horiz-adv-x="1053" d="M818 986Q818 1050 800 1099T741 1183T637 1236T484 1254H320V710H498Q648 710 733 783T818 986ZM874 0L446 614H320V0H198V1350Q230 1350 329 1351T508 1352Q719 1352 833 1259T948 1008Q948
913 916 844T829 730T710 663T576 632L1030 0H874ZM245 1644L281 1704L528 1573L770 1704L807 1645L525 1463L245 1644Z" />
<glyph unicode="&#x159;" glyph-name="rcaron" horiz-adv-x="685" d="M614 866Q589 874 573 876T541 878Q517 878 493 868T439 836T376 777T301 689V0H185V986H281L294 801Q339 856 375 894T443 955T500 989T553 999Q571 999 588 995T627 980L614 866ZM658 1130L394
1384L441 1436L663 1261L881 1436L928 1385L658 1130Z" />
<glyph unicode="&#x15a;" glyph-name="Sacute" horiz-adv-x="992" d="M902 358Q902 274 871 206T784 89T651 13T478 -14Q370 -14 280 16T118 90L152 162Q220 132 310 108T464 84Q606 84 688 153T770 342Q770 426 723 483T602 581T446 657T292 738T172 855T124
1028Q124 1102 152 1163T230 1269T351 1339T506 1364Q596 1364 674 1341T814 1278L782 1208Q730 1230 661 1249T520 1268Q388 1268 320 1205T252 1046Q252 962 299 905T419 807T577 730T736 646T856 528T902 358ZM768 1704L826 1610L481 1463L444 1525L768 1704Z"
/>
<glyph unicode="&#x15b;" glyph-name="sacute" horiz-adv-x="790" d="M698 264Q698 140 607 63T364 -14Q290 -14 223 2T92 50L112 122Q179 99 235 89T350 78Q458 78 516 126T574 252Q574 293 559 323T516 376T456 415T368 453T282 489T217 524T155 575T112 646T96
740Q96 795 118 842T180 925T277 980T402 1000Q460 1000 513 989T620 952L598 880Q556 895 509 903T420 912Q323 912 271 867T218 752Q218 700 242 665T306 606T420 552T531 506T607 459T673 380T698 264ZM395 1126L336 1169L588 1434L680 1368L395 1126Z" />
<glyph unicode="&#x15c;" glyph-name="Scircumflex" horiz-adv-x="992" d="M902 358Q902 274 871 206T784 89T651 13T478 -14Q370 -14 280 16T118 90L152 162Q220 132 310 108T464 84Q606 84 688 153T770 342Q770 426 723 483T602 581T446 657T292 738T172 855T124
1028Q124 1102 152 1163T230 1269T351 1339T506 1364Q596 1364 674 1341T814 1278L782 1208Q730 1230 661 1249T520 1268Q388 1268 320 1205T252 1046Q252 962 299 905T419 807T577 730T736 646T856 528T902 358ZM797 1522L760 1463L514 1593L271 1463L235 1522L516
1704L797 1522Z" />
<glyph unicode="&#x15d;" glyph-name="scircumflex" horiz-adv-x="790" d="M698 264Q698 140 607 63T364 -14Q290 -14 223 2T92 50L112 122Q179 99 235 89T350 78Q458 78 516 126T574 252Q574 293 559 323T516 376T456 415T368 453T282 489T217 524T155 575T112
646T96 740Q96 795 118 842T180 925T277 980T402 1000Q460 1000 513 989T620 952L598 880Q556 895 509 903T420 912Q323 912 271 867T218 752Q218 700 242 665T306 606T420 552T531 506T607 459T673 380T698 264ZM871 1131L649 1306L430 1131L384 1183L654 1437L918
1183L871 1131Z" />
<glyph unicode="&#x15e;" glyph-name="Scedilla" horiz-adv-x="992" d="M902 358Q902 274 871 206T784 89T651 13T478 -14Q370 -14 280 16T118 90L152 162Q220 132 310 108T464 84Q606 84 688 153T770 342Q770 426 723 483T602 581T446 657T292 738T172 855T124
1028Q124 1102 152 1163T230 1269T351 1339T506 1364Q596 1364 674 1341T814 1278L782 1208Q730 1230 661 1249T520 1268Q388 1268 320 1205T252 1046Q252 962 299 905T419 807T577 730T736 646T856 528T902 358ZM540 -87Q548 -172 511 -237T402 -353L340 -310Q367
-285 385 -262T415 -214T431 -158T434 -87H540Z" />
<glyph unicode="&#x15f;" glyph-name="scedilla" horiz-adv-x="790" d="M698 264Q698 140 607 63T364 -14Q290 -14 223 2T92 50L112 122Q179 99 235 89T350 78Q458 78 516 126T574 252Q574 293 559 323T516 376T456 415T368 453T282 489T217 524T155 575T112 646T96
740Q96 795 118 842T180 925T277 980T402 1000Q460 1000 513 989T620 952L598 880Q556 895 509 903T420 912Q323 912 271 867T218 752Q218 700 242 665T306 606T420 552T531 506T607 459T673 380T698 264ZM429 -87Q437 -172 400 -237T291 -353L229 -310Q256 -285
274 -262T304 -214T320 -158T323 -87H429Z" />
<glyph unicode="&#x160;" glyph-name="Scaron" horiz-adv-x="992" d="M902 358Q902 274 871 206T784 89T651 13T478 -14Q370 -14 280 16T118 90L152 162Q220 132 310 108T464 84Q606 84 688 153T770 342Q770 426 723 483T602 581T446 657T292 738T172 855T124
1028Q124 1102 152 1163T230 1269T351 1339T506 1364Q596 1364 674 1341T814 1278L782 1208Q730 1230 661 1249T520 1268Q388 1268 320 1205T252 1046Q252 962 299 905T419 807T577 730T736 646T856 528T902 358ZM218 1644L254 1704L501 1573L743 1704L780 1645L498
1463L218 1644Z" />
<glyph unicode="&#x161;" glyph-name="scaron" horiz-adv-x="790" d="M698 264Q698 140 607 63T364 -14Q290 -14 223 2T92 50L112 122Q179 99 235 89T350 78Q458 78 516 126T574 252Q574 293 559 323T516 376T456 415T368 453T282 489T217 524T155 575T112 646T96
740Q96 795 118 842T180 925T277 980T402 1000Q460 1000 513 989T620 952L598 880Q556 895 509 903T420 912Q323 912 271 867T218 752Q218 700 242 665T306 606T420 552T531 506T607 459T673 380T698 264ZM649 1130L385 1384L432 1436L654 1261L872 1436L919 1385L649
1130Z" />
<glyph unicode="&#x162;" glyph-name="uni0162" horiz-adv-x="932" d="M526 1250V0H404V1250H32V1350H900V1250H526ZM468 -81Q485 -81 497 -84T517 -95T528 -115T532 -145Q532 -185 521 -215T487 -271T432 -315T358 -352L333 -305Q380 -276 403 -252T426 -204Q426
-193 423 -188T415 -178T407 -164T404 -139Q404 -125 408 -114T419 -96T439 -85T468 -81V-81Z" />
<glyph unicode="&#x163;" glyph-name="uni0163" horiz-adv-x="691" d="M617 115L636 41Q609 28 581 18T525 1T472 -10T424 -14Q366 -14 325 -1T257 44T218 127T206 253V900H35V986H207Q211 1019 215 1052T224 1121T232 1192T240 1266H322V986H610V900H322V282Q322
229 326 190T345 127T384 91T453 79Q467 79 483 80T519 85T563 96T617 115V115ZM413 -81Q430 -81 442 -84T462 -95T473 -115T477 -145Q477 -185 466 -215T432 -271T377 -315T303 -352L278 -305Q325 -276 348 -252T371 -204Q371 -193 368 -188T360 -178T352 -164T349
-139Q349 -125 353 -114T364 -96T384 -85T413 -81V-81Z" />
<glyph unicode="&#x164;" glyph-name="Tcaron" horiz-adv-x="932" d="M526 1250V0H404V1250H32V1350H900V1250H526ZM187 1644L223 1704L470 1573L712 1704L749 1645L467 1463L187 1644Z" />
<glyph unicode="&#x165;" glyph-name="tcaron" horiz-adv-x="716" d="M617 115L636 41Q609 28 581 18T525 1T472 -10T424 -14Q366 -14 325 -1T257 44T218 127T206 253V900H35V986H207Q211 1019 215 1052T224 1121T232 1192T240 1266H322V986H610V900H322V282Q322
229 326 190T345 127T384 91T453 79Q467 79 483 80T519 85T563 96T617 115V115ZM528 1137L459 1151L529 1493L635 1471L528 1137Z" />
<glyph unicode="&#x166;" glyph-name="Tbar" horiz-adv-x="932" d="M527 1249V728H778V635H527V0H405V635H154V728H405V1249H33V1350H899V1249H527Z" />
<glyph unicode="&#x167;" glyph-name="tbar" horiz-adv-x="691" d="M636 41Q580 15 525 1T424 -14Q364 -14 323 0T255 47T218 129T206 253V483H71V569H206V900H35V986H207Q216 1051 224 1120T240 1266H322V986H610V900H322V569H578V483H322V282Q322 226 327 187T347
124T386 90T453 79Q481 79 519 86T617 115L636 41Z" />
<glyph unicode="&#x168;" glyph-name="Utilde" horiz-adv-x="1304" d="M1110 500Q1110 368 1077 271T981 110T830 17T630 -14Q407 -14 301 103T194 476V1350H316V496Q316 381 336 302T398 175T504 104T658 82Q737 82 797 103T900 171T965 296T988 488V1350H1110V500ZM980
1628Q954 1586 931 1557T884 1509T833 1483T772 1474Q724 1474 690 1491T627 1531T573 1571T518 1589Q501 1589 487 1584T457 1565T423 1531T381 1479L324 1520Q350 1562 372 1591T419 1638T470 1665T532 1674Q579 1674 613 1656T676 1616T730 1577T785 1559Q803
1559 817 1564T847 1583T880 1617T922 1669L980 1628Z" />
<glyph unicode="&#x169;" glyph-name="utilde" horiz-adv-x="1073" d="M792 0L780 122Q745 91 708 66T630 23T549 -4T464 -14Q400 -14 347 8T257 81T198 215T177 419Q177 472 178 540T180 685T182 838T183 986H298Q298 923 297 853T295 712T294 575T293 453Q293
353 306 283T347 168T413 102T504 81Q534 81 567 90T634 117T703 159T773 213V986H889V0H792ZM863 1323Q836 1282 814 1253T768 1205T717 1178T656 1169Q609 1169 575 1187T512 1226T459 1266T404 1284Q387 1284 373 1279T343 1261T309 1227T267 1175L211 1216Q237
1257 259 1286T305 1334T356 1361T417 1370Q464 1370 498 1352T561 1312T614 1273T669 1255Q687 1255 701 1260T730 1278T763 1312T806 1364L863 1323Z" />
<glyph unicode="&#x16a;" glyph-name="Umacron" horiz-adv-x="1304" d="M1110 500Q1110 368 1077 271T981 110T830 17T630 -14Q407 -14 301 103T194 476V1350H316V496Q316 381 336 302T398 175T504 104T658 82Q737 82 797 103T900 171T965 296T988 488V1350H1110V500ZM388
1510V1597H916V1510H388Z" />
<glyph unicode="&#x16b;" glyph-name="umacron" horiz-adv-x="1073" d="M792 0L780 122Q745 91 708 66T630 23T549 -4T464 -14Q400 -14 347 8T257 81T198 215T177 419Q177 472 178 540T180 685T182 838T183 986H298Q298 923 297 853T295 712T294 575T293 453Q293
353 306 283T347 168T413 102T504 81Q534 81 567 90T634 117T703 159T773 213V986H889V0H792ZM289 1219V1309H796V1219H289Z" />
<glyph unicode="&#x16c;" glyph-name="Ubreve" horiz-adv-x="1304" d="M1110 500Q1110 368 1077 271T981 110T830 17T630 -14Q407 -14 301 103T194 476V1350H316V496Q316 381 336 302T398 175T504 104T658 82Q737 82 797 103T900 171T965 296T988 488V1350H1110V500ZM908
1701Q908 1653 891 1608T842 1529T762 1473T653 1452Q589 1452 541 1472T461 1526T414 1606T398 1701H475Q475 1674 485 1646T517 1596T572 1559T654 1544Q699 1544 732 1558T787 1594T819 1644T830 1701H908Z" />
<glyph unicode="&#x16d;" glyph-name="ubreve" horiz-adv-x="1073" d="M792 0L780 122Q745 91 708 66T630 23T549 -4T464 -14Q400 -14 347 8T257 81T198 215T177 419Q177 472 178 540T180 685T182 838T183 986H298Q298 923 297 853T295 712T294 575T293 453Q293
353 306 283T347 168T413 102T504 81Q534 81 567 90T634 117T703 159T773 213V986H889V0H792ZM791 1424Q791 1359 774 1308T725 1222T645 1169T536 1150Q470 1150 422 1169T342 1223T295 1309T280 1424H358Q358 1381 369 1349T402 1296T458 1263T536 1251Q579 1251
612 1261T668 1293T701 1347T713 1424H791Z" />
<glyph unicode="&#x16e;" glyph-name="Uring" horiz-adv-x="1304" d="M1110 500Q1110 368 1077 271T981 110T830 17T630 -14Q407 -14 301 103T194 476V1350H316V496Q316 381 336 302T398 175T504 104T658 82Q737 82 797 103T900 171T965 296T988 488V1350H1110V500ZM836
1551Q836 1512 822 1482T783 1430T723 1398T645 1387Q598 1387 564 1397T508 1426T476 1475T466 1541Q466 1577 479 1607T518 1658T578 1692T658 1704Q705 1704 739 1693T794 1661T825 1612T836 1551V1551ZM741 1543Q741 1591 721 1613T651 1635Q602 1635 581 1613T560
1543Q560 1520 565 1504T580 1477T608 1461T651 1456Q702 1456 721 1478T741 1543V1543Z" />
<glyph unicode="&#x16f;" glyph-name="uring" horiz-adv-x="1073" d="M792 0L780 122Q745 91 708 66T630 23T549 -4T464 -14Q400 -14 347 8T257 81T198 215T177 419Q177 472 178 540T180 685T182 838T183 986H298Q298 923 297 853T295 712T294 575T293 453Q293
353 306 283T347 168T413 102T504 81Q534 81 567 90T634 117T703 159T773 213V986H889V0H792ZM734 1269Q734 1228 721 1197T682 1143T621 1109T541 1097Q493 1097 459 1107T403 1138T371 1189T360 1259Q360 1297 374 1328T413 1381T474 1416T555 1429Q602 1429
636 1417T692 1384T724 1334T734 1269V1269ZM638 1261Q638 1285 633 1303T617 1332T589 1349T547 1355Q498 1355 477 1332T456 1261Q456 1238 461 1221T476 1193T504 1177T547 1171Q599 1171 618 1194T638 1261V1261Z" />
<glyph unicode="&#x170;" glyph-name="Uhungarumlaut" horiz-adv-x="1304" d="M1110 500Q1110 368 1077 271T981 110T830 17T630 -14Q407 -14 301 103T194 476V1350H316V496Q316 381 336 302T398 175T504 104T658 82Q737 82 797 103T900 171T965 296T988 488V1350H1110V500ZM820
1454L780 1499L1085 1704L1152 1629L820 1454ZM470 1451L424 1492L710 1720L783 1649L470 1451Z" />
<glyph unicode="&#x171;" glyph-name="uhungarumlaut" horiz-adv-x="1073" d="M792 0L780 122Q745 91 708 66T630 23T549 -4T464 -14Q400 -14 347 8T257 81T198 215T177 419Q177 472 178 540T180 685T182 838T183 986H298Q298 923 297 853T295 712T294 575T293
453Q293 353 306 283T347 168T413 102T504 81Q534 81 567 90T634 117T703 159T773 213V986H889V0H792ZM712 1126L654 1171L904 1432L992 1362L712 1126ZM383 1119L323 1162L554 1440L644 1373L383 1119Z" />
<glyph unicode="&#x172;" glyph-name="Uogonek" horiz-adv-x="1304" d="M951 -306Q937 -316 919 -325T882 -340T841 -349T800 -353Q762 -353 733 -344T686 -317T658 -276T648 -221Q648 -193 657 -163T684 -103T724 -47T775 5Q739 -5 704 -9T630 -14Q519 -14 437
14T301 102T221 255T194 477V1350H316V495Q316 381 336 302T398 174T504 104T657 83Q733 83 794 102T899 169T965 294T989 487V1350H1110V500Q1110 425 1100 365T1072 257T1033 174T986 114Q934 62 891 19T818 -61T771 -132T755 -198Q755 -231 771 -251T829 -272Q852
-272 878 -265T927 -244L951 -306Z" />
<glyph unicode="&#x173;" glyph-name="uogonek" horiz-adv-x="1073" d="M889 0Q828 -52 794 -100T759 -198Q759 -231 775 -251T833 -272Q855 -272 881 -265T931 -244L954 -306Q940 -316 923 -325T885 -340T845 -349T804 -353Q765 -353 737 -344T690 -317T662 -276T652
-221Q652 -160 689 -100T792 11L780 122Q745 91 708 66T630 23T549 -4T464 -14Q400 -14 347 8T257 81T198 215T177 419Q177 472 178 540T180 685T182 838T183 986H298Q298 923 297 853T295 712T294 575T293 453Q293 353 306 283T347 168T413 102T504 81Q534 81
567 90T634 117T703 159T773 213V986H889V0Z" />
<glyph unicode="&#x174;" glyph-name="Wcircumflex" horiz-adv-x="1694" d="M1642 1350Q1598 1164 1554 991T1464 653T1368 325T1264 0H1130L884 940L842 1122H840L800 934L572 0H434Q375 173 326 332T231 652T141 984T52 1350H184Q222 1183 261 1028T340 729T420
451T510 156H512L538 274L798 1350H904L1176 302L1210 156H1214Q1301 453 1377 747T1518 1350H1642ZM1132 1522L1095 1463L849 1593L606 1463L570 1522L851 1704L1132 1522Z" />
<glyph unicode="&#x175;" glyph-name="wcircumflex" horiz-adv-x="1434" d="M1365 986Q1343 878 1314 760T1247 517T1165 262T1066 0H950L735 709L706 826H703L676 707L488 0H362L57 986H183L383 324L433 148H435L469 289L653 986H770L988 269L1023 150H1025Q1059
250 1091 354T1151 563T1202 774T1245 986H1365ZM936 1131L714 1306L495 1131L449 1183L719 1437L983 1183L936 1131Z" />
<glyph unicode="&#x176;" glyph-name="Ycircumflex" horiz-adv-x="959" d="M960 1350Q913 1256 865 1160T765 968T658 779T541 598V0H419V598Q362 685 309 772T205 950T104 1140T1 1350H143Q186 1257 228 1174T312 1011T398 856T492 705Q541 777 586 858T674 1023T753
1189T824 1350H960ZM765 1522L728 1463L482 1593L239 1463L203 1522L484 1704L765 1522Z" />
<glyph unicode="&#x177;" glyph-name="ycircumflex" horiz-adv-x="906" d="M841 986Q790 766 740 592T639 283T541 47T445 -123T354 -237T268 -307T189 -342T116 -352Q88 -352 60 -346T6 -332V-258Q11 -259 20 -259T40 -260T62 -260T81 -261Q136 -261 182 -244T267
-191Q292 -168 309 -145T339 -98T356 -48T361 10Q361 51 346 119T290 297L44 986H172L384 384Q401 335 415 287T438 197T450 121T450 64Q487 147 524 255T597 484T662 734T715 986H841ZM677 1131L455 1306L236 1131L190 1183L460 1437L724 1183L677 1131Z" />
<glyph unicode="&#x178;" glyph-name="Ydieresis" horiz-adv-x="959" d="M960 1350Q913 1256 865 1160T765 968T658 779T541 598V0H419V598Q362 685 309 772T205 950T104 1140T1 1350H143Q186 1257 228 1174T312 1011T398 856T492 705Q541 777 586 858T674 1023T753
1189T824 1350H960ZM754 1553Q754 1533 751 1520T740 1500T719 1489T683 1486Q660 1486 646 1489T623 1499T613 1520T610 1553Q610 1575 612 1588T623 1609T645 1619T683 1621Q705 1621 718 1619T740 1610T751 1589T754 1553ZM361 1553Q361 1533 359 1520T349 1500T328
1489T292 1486Q269 1486 255 1489T233 1499T222 1520T219 1553Q219 1575 222 1588T232 1609T254 1619T292 1621Q314 1621 327 1619T348 1610T358 1589T361 1553Z" />
<glyph unicode="&#x179;" glyph-name="Zacute" horiz-adv-x="969" d="M86 0V84L712 1250H117L122 1350H856V1269L229 104H888L883 0H86ZM735 1704L793 1610L448 1463L411 1525L735 1704Z" />
<glyph unicode="&#x17a;" glyph-name="zacute" horiz-adv-x="800" d="M696 0H96V75L544 894H115L120 986H679V914L231 95H701L696 0ZM407 1126L348 1169L600 1434L692 1368L407 1126Z" />
<glyph unicode="&#x17b;" glyph-name="Zdotaccent" horiz-adv-x="969" d="M86 0V84L712 1250H117L122 1350H856V1269L229 104H888L883 0H86ZM563 1554Q563 1534 561 1521T550 1500T528 1490T490 1487Q465 1487 450 1489T427 1499T416 1520T413 1554Q413 1576 416
1589T427 1611T451 1621T490 1624Q514 1624 528 1622T550 1612T560 1591T563 1554V1554Z" />
<glyph unicode="&#x17c;" glyph-name="zdotaccent" horiz-adv-x="800" d="M696 0H96V75L544 894H115L120 986H679V914L231 95H701L696 0ZM478 1281Q478 1259 475 1245T465 1223T443 1212T403 1209Q378 1209 363 1212T340 1223T329 1245T326 1281Q326 1304 328
1318T339 1340T363 1350T403 1353Q428 1353 442 1351T465 1340T475 1318T478 1281V1281Z" />
<glyph unicode="&#x17d;" glyph-name="Zcaron" horiz-adv-x="969" d="M86 0V84L712 1250H117L122 1350H856V1269L229 104H888L883 0H86ZM210 1644L246 1704L493 1573L735 1704L772 1645L490 1463L210 1644Z" />
<glyph unicode="&#x17e;" glyph-name="zcaron" horiz-adv-x="800" d="M696 0H96V75L544 894H115L120 986H679V914L231 95H701L696 0ZM658 1130L394 1384L441 1436L663 1261L881 1436L928 1385L658 1130Z" />
<glyph unicode="&#x17f;" glyph-name="longs" horiz-adv-x="511" d="M574 1312Q543 1325 508 1333T440 1341Q366 1341 334 1296T301 1159V0H185V1153Q185 1217 199 1269T241 1357T311 1412T411 1432Q439 1432 466 1428T517 1417T563 1401T601 1383L574 1312Z" />
<glyph unicode="&#x192;" glyph-name="florin" horiz-adv-x="1000" d="M911 1236Q879 1251 841 1262T768 1273Q726 1273 696 1262T645 1227T611 1169T593 1087L549 732H871V647H542L472 60Q464 -5 444 -56T391 -144T311 -200T203 -220Q174 -220 146 -215T93 -203T45
-185T6 -164L34 -93Q66 -109 104 -119T178 -130Q218 -130 249 -119T301 -85T336 -28T354 55L426 647H136V732H433L475 1082Q482 1146 502 1198T555 1287T634 1343T742 1363Q771 1363 799 1358T853 1345T901 1327T940 1306L911 1236Z" />
<glyph unicode="&#x1e6;" glyph-name="Gcaron" horiz-adv-x="1141" d="M962 136Q890 68 796 27T580 -14Q476 -14 392 25T247 148T153 360T120 664Q120 829 158 960T265 1182T421 1318T606 1364Q704 1364 790 1323T944 1216L890 1154Q832 1202 762 1233T618 1264Q451
1264 351 1112T250 688Q250 532 275 418T347 231T459 123T606 88Q684 88 744 110T840 164V620H630V716H962V136ZM322 1644L358 1704L605 1573L847 1704L884 1645L602 1463L322 1644Z" />
<glyph unicode="&#x1e7;" glyph-name="gcaron" horiz-adv-x="1024" d="M840 29Q840 -49 829 -108T795 -209T742 -279T670 -323T582 -346T479 -353Q444 -353 407 -350T332 -339T257 -323T187 -303L201 -230Q277 -244 345 -251T469 -259Q534 -259 582 -247T661 -205T708
-129T724 -10V147Q659 98 586 63T434 28Q365 28 307 62T205 157T138 301T113 484Q113 619 151 717T254 878T401 971T572 1001Q607 1001 643 998T713 991T780 982T840 971V29ZM724 881Q703 888 680 893T633 902T586 908T545 910Q479 910 422 884T324 807T259 683T235
518Q235 430 250 357T295 231T369 149T471 119Q500 119 532 129T598 157T664 197T724 245V881ZM509 1130L245 1384L292 1436L514 1261L732 1436L779 1385L509 1130Z" />
<glyph unicode="&#x1fa;" glyph-name="Aringacute" horiz-adv-x="1034" d="M758 404Q700 604 634 810T498 1222Q440 1038 377 826T260 404H758V404ZM862 0Q846 70 826 148T784 306H236Q216 232 198 154T164 0H40Q80 156 126 326T223 669T329 1015T440 1350H582Q708
988 810 656T994 0H862ZM686 1500Q686 1476 674 1456T638 1420T583 1395T510 1385Q467 1385 436 1392T385 1414T355 1447T345 1490Q345 1513 357 1534T392 1571T448 1596T521 1605Q563 1605 594 1598T645 1576T676 1543T686 1500V1500ZM596 1498Q596 1521 577 1535T515
1550Q472 1550 454 1533T435 1492Q435 1470 453 1455T515 1440Q558 1440 577 1457T596 1498V1498ZM684 1770L717 1702L434 1642L414 1689L684 1770Z" />
<glyph unicode="&#x1fb;" glyph-name="aringacute" horiz-adv-x="972" d="M697 0L685 118Q650 89 615 65T541 23T460 -4T370 -14Q234 -14 163 54T92 245Q92 317 120 377T207 480T361 547T587 571H673V688Q673 743 660 785T617 854T542 896T433 910Q394 910 357
905T285 891T219 873T163 853L142 929Q171 942 206 955T283 978T371 994T469 1000Q559 1000 620 978T718 918T772 826T789 709V0H697ZM673 486H571Q461 486 391 469T281 423T227 352T212 264Q212 222 224 188T259 129T318 91T400 78Q464 78 532 108T673 203V486ZM652
1262Q652 1224 638 1194T600 1142T541 1110T463 1099Q368 1099 327 1139T286 1253Q286 1289 299 1319T338 1370T397 1403T476 1415Q522 1415 555 1404T610 1373T641 1324T652 1262V1262ZM559 1255Q559 1279 554 1296T538 1325T510 1341T469 1346Q420 1346 400 1324T379
1255Q379 1232 383 1216T399 1189T427 1173T469 1168Q520 1168 539 1190T559 1255V1255ZM599 1770L690 1706L462 1515L403 1556L599 1770Z" />
<glyph unicode="&#x1fc;" glyph-name="AEacute" horiz-adv-x="1409" d="M665 0V307H233Q218 268 201 228T169 149T139 72T112 0H-19Q52 171 128 343T283 686T443 1023T607 1350H1281V1250H787V754H1193V657H787V101H1289V0H665ZM665 1250H663Q607 1138 556 1031T457
819T363 611T273 404H665V1250ZM1160 1704L1218 1610L873 1463L836 1525L1160 1704Z" />
<glyph unicode="&#x1fd;" glyph-name="aeacute" horiz-adv-x="1518" d="M1387 68Q1317 33 1232 10T1050 -14Q995 -14 944 -3T849 34T771 99T715 196Q681 140 642 100T560 35T469 -2T370 -14Q234 -14 163 54T92 245Q92 317 120 377T207 480T361 547T587 571H673V688Q673
743 660 785T617 854T542 896T433 910Q394 910 357 905T285 891T219 873T163 853L142 929Q171 942 207 955T284 978T373 994T472 1000Q536 1000 584 988T667 953T724 898T758 826Q782 869 812 901T880 956T960 989T1053 1001Q1109 1001 1157 988T1244 948T1312
879T1359 780T1385 650T1388 486H788V464Q788 361 807 288T864 169T955 102T1082 81Q1116 81 1150 85T1219 96T1288 115T1360 143L1387 68ZM1272 571V578Q1272 655 1258 717T1216 822T1144 889T1041 913Q979 913 934 886T857 813T809 704T788 571H1272ZM571 486Q461
486 391 469T281 423T227 352T212 264Q212 222 224 188T259 129T318 91T400 78Q487 78 555 130T673 274Q673 323 673 376T673 486H571ZM774 1126L715 1169L967 1434L1059 1368L774 1126Z" />
<glyph unicode="&#x1fe;" glyph-name="Oslashacute" horiz-adv-x="1271" d="M1150 697Q1150 570 1132 469T1081 288T1000 152T894 58T765 4T620 -14Q536 -14 463 7T330 76L202 -141L126 -98L264 134Q198 210 160 338T121 653Q121 779 139 881T190 1062T271 1198T377
1292T506 1346T651 1364Q736 1364 809 1343T941 1274L1069 1491L1145 1448L1007 1217Q1073 1139 1111 1011T1150 697V697ZM1024 667Q1024 809 1002 917T935 1097L388 173Q436 126 498 103T640 80Q699 80 750 94T844 140T920 219T977 331T1012 480T1024 667V667ZM631
1270Q543 1270 472 1237T351 1132T274 949T247 683Q247 543 269 435T336 253L883 1177Q836 1223 773 1246T631 1270V1270ZM890 1709L948 1615L603 1468L566 1530L890 1709Z" />
<glyph unicode="&#x1ff;" glyph-name="oslashacute" horiz-adv-x="1029" d="M798 901Q855 842 885 746T916 511Q916 420 903 347T864 215T802 113T718 42T616 0T497 -14Q441 -14 392 -2T302 35L201 -141L127 -98L231 85Q175 144 144 239T113 476Q113 565 126 639T166
772T228 874T311 945T413 987T533 1001Q584 1001 635 990T727 951L828 1127L902 1084L798 901ZM353 122Q384 98 424 87T518 75Q582 75 634 99T722 172T778 296T798 468Q798 578 782 659T732 793L353 122ZM677 864Q644 888 602 900T511 912Q447 912 396 888T307
814T251 691T231 518Q231 407 247 327T297 192L677 864ZM502 1126L443 1169L695 1434L787 1368L502 1126Z" />
<glyph unicode="&#x218;" glyph-name="Scommaaccent" horiz-adv-x="992" d="M902 358Q902 274 871 206T784 89T651 13T478 -14Q370 -14 280 16T118 90L152 162Q220 132 310 108T464 84Q606 84 688 153T770 342Q770 426 723 483T602 581T446 657T292 738T172 855T124
1028Q124 1102 152 1163T230 1269T351 1339T506 1364Q596 1364 674 1341T814 1278L782 1208Q730 1230 661 1249T520 1268Q388 1268 320 1205T252 1046Q252 962 299 905T419 807T577 730T736 646T856 528T902 358ZM492 -81Q509 -81 521 -84T541 -95T552 -115T556
-145Q556 -185 545 -215T511 -271T456 -315T382 -352L357 -305Q404 -276 427 -252T450 -204Q450 -193 447 -188T439 -178T431 -164T428 -139Q428 -125 432 -114T443 -96T463 -85T492 -81V-81Z" />
<glyph unicode="&#x219;" glyph-name="scommaaccent" horiz-adv-x="790" d="M698 264Q698 140 607 63T364 -14Q290 -14 223 2T92 50L112 122Q179 99 235 89T350 78Q458 78 516 126T574 252Q574 293 559 323T516 376T456 415T368 453T282 489T217 524T155 575T112
646T96 740Q96 795 118 842T180 925T277 980T402 1000Q460 1000 513 989T620 952L598 880Q556 895 509 903T420 912Q323 912 271 867T218 752Q218 700 242 665T306 606T420 552T531 506T607 459T673 380T698 264ZM381 -81Q398 -81 410 -84T430 -95T441 -115T445
-145Q445 -185 434 -215T400 -271T345 -315T271 -352L246 -305Q293 -276 316 -252T339 -204Q339 -193 336 -188T328 -178T320 -164T317 -139Q317 -125 321 -114T332 -96T352 -85T381 -81V-81Z" />
<glyph unicode="&#x21a;" glyph-name="Tcommaaccent" horiz-adv-x="932" d="M526 1250V0H404V1250H32V1350H900V1250H526ZM468 -81Q485 -81 497 -84T517 -95T528 -115T532 -145Q532 -185 521 -215T487 -271T432 -315T358 -352L333 -305Q380 -276 403 -252T426
-204Q426 -193 423 -188T415 -178T407 -164T404 -139Q404 -125 408 -114T419 -96T439 -85T468 -81V-81Z" />
<glyph unicode="&#x21b;" glyph-name="tcommaaccent" horiz-adv-x="691" d="M617 115L636 41Q609 28 581 18T525 1T472 -10T424 -14Q366 -14 325 -1T257 44T218 127T206 253V900H35V986H207Q211 1019 215 1052T224 1121T232 1192T240 1266H322V986H610V900H322V282Q322
229 326 190T345 127T384 91T453 79Q467 79 483 80T519 85T563 96T617 115V115ZM413 -81Q430 -81 442 -84T462 -95T473 -115T477 -145Q477 -185 466 -215T432 -271T377 -315T303 -352L278 -305Q325 -276 348 -252T371 -204Q371 -193 368 -188T360 -178T352 -164T349
-139Q349 -125 353 -114T364 -96T384 -85T413 -81V-81Z" />
<glyph unicode="&#x237;" glyph-name="dotlessj" horiz-adv-x="485" d="M301 73Q301 1 292 -58T260 -168T203 -264T115 -351L50 -308Q109 -248 147 -162T185 34V986H301V73Z" />
<glyph unicode="&#x2bc;" glyph-name="apostrophe" horiz-adv-x="446" d="M55 1100Q94 1126 120 1149T163 1194T185 1236T192 1275Q192 1295 186 1304T172 1322T158 1341T151 1378Q151 1402 154 1418T165 1443T188 1457T231 1461Q254 1461 269 1457T292 1442T303
1417T306 1381Q306 1319 294 1272T257 1186T192 1113T98 1046L55 1100Z" />
<glyph unicode="&#x2c6;" glyph-name="circumflex" horiz-adv-x="858" d="M649 1131L427 1306L208 1131L162 1183L432 1437L696 1183L649 1131Z" />
<glyph unicode="&#x2c7;" glyph-name="caron" horiz-adv-x="858" d="M426 1130L162 1384L209 1436L431 1261L649 1436L696 1385L426 1130Z" />
<glyph unicode="&#x2c9;" glyph-name="macron" horiz-adv-x="830" d="M162 1219V1309H669V1219H162Z" />
<glyph unicode="&#x2d8;" glyph-name="breve" horiz-adv-x="835" d="M673 1424Q673 1359 656 1308T607 1222T527 1169T418 1150Q352 1150 304 1169T224 1223T177 1309T162 1424H240Q240 1381 251 1349T284 1296T340 1263T418 1251Q461 1251 494 1261T550 1293T583
1347T595 1424H673Z" />
<glyph unicode="&#x2d9;" glyph-name="dotaccent" horiz-adv-x="475" d="M314 1281Q314 1259 311 1245T301 1223T279 1212T239 1209Q214 1209 199 1212T176 1223T165 1245T162 1281Q162 1304 164 1318T175 1340T199 1350T239 1353Q264 1353 278 1351T301 1340T311
1318T314 1281V1281Z" />
<glyph unicode="&#x2da;" glyph-name="ring" horiz-adv-x="698" d="M536 1269Q536 1228 523 1197T484 1143T423 1109T343 1097Q295 1097 261 1107T205 1138T173 1189T162 1259Q162 1297 176 1328T215 1381T276 1416T357 1429Q404 1429 438 1417T494 1384T526 1334T536
1269V1269ZM440 1261Q440 1285 435 1303T419 1332T391 1349T349 1355Q300 1355 279 1332T258 1261Q258 1238 263 1221T278 1193T306 1177T349 1171Q401 1171 420 1194T440 1261V1261Z" />
<glyph unicode="&#x2db;" glyph-name="ogonek" horiz-adv-x="626" d="M464 -306Q450 -316 432 -325T395 -340T355 -349T314 -353Q275 -353 246 -344T199 -317T171 -276T162 -221Q162 -190 171 -160T198 -102T238 -47T288 0H397Q366 -27 342 -52T302 -102T277 -150T268
-198Q268 -231 284 -251T342 -272Q365 -272 391 -265T441 -244L464 -306Z" />
<glyph unicode="&#x2dc;" glyph-name="tilde" d="M814 1323Q787 1282 765 1253T719 1205T668 1178T607 1169Q560 1169 526 1187T463 1226T410 1266T355 1284Q338 1284 324 1279T294 1261T260 1227T218 1175L162 1216Q188 1257 210 1286T256 1334T307 1361T368
1370Q415 1370 449 1352T512 1312T565 1273T620 1255Q638 1255 652 1260T681 1278T714 1312T757 1364L814 1323Z" />
<glyph unicode="&#x2dd;" glyph-name="hungarumlaut" horiz-adv-x="993" d="M551 1126L493 1171L743 1432L831 1362L551 1126ZM222 1119L162 1162L393 1440L483 1373L222 1119Z" />
<glyph unicode="&#x312;" glyph-name="uni0312" horiz-adv-x="553" d="M391 1376Q357 1363 334 1348T297 1316T275 1283T268 1255Q268 1245 271 1240T279 1229T286 1215T290 1190Q290 1175 286 1165T275 1147T255 1135T226 1131Q209 1131 197 1135T178 1146T166
1166T162 1196Q162 1235 174 1271T212 1336T277 1389T371 1428L391 1376Z" />
<glyph unicode="&#x315;" glyph-name="uni0315" horiz-adv-x="500" d="M231 1137L162 1151L232 1493L338 1471L231 1137Z" />
<glyph unicode="&#x326;" glyph-name="uni0326" horiz-adv-x="523" d="M297 -81Q314 -81 326 -84T346 -95T357 -115T361 -145Q361 -185 350 -215T316 -271T261 -315T187 -352L162 -305Q209 -276 232 -252T255 -204Q255 -193 252 -188T244 -178T236 -164T233 -139Q233
-125 237 -114T248 -96T268 -85T297 -81V-81Z" />
<glyph unicode="&#x37e;" glyph-name="semicolon" horiz-adv-x="612" d="M413 904Q413 879 409 863T396 838T370 826T331 822Q307 822 292 825T266 837T253 861T249 900Q249 924 252 940T266 965T292 978T333 982Q356 982 371 979T396 966T409 942T413 904V904ZM149
-228Q190 -201 217 -177T262 -130T286 -85T293 -43Q293 -29 290 -21T282 -7T271 4T260 17T252 35T249 63Q249 88 252 104T265 131T290 145T333 149Q356 149 372 145T397 130T409 104T413 67Q413 5 401 -43T362 -133T294 -211T196 -282L149 -228Z" />
<glyph unicode="&#x394;" glyph-name="Delta" horiz-adv-x="1026" d="M57 0V83Q95 230 139 390T232 712T332 1036T437 1350H579Q638 1180 691 1017T793 697T885 387T970 83V0H57ZM835 99Q758 381 672 661T495 1223Q468 1137 440 1042T382 848T324 648T269 451T219
265T179 99H835Z" />
<glyph unicode="&#x3a9;" glyph-name="Omega" horiz-adv-x="1340" d="M776 0V104Q834 132 884 190T972 326T1030 502T1051 708Q1051 777 1042 844T1012 974T961 1088T886 1180T788 1241T664 1264Q598 1264 545 1241T450 1178T377 1083T327 966T298 836T289 701Q289
593 309 497T365 323T452 189T563 104V0H83V93H436Q371 128 320 189T233 328T178 496T159 680Q159 776 174 864T218 1029T292 1167T394 1272T525 1340T684 1364Q803 1364 896 1317T1052 1184T1148 980T1181 721Q1181 610 1158 513T1096 335T1004 194T892 93H1256V0H776Z"
/>
<glyph unicode="&#x3bc;" glyph-name="mu" horiz-adv-x="1081" d="M800 0L788 122Q754 92 718 68T643 26T564 -2T484 -12Q413 -12 363 19T288 95Q288 95 289 77T291 27T293 -44T296 -125T299 -206T301 -277T303 -327T304 -346H185V986H301V413Q301 341 309 280T340
175T405 106T511 81Q542 81 575 90T642 117T711 159T780 213V986H896V0H800Z" />
<glyph unicode="&#x3c0;" glyph-name="pi" horiz-adv-x="1230" d="M946 901H734Q734 706 736 569T743 341T755 196T774 116T799 82T833 75Q852 75 881 82T943 104L960 34Q923 15 882 2T803 -11Q776 -11 754 -4T712 25T677 89T648 200T626 371T612 613Q610 651
610 687T611 761Q613 798 617 833T626 901H295Q295 898 295 868T293 789T292 678T290 550T288 419T287 298T286 200T285 141Q284 115 284 92T283 50T283 18T283 0H175Q175 -3 175 12T175 62T176 152T179 285Q179 371 180 466T182 647T185 801T187 901H26V986H946V901Z"
/>
<glyph unicode="&#x1e02;" glyph-name="uni1E02" horiz-adv-x="1103" d="M844 388Q844 518 760 591T500 664H320V102Q358 98 412 95T518 92Q600 92 662 113T764 174T824 268T844 388ZM776 1028Q776 1130 709 1192T508 1254H320V758H472Q553 758 612 781T707 842T759
928T776 1028ZM974 402Q974 312 944 238T851 110T695 26T476 -4Q410 -4 320 -2T198 0V1350H544Q635 1350 703 1327T816 1263T881 1167T902 1048Q902 931 843 850T688 728Q742 723 793 700T885 636T950 535T974 402ZM587 1554Q587 1534 585 1521T574 1500T552 1490T514
1487Q489 1487 474 1489T451 1499T440 1520T437 1554Q437 1576 440 1589T451 1611T475 1621T514 1624Q538 1624 552 1622T574 1612T584 1591T587 1554V1554Z" />
<glyph unicode="&#x1e03;" glyph-name="uni1E03" horiz-adv-x="1024" d="M185 1414H301V878Q335 907 370 929T440 967T510 992T584 1001Q655 1001 715 966T819 868T887 718T911 528Q911 383 874 280T773 112T622 17T437 -14Q395 -14 362 -12T298 -6T241 3T185
13V1414ZM301 102Q331 91 374 84T470 76Q537 76 595 102T696 180T764 312T789 499Q789 588 774 662T728 791T655 876T555 907Q532 907 503 899T440 876T371 836T301 779V102ZM321 1645Q321 1624 318 1611T307 1591T285 1580T246 1577Q221 1577 206 1580T183 1590T172
1611T169 1645Q169 1667 172 1680T183 1701T207 1711T246 1714Q271 1714 285 1712T307 1702T318 1681T321 1645V1645Z" />
<glyph unicode="&#x1e0a;" glyph-name="uni1E0A" horiz-adv-x="1147" d="M896 686Q896 800 875 903T802 1084T664 1208T448 1254Q416 1254 384 1254T320 1252V102Q392 96 466 96Q676 96 786 239T896 686ZM1026 706Q1026 542 990 411T879 188T689 47T418 -2Q360
-2 300 -1T198 0V1350L476 1352Q628 1352 733 1298T903 1154T997 948T1026 706ZM606 1554Q606 1534 604 1521T593 1500T571 1490T533 1487Q508 1487 493 1489T470 1499T459 1520T456 1554Q456 1576 459 1589T470 1611T494 1621T533 1624Q557 1624 571 1622T593
1612T603 1591T606 1554V1554Z" />
<glyph unicode="&#x1e0b;" glyph-name="uni1E0B" horiz-adv-x="1024" d="M745 0L731 115Q697 87 662 64T590 23T515 -4T436 -14Q365 -14 306 20T204 116T137 264T113 457Q113 605 151 708T254 877T401 971T574 1001Q611 1001 652 998T724 991V1414H840V0H745ZM724
882Q680 896 635 903T549 910Q482 910 425 884T325 806T259 674T235 485Q235 394 251 319T297 191T371 109T469 80Q517 80 584 111T724 205V882ZM858 1645Q858 1624 855 1611T844 1591T822 1580T783 1577Q758 1577 743 1580T720 1590T709 1611T706 1645Q706 1667
709 1680T720 1701T744 1711T783 1714Q808 1714 822 1712T844 1702T855 1681T858 1645V1645Z" />
<glyph unicode="&#x1e1e;" glyph-name="uni1E1E" horiz-adv-x="898" d="M320 1252V738H762V640H320V0H198V1350H802V1252H320ZM588 1554Q588 1534 586 1521T575 1500T553 1490T515 1487Q490 1487 475 1489T452 1499T441 1520T438 1554Q438 1576 441 1589T452 1611T476
1621T515 1624Q539 1624 553 1622T575 1612T585 1591T588 1554V1554Z" />
<glyph unicode="&#x1e1f;" glyph-name="uni1E1F" horiz-adv-x="582" d="M618 1303Q584 1319 547 1329T475 1339Q394 1339 359 1295T324 1159V986H560V900H324V0H208V900H35V986H208V1148Q208 1212 222 1264T266 1352T341 1407T448 1427Q477 1427 505 1423T560
1411T608 1394T648 1374L618 1303ZM499 1645Q499 1624 496 1611T485 1591T463 1580T424 1577Q399 1577 384 1580T361 1590T350 1611T347 1645Q347 1667 350 1680T361 1701T385 1711T424 1714Q449 1714 463 1712T485 1702T496 1681T499 1645V1645Z" />
<glyph unicode="&#x1e40;" glyph-name="uni1E40" horiz-adv-x="1674" d="M1368 0Q1364 166 1356 336T1337 663T1312 958T1286 1198H1284L870 0H780L362 1198H360Q350 1084 339 945T321 651T308 331T300 0H176Q180 160 188 330T209 673T239 1017T276 1350H436L834
212H836L1232 1350H1388Q1408 1188 1427 1017T1460 673T1484 330T1498 0H1368ZM912 1554Q912 1534 910 1521T899 1500T877 1490T839 1487Q814 1487 799 1489T776 1499T765 1520T762 1554Q762 1576 765 1589T776 1611T800 1621T839 1624Q863 1624 877 1622T899 1612T909
1591T912 1554V1554Z" />
<glyph unicode="&#x1e41;" glyph-name="uni1E41" horiz-adv-x="1622" d="M1324 0Q1324 63 1325 133T1327 274T1328 411T1329 534Q1329 634 1316 704T1277 819T1215 884T1132 905Q1103 905 1069 894T998 863T926 815T855 758Q858 742 861 724T867 684T871 634T873
568V0H757V534Q757 631 744 701T705 817T643 883T560 905Q534 905 503 896T438 869T370 827T301 773V0H185V986H281L293 865Q324 891 359 916T434 960T515 990T600 1001Q648 1001 685 987T751 950T798 898T830 838Q869 872 909 901T992 953T1080 988T1172 1001Q1231
1001 1281 979T1367 905T1424 771T1445 567Q1445 515 1444 447T1442 302T1440 148T1439 0H1324ZM887 1281Q887 1259 884 1245T874 1223T852 1212T812 1209Q787 1209 772 1212T749 1223T738 1245T735 1281Q735 1304 737 1318T748 1340T772 1350T812 1353Q837 1353
851 1351T874 1340T884 1318T887 1281V1281Z" />
<glyph unicode="&#x1e56;" glyph-name="uni1E56" horiz-adv-x="1009" d="M816 938Q816 1101 726 1178T446 1256H320V614H444Q626 614 721 697T816 938ZM946 956Q946 851 912 769T809 629T641 543T408 514H320V0H198V1350Q228 1350 309 1351T464 1352Q586 1352
677 1327T827 1253T916 1129T946 956ZM579 1554Q579 1534 577 1521T566 1500T544 1490T506 1487Q481 1487 466 1489T443 1499T432 1520T429 1554Q429 1576 432 1589T443 1611T467 1621T506 1624Q530 1624 544 1622T566 1612T576 1591T579 1554V1554Z" />
<glyph unicode="&#x1e57;" glyph-name="uni1E57" horiz-adv-x="1024" d="M185 -346V986H278L293 872Q327 900 362 923T434 964T508 991T584 1001Q656 1001 716 967T820 870T887 721T911 529Q911 387 875 285T774 115T624 17T440 -14Q416 -14 378 -13T301 -7V-346H185ZM301
104Q341 89 385 83T472 76Q539 76 596 101T697 179T764 312T789 501Q789 589 774 663T728 792T655 876T555 907Q531 907 502 899T440 876T371 836T301 779V104ZM588 1281Q588 1259 585 1245T575 1223T553 1212T513 1209Q488 1209 473 1212T450 1223T439 1245T436
1281Q436 1304 438 1318T449 1340T473 1350T513 1353Q538 1353 552 1351T575 1340T585 1318T588 1281V1281Z" />
<glyph unicode="&#x1e60;" glyph-name="uni1E60" horiz-adv-x="992" d="M902 358Q902 274 871 206T784 89T651 13T478 -14Q370 -14 280 16T118 90L152 162Q220 132 310 108T464 84Q606 84 688 153T770 342Q770 426 723 483T602 581T446 657T292 738T172 855T124
1028Q124 1102 152 1163T230 1269T351 1339T506 1364Q596 1364 674 1341T814 1278L782 1208Q730 1230 661 1249T520 1268Q388 1268 320 1205T252 1046Q252 962 299 905T419 807T577 730T736 646T856 528T902 358ZM571 1556Q571 1536 569 1523T558 1502T536 1492T498
1489Q473 1489 458 1491T435 1501T424 1522T421 1556Q421 1578 424 1591T435 1613T459 1623T498 1626Q522 1626 536 1624T558 1614T568 1593T571 1556V1556Z" />
<glyph unicode="&#x1e61;" glyph-name="uni1E61" horiz-adv-x="790" d="M698 264Q698 140 607 63T364 -14Q290 -14 223 2T92 50L112 122Q179 99 235 89T350 78Q458 78 516 126T574 252Q574 293 559 323T516 376T456 415T368 453T282 489T217 524T155 575T112 646T96
740Q96 795 118 842T180 925T277 980T402 1000Q460 1000 513 989T620 952L598 880Q556 895 509 903T420 912Q323 912 271 867T218 752Q218 700 242 665T306 606T420 552T531 506T607 459T673 380T698 264ZM470 1282Q470 1260 467 1246T457 1224T435 1213T395 1210Q370
1210 355 1213T332 1224T321 1246T318 1282Q318 1305 320 1319T331 1341T355 1351T395 1354Q420 1354 434 1352T457 1341T467 1319T470 1282V1282Z" />
<glyph unicode="&#x1e6a;" glyph-name="uni1E6A" horiz-adv-x="932" d="M526 1250V0H404V1250H32V1350H900V1250H526ZM541 1554Q541 1534 539 1521T528 1500T506 1490T468 1487Q443 1487 428 1489T405 1499T394 1520T391 1554Q391 1576 394 1589T405 1611T429
1621T468 1624Q492 1624 506 1622T528 1612T538 1591T541 1554V1554Z" />
<glyph unicode="&#x1e6b;" glyph-name="uni1E6B" horiz-adv-x="691" d="M617 115L636 41Q609 28 581 18T525 1T472 -10T424 -14Q366 -14 325 -1T257 44T218 127T206 253V900H35V986H207Q211 1019 215 1052T224 1121T232 1192T240 1266H322V986H610V900H322V282Q322
229 326 190T345 127T384 91T453 79Q467 79 483 80T519 85T563 96T617 115V115ZM314 1281Q314 1259 311 1245T301 1223T279 1212T239 1209Q214 1209 199 1212T176 1223T165 1245T162 1281Q162 1304 164 1318T175 1340T199 1350T239 1353Q264 1353 278 1351T301
1340T311 1318T314 1281V1281Z" />
<glyph unicode="&#x1e80;" glyph-name="Wgrave" horiz-adv-x="1694" d="M1642 1350Q1598 1164 1554 991T1464 653T1368 325T1264 0H1130L884 940L842 1122H840L800 934L572 0H434Q375 173 326 332T231 652T141 984T52 1350H184Q222 1183 261 1028T340 729T420
451T510 156H512L538 274L798 1350H904L1176 302L1210 156H1214Q1301 453 1377 747T1518 1350H1642ZM897 1463L552 1610L610 1704L934 1525L897 1463Z" />
<glyph unicode="&#x1e81;" glyph-name="wgrave" horiz-adv-x="1434" d="M1365 986Q1343 878 1314 760T1247 517T1165 262T1066 0H950L735 709L706 826H703L676 707L488 0H362L57 986H183L383 324L433 148H435L469 289L653 986H770L988 269L1023 150H1025Q1059
250 1091 354T1151 563T1202 774T1245 986H1365ZM739 1126L455 1368L546 1434L799 1169L739 1126Z" />
<glyph unicode="&#x1e82;" glyph-name="Wacute" horiz-adv-x="1694" d="M1642 1350Q1598 1164 1554 991T1464 653T1368 325T1264 0H1130L884 940L842 1122H840L800 934L572 0H434Q375 173 326 332T231 652T141 984T52 1350H184Q222 1183 261 1028T340 729T420
451T510 156H512L538 274L798 1350H904L1176 302L1210 156H1214Q1301 453 1377 747T1518 1350H1642ZM1087 1704L1145 1610L800 1463L763 1525L1087 1704Z" />
<glyph unicode="&#x1e83;" glyph-name="wacute" horiz-adv-x="1434" d="M1365 986Q1343 878 1314 760T1247 517T1165 262T1066 0H950L735 709L706 826H703L676 707L488 0H362L57 986H183L383 324L433 148H435L469 289L653 986H770L988 269L1023 150H1025Q1059
250 1091 354T1151 563T1202 774T1245 986H1365ZM679 1126L620 1169L872 1434L964 1368L679 1126Z" />
<glyph unicode="&#x1e84;" glyph-name="Wdieresis" horiz-adv-x="1694" d="M1642 1350Q1598 1164 1554 991T1464 653T1368 325T1264 0H1130L884 940L842 1122H840L800 934L572 0H434Q375 173 326 332T231 652T141 984T52 1350H184Q222 1183 261 1028T340 729T420
451T510 156H512L538 274L798 1350H904L1176 302L1210 156H1214Q1301 453 1377 747T1518 1350H1642ZM1121 1553Q1121 1533 1118 1520T1107 1500T1086 1489T1050 1486Q1027 1486 1013 1489T990 1499T980 1520T977 1553Q977 1575 979 1588T990 1609T1012 1619T1050
1621Q1072 1621 1085 1619T1107 1610T1118 1589T1121 1553ZM728 1553Q728 1533 726 1520T716 1500T695 1489T659 1486Q636 1486 622 1489T600 1499T589 1520T586 1553Q586 1575 589 1588T599 1609T621 1619T659 1621Q681 1621 694 1619T715 1610T725 1589T728 1553Z"
/>
<glyph unicode="&#x1e85;" glyph-name="wdieresis" horiz-adv-x="1434" d="M1365 986Q1343 878 1314 760T1247 517T1165 262T1066 0H950L735 709L706 826H703L676 707L488 0H362L57 986H183L383 324L433 148H435L469 289L653 986H770L988 269L1023 150H1025Q1059
250 1091 354T1151 563T1202 774T1245 986H1365ZM975 1281Q975 1259 972 1246T962 1226T942 1216T905 1213Q883 1213 869 1215T847 1225T837 1246T834 1281Q834 1303 836 1316T847 1337T869 1347T905 1350Q928 1350 941 1348T962 1338T972 1317T975 1281ZM595 1281Q595
1259 593 1246T583 1226T563 1216T528 1213Q504 1213 490 1215T468 1225T458 1246T455 1281Q455 1303 457 1316T467 1337T489 1347T528 1350Q549 1350 562 1348T583 1338T592 1317T595 1281Z" />
<glyph unicode="&#x1ef2;" glyph-name="Ygrave" horiz-adv-x="959" d="M960 1350Q913 1256 865 1160T765 968T658 779T541 598V0H419V598Q362 685 309 772T205 950T104 1140T1 1350H143Q186 1257 228 1174T312 1011T398 856T492 705Q541 777 586 858T674 1023T753
1189T824 1350H960ZM540 1463L195 1610L253 1704L577 1525L540 1463Z" />
<glyph unicode="&#x1ef3;" glyph-name="ygrave" horiz-adv-x="906" d="M841 986Q790 766 740 592T639 283T541 47T445 -123T354 -237T268 -307T189 -342T116 -352Q88 -352 60 -346T6 -332V-258Q11 -259 20 -259T40 -260T62 -260T81 -261Q136 -261 182 -244T267
-191Q292 -168 309 -145T339 -98T356 -48T361 10Q361 51 346 119T290 297L44 986H172L384 384Q401 335 415 287T438 197T450 121T450 64Q487 147 524 255T597 484T662 734T715 986H841ZM474 1126L190 1368L281 1434L534 1169L474 1126Z" />
<glyph unicode="&#x200b;" glyph-name="uni200B" horiz-adv-x="0" />
<glyph unicode="&#x2010;" glyph-name="hyphen" horiz-adv-x="463" d="M69 540V635H461V540H69Z" />
<glyph unicode="&#x2011;" glyph-name="hyphen" horiz-adv-x="463" d="M69 540V635H461V540H69Z" />
<glyph unicode="&#x2013;" glyph-name="endash" horiz-adv-x="1000" d="M92 547V640H909V547H92Z" />
<glyph unicode="&#x2014;" glyph-name="emdash" horiz-adv-x="2000" d="M316 547V640H1683V547H316Z" />
<glyph unicode="&#x2015;" glyph-name="uni2015" horiz-adv-x="2000" d="M316 547V640H1683V547H316Z" />
<glyph unicode="&#x2018;" glyph-name="quoteleft" horiz-adv-x="531" d="M422 1479Q381 1452 355 1429T312 1383T289 1340T282 1300Q282 1285 285 1277T292 1263T303 1252T313 1239T321 1221T324 1192Q324 1167 321 1150T310 1123T284 1108T239 1103Q213 1103
198 1108T174 1124T162 1151T159 1189Q159 1251 171 1300T210 1391T277 1467T375 1537L422 1479Z" />
<glyph unicode="&#x2019;" glyph-name="quoteright" horiz-adv-x="548" d="M127 1112Q167 1138 194 1162T237 1209T260 1251T267 1291Q267 1312 261 1321T246 1339T231 1360T224 1399Q224 1424 227 1441T239 1468T264 1483T310 1488Q334 1488 350 1483T374 1467T386
1440T389 1402Q389 1339 377 1290T338 1200T271 1124T174 1054L127 1112Z" />
<glyph unicode="&#x201a;" glyph-name="quotesinglbase" horiz-adv-x="610" d="M130 -224Q170 -198 197 -174T240 -127T263 -85T270 -45Q270 -24 264 -15T249 3T234 24T227 63Q227 88 230 105T241 133T267 147T313 152Q337 152 353 147T377 131T389 104T392 66Q392
3 380 -46T341 -136T274 -212T176 -282L130 -224Z" />
<glyph unicode="&#x201c;" glyph-name="quotedblleft" horiz-adv-x="882" d="M773 1477Q732 1450 706 1427T663 1381T641 1339T634 1299Q634 1278 640 1269T655 1251T669 1230T675 1193Q675 1168 673 1151T662 1124T636 1110T592 1105Q568 1105 553 1110T530 1125T518
1151T515 1189Q515 1251 527 1300T566 1389T631 1465T727 1534L773 1477ZM419 1479Q377 1452 351 1428T308 1382T285 1339T278 1299Q278 1278 284 1269T299 1251T313 1230T319 1193Q319 1168 317 1151T306 1124T280 1110T236 1105Q211 1105 196 1110T173 1125T162
1151T159 1189Q159 1251 171 1300T209 1390T276 1466T373 1536L419 1479Z" />
<glyph unicode="&#x201d;" glyph-name="quotedblright" horiz-adv-x="899" d="M481 1111Q521 1138 548 1162T592 1209T615 1252T622 1292Q622 1312 616 1322T601 1340T587 1360T580 1398Q580 1423 583 1440T594 1467T619 1481T663 1486Q687 1486 702 1481T726
1466T737 1439T740 1402Q740 1339 728 1291T690 1201T623 1125T526 1055L481 1111ZM127 1113Q166 1140 193 1164T236 1210T258 1252T265 1292Q265 1312 259 1322T245 1340T231 1360T224 1398Q224 1423 227 1440T238 1467T262 1481T307 1486Q331 1486 346 1481T370
1466T381 1439T384 1402Q384 1339 372 1291T334 1202T268 1126T172 1057L127 1113Z" />
<glyph unicode="&#x201e;" glyph-name="quotedblbase" horiz-adv-x="961" d="M483 -224Q524 -198 551 -174T594 -127T617 -84T624 -44Q624 -24 618 -14T604 4T590 24T583 62Q583 87 585 104T596 131T621 145T666 150Q690 150 705 145T729 130T740 103T743 66Q743
3 731 -45T693 -135T626 -211T529 -281L483 -224ZM130 -223Q169 -196 196 -172T239 -126T261 -84T268 -44Q268 -24 262 -14T247 4T233 24T227 62Q227 87 229 104T240 131T265 145T310 150Q334 150 349 145T373 130T384 103T387 66Q387 3 375 -45T337 -134T271 -210T175
-279L130 -223Z" />
<glyph unicode="&#x2020;" glyph-name="dagger" horiz-adv-x="738" d="M425 1047V422H313V1047H85V1133H313V1418H425V1133H653V1047H425Z" />
<glyph unicode="&#x2021;" glyph-name="daggerdbl" horiz-adv-x="738" d="M425 298V0H313V298H85V385H313V1042H85V1129H313V1418H425V1129H653V1042H425V385H653V298H425Z" />
<glyph unicode="&#x2022;" glyph-name="bullet" horiz-adv-x="1000" d="M731 612Q731 564 713 522T664 449T590 399T500 381Q452 381 410 399T337 448T287 522T269 612Q269 660 287 702T336 775T410 825T500 843Q548 843 590 825T663 776T713 702T731 612V612Z" />
<glyph unicode="&#x2026;" glyph-name="ellipsis" horiz-adv-x="1554" d="M1284 71Q1284 46 1281 30T1268 5T1242 -8T1202 -12Q1176 -12 1161 -9T1136 4T1123 28T1120 68Q1120 93 1123 109T1135 135T1161 148T1203 152Q1228 152 1243 149T1268 136T1280 111T1284
71V71ZM838 71Q838 46 835 30T822 5T796 -8T756 -12Q730 -12 715 -9T690 4T677 28T674 68Q674 93 677 109T689 135T715 148T757 152Q782 152 797 149T822 136T834 111T838 71V71ZM392 71Q392 46 389 30T376 5T350 -8T310 -12Q284 -12 269 -9T244 4T231 28T228 68Q228
93 231 109T243 135T269 148T312 152Q336 152 351 149T376 136T388 111T392 71V71Z" />
<glyph unicode="&#x2030;" glyph-name="perthousand" horiz-adv-x="2048" d="M655 1052Q655 892 588 816T389 740Q315 740 266 758T188 813T147 909T134 1047Q134 1131 152 1191T204 1289T288 1346T402 1364Q473 1364 521 1344T600 1285T642 1187T655 1052V1052ZM549
1043Q549 1101 541 1145T515 1221T468 1268T394 1284Q357 1284 329 1272T281 1233T251 1163T241 1055Q241 993 250 949T277 876T325 834T396 820Q439 820 468 835T515 880T541 950T549 1043V1043ZM245 -30L176 17L1133 1380L1203 1333L245 -30ZM1244 298Q1244 138
1177 62T978 -14Q905 -14 856 4T778 59T736 155T724 293Q724 377 741 437T793 535T877 592T992 610Q1063 610 1111 590T1189 531T1231 433T1244 298V298ZM1138 289Q1138 347 1131 391T1105 467T1057 514T983 530Q947 530 919 518T871 479T841 409T830 301Q830 239
839 195T866 122T914 80T985 66Q1028 66 1057 81T1105 126T1130 196T1138 289V289ZM1913 298Q1913 138 1846 62T1647 -14Q1574 -14 1525 4T1447 59T1405 155T1393 293Q1393 377 1410 437T1462 535T1546 592T1661 610Q1732 610 1780 590T1858 531T1900 433T1913
298V298ZM1807 289Q1807 347 1800 391T1774 467T1726 514T1652 530Q1616 530 1588 518T1540 479T1510 409T1499 301Q1499 239 1508 195T1535 122T1583 80T1654 66Q1697 66 1726 81T1774 126T1799 196T1807 289V289Z" />
<glyph unicode="&#x2039;" glyph-name="guilsinglleft" horiz-adv-x="603" d="M356 218L117 592L356 966L432 932L248 592L432 251L356 218Z" />
<glyph unicode="&#x203a;" glyph-name="guilsinglright" horiz-adv-x="605" d="M247 966L486 592L247 218L171 252L356 592L171 933L247 966Z" />
<glyph unicode="&#x2044;" glyph-name="fraction" horiz-adv-x="136" d="M621 1459L695 1418L-445 -128L-519 -86L621 1459Z" />
<glyph unicode="&#x2060;" glyph-name="uni2060" horiz-adv-x="0" />
<glyph unicode="&#x2070;" glyph-name="zero.superior" horiz-adv-x="727" d="M631 1101Q631 1002 614 931T562 814T474 747T349 725Q284 725 234 741T151 798T100 908T83 1084Q83 1182 100 1253T152 1369T239 1436T365 1458Q430 1458 480 1442T563 1386T614 1277T631
1101V1101ZM521 1086Q521 1174 512 1231T482 1322T431 1368T357 1381Q314 1381 283 1366T232 1316T203 1228T193 1098Q193 1009 202 953T232 862T283 815T357 802Q400 802 431 818T482 868T511 956T521 1086V1086Z" />
<glyph unicode="&#x2074;" glyph-name="four.superior" horiz-adv-x="692" d="M528 900V737H423V900H61V972Q95 1031 134 1093T215 1218T299 1338T382 1446H528V981H647V900H528ZM423 1374Q393 1337 358 1290T288 1192T217 1086T151 981H423V1374Z" />
<glyph unicode="&#x2075;" glyph-name="five.superior" horiz-adv-x="683" d="M240 1364L222 1149Q243 1152 275 1154T341 1156Q402 1156 450 1143T530 1104T580 1040T597 952Q597 893 580 851T527 780T440 739T316 725Q293 725 267 728T212 736T152 749T87 767L96
824Q158 812 212 807T308 801Q353 801 386 808T441 831T475 874T486 941Q486 976 475 1003T441 1047T382 1074T297 1084Q254 1084 213 1080T122 1068L154 1446H538V1364H240Z" />
<glyph unicode="&#x2076;" glyph-name="six.superior" horiz-adv-x="703" d="M590 1365Q547 1373 503 1379T417 1385Q370 1385 333 1369T270 1319T231 1233T217 1107Q266 1130 312 1141T410 1153Q461 1153 501 1139T568 1101T610 1040T624 960Q624 906 606 863T554
789T472 742T366 725Q303 725 256 741T175 796T126 901T109 1068Q109 1185 132 1260T195 1380T290 1441T406 1458Q427 1458 449 1456T496 1450T546 1439T601 1424L590 1365ZM516 948Q516 1013 481 1048T374 1084Q339 1084 302 1075T217 1042Q217 979 226 933T254
857T303 813T374 798Q444 798 480 838T516 948V948Z" />
<glyph unicode="&#x2077;" glyph-name="seven.superior" horiz-adv-x="671" d="M423 1054Q400 1013 373 968T319 879T264 794T213 723L136 751L473 1360H81V1446H601V1371L423 1054Z" />
<glyph unicode="&#x2078;" glyph-name="eight.superior" horiz-adv-x="701" d="M619 913Q619 872 603 837T551 777T464 739T338 725Q271 725 223 736T143 771T97 826T82 900Q82 935 94 963T129 1015T183 1058T254 1094Q177 1128 140 1171T103 1276Q103 1317 119
1350T168 1408T248 1446T359 1459Q427 1459 472 1447T546 1412T586 1358T599 1288Q599 1228 559 1188T433 1106Q526 1070 572 1027T619 913V913ZM492 1280Q492 1336 458 1362T346 1389Q283 1389 247 1361T211 1285Q211 1261 218 1242T242 1205T285 1171T349 1140Q424
1172 458 1205T492 1280V1280ZM510 898Q510 926 499 948T465 990T410 1026T332 1060Q260 1028 225 993T190 910Q190 853 232 824T357 795Q390 795 418 802T466 822T498 855T510 898V898Z" />
<glyph unicode="&#x2079;" glyph-name="nine.superior" horiz-adv-x="698" d="M104 820Q154 811 203 805T291 799Q338 799 375 814T438 864T478 950T492 1077Q440 1053 396 1042T299 1030Q248 1030 208 1043T141 1082T99 1142T85 1223Q85 1276 103 1320T155 1394T237
1441T343 1458Q405 1458 452 1443T533 1388T583 1283T600 1115Q600 998 577 923T513 803T418 742T303 725Q263 725 210 733T91 764L104 820ZM492 1142Q492 1205 483 1251T454 1327T404 1371T335 1386Q265 1386 229 1346T193 1235Q193 1202 201 1177T227 1135T272
1109T335 1100Q370 1100 407 1109T492 1142V1142Z" />
<glyph unicode="&#x2080;" glyph-name="zero.inferior" horiz-adv-x="727" d="M631 253Q631 154 614 83T562 -34T474 -101T349 -123Q284 -123 234 -107T151 -50T100 60T83 236Q83 334 100 405T152 521T239 588T365 610Q430 610 480 594T563 538T614 429T631 253V253ZM521
238Q521 326 512 383T482 474T431 520T357 533Q314 533 283 518T232 468T203 380T193 250Q193 161 202 105T232 14T283 -33T357 -46Q400 -46 431 -30T482 20T511 108T521 238V238Z" />
<glyph unicode="&#x2081;" glyph-name="one.inferior" horiz-adv-x="664" d="M109 -111V-30H298V505L129 454L108 516L323 602H404V-30H578V-111H109Z" />
<glyph unicode="&#x2082;" glyph-name="two.inferior" horiz-adv-x="673" d="M90 -111V-35Q194 50 263 116T373 234T432 326T450 399Q450 438 438 464T404 505T355 526T297 532Q276 532 255 529T213 521T168 510T119 497L104 563Q133 573 160 582T215 597T275
607T344 610Q387 610 427 600T498 566T547 505T566 415Q566 372 549 326T492 227T385 111T219 -25H587V-111H90Z" />
<glyph unicode="&#x2083;" glyph-name="three.inferior" horiz-adv-x="678" d="M96 -23Q129 -30 158 -34T214 -42T265 -46T310 -47Q357 -47 391 -39T447 -14T479 29T489 90Q489 122 479 147T446 190T388 215T301 224H200V297H300Q379 297 422 329T465 422Q465
475 430 504T318 534Q297 534 273 532T223 527T174 518T132 509L114 571Q155 586 215 598T348 610Q404 610 447 597T518 561T561 505T576 435Q576 400 565 372T535 324T492 290T440 270Q477 267 507 252T559 214T591 160T603 98Q603 39 585 -2T531 -71T443 -110T323
-123Q275 -123 217 -115T85 -84L96 -23Z" />
<glyph unicode="&#x2084;" glyph-name="four.inferior" horiz-adv-x="692" d="M528 52V-111H423V52H61V124Q95 183 134 245T215 370T299 490T382 598H528V133H647V52H528ZM423 526Q393 489 358 442T288 344T217 238T151 133H423V526Z" />
<glyph unicode="&#x2085;" glyph-name="five.inferior" horiz-adv-x="683" d="M240 516L222 301Q243 304 275 306T341 308Q402 308 450 295T530 256T580 192T597 104Q597 45 580 3T527 -68T440 -109T316 -123Q293 -123 267 -120T212 -112T152 -99T87 -81L96 -24Q158
-36 212 -41T308 -47Q353 -47 386 -40T441 -17T475 26T486 93Q486 128 475 155T441 199T382 226T297 236Q254 236 213 232T122 220L154 598H538V516H240Z" />
<glyph unicode="&#x2086;" glyph-name="six.inferior" horiz-adv-x="703" d="M590 517Q547 525 503 531T417 537Q370 537 333 521T270 471T231 385T217 259Q266 282 312 293T410 305Q461 305 501 291T568 253T610 192T624 112Q624 58 606 15T554 -59T472 -106T366
-123Q303 -123 256 -107T175 -52T126 53T109 220Q109 337 132 412T195 532T290 593T406 610Q427 610 449 608T496 602T546 591T601 576L590 517ZM516 100Q516 165 481 200T374 236Q339 236 302 227T217 194Q217 131 226 85T254 9T303 -35T374 -50Q444 -50 480 -10T516
100V100Z" />
<glyph unicode="&#x2087;" glyph-name="seven.inferior" horiz-adv-x="671" d="M423 206Q400 165 373 120T319 31T264 -54T213 -125L136 -97L473 512H81V598H601V523L423 206Z" />
<glyph unicode="&#x2088;" glyph-name="eight.inferior" horiz-adv-x="701" d="M619 65Q619 24 603 -11T551 -71T464 -109T338 -123Q271 -123 223 -112T143 -77T97 -22T82 52Q82 87 94 115T129 167T183 210T254 246Q177 280 140 323T103 428Q103 469 119 502T168
560T248 598T359 611Q427 611 472 599T546 564T586 510T599 440Q599 380 559 340T433 258Q526 222 572 179T619 65V65ZM492 432Q492 488 458 514T346 541Q283 541 247 513T211 437Q211 413 218 394T242 357T285 323T349 292Q424 324 458 357T492 432V432ZM510 50Q510
78 499 100T465 142T410 178T332 212Q260 180 225 145T190 62Q190 5 232 -24T357 -53Q390 -53 418 -46T466 -26T498 7T510 50V50Z" />
<glyph unicode="&#x2089;" glyph-name="nine.inferior" horiz-adv-x="698" d="M104 -28Q154 -37 203 -43T291 -49Q338 -49 375 -34T438 16T478 102T492 229Q440 205 396 194T299 182Q248 182 208 195T141 234T99 294T85 375Q85 428 103 472T155 546T237 593T343
610Q405 610 452 595T533 540T583 435T600 267Q600 150 577 75T513 -45T418 -106T303 -123Q263 -123 210 -115T91 -84L104 -28ZM492 294Q492 357 483 403T454 479T404 523T335 538Q265 538 229 498T193 387Q193 354 201 329T227 287T272 261T335 252Q370 252 407
261T492 294V294Z" />
<glyph unicode="&#x20ac;" glyph-name="Euro" horiz-adv-x="1000" d="M667 856V773H247Q245 752 244 730T243 684Q243 660 243 636T247 586H667V503H255Q266 400 294 322T366 190T469 109T603 82Q646 82 685 91T761 119T831 168T900 237L953 177Q918 134 879 99T793
38T693 0T576 -14Q484 -14 407 19T272 117T176 279T126 503H7V586H120Q118 603 118 620T118 657Q118 687 119 716T124 773H7V856H132Q148 975 189 1069T290 1228T428 1329T594 1364Q647 1364 695 1353T786 1317T865 1251T932 1149L871 1100Q821 1184 757 1226T598
1269Q520 1269 461 1236T359 1145T291 1013T255 856H667Z" />
<glyph unicode="&#x2122;" glyph-name="trademark" horiz-adv-x="812" d="M640 1021Q640 1052 640 1082T638 1142T635 1205T629 1273L545 1021H464L385 1271Q384 1235 382 1204T378 1142T376 1082T373 1021H307Q312 1102 319 1185T337 1350H434L513 1098L593 1350H689Q699
1269 704 1186T712 1021H640ZM202 1294V1021H129V1294H55V1350H276V1294H202Z" />
<glyph unicode="&#x2126;" glyph-name="Omega" horiz-adv-x="1340" d="M776 0V104Q834 132 884 190T972 326T1030 502T1051 708Q1051 777 1042 844T1012 974T961 1088T886 1180T788 1241T664 1264Q598 1264 545 1241T450 1178T377 1083T327 966T298 836T289 701Q289
593 309 497T365 323T452 189T563 104V0H83V93H436Q371 128 320 189T233 328T178 496T159 680Q159 776 174 864T218 1029T292 1167T394 1272T525 1340T684 1364Q803 1364 896 1317T1052 1184T1148 980T1181 721Q1181 610 1158 513T1096 335T1004 194T892 93H1256V0H776Z"
/>
<glyph unicode="&#x2202;" glyph-name="partialdiff" horiz-adv-x="1015" d="M454 1421Q532 1365 610 1291T750 1116T852 886T891 593Q891 480 876 391T834 235T768 120T685 43T590 0T488 -14Q387 -14 315 20T196 118T127 271T105 470Q105 603 136 700T226 862T366
958T546 989Q565 989 587 988T630 984T668 978T696 971Q675 1018 646 1064T574 1162T471 1271T326 1397L454 1421ZM766 565Q766 675 755 747T730 868Q714 874 690 880T637 891T580 898T523 901Q461 901 408 877T315 805T252 681T229 501Q229 389 247 309T300 178T386
104T506 80Q555 80 602 99T685 172T744 319T766 565V565Z" />
<glyph unicode="&#x2206;" glyph-name="Delta" horiz-adv-x="1026" d="M57 0V83Q95 230 139 390T232 712T332 1036T437 1350H579Q638 1180 691 1017T793 697T885 387T970 83V0H57ZM835 99Q758 381 672 661T495 1223Q468 1137 440 1042T382 848T324 648T269 451T219
265T179 99H835Z" />
<glyph unicode="&#x220f;" glyph-name="product" horiz-adv-x="1306" d="M1081 1249V0H959V1249H356V0H233V1249H62V1350H1256V1249H1081Z" />
<glyph unicode="&#x2211;" glyph-name="summation" horiz-adv-x="1000" d="M82 0V78L561 699L109 1262V1350H877V1251H264L698 711L228 103H900V0H82Z" />
<glyph unicode="&#x2212;" glyph-name="minus" horiz-adv-x="1000" d="M92 548V642H912V548H92Z" />
<glyph unicode="&#x2215;" glyph-name="fraction" horiz-adv-x="136" d="M621 1459L695 1418L-445 -128L-519 -86L621 1459Z" />
<glyph unicode="&#x2219;" glyph-name="periodcentered" horiz-adv-x="511" d="M338 593Q338 568 335 552T323 526T297 513T256 509Q230 509 214 512T189 525T176 549T173 590Q173 615 176 631T188 657T215 670T257 674Q282 674 297 671T322 658T335 634T338 593V593Z" />
<glyph unicode="&#x221a;" glyph-name="radical" horiz-adv-x="1000" d="M959 1350Q924 1188 882 1022T791 687T685 346T565 0H434L206 895H16V986H305L516 136Q564 287 608 434T693 730T769 1033T838 1350H959Z" />
<glyph unicode="&#x221e;" glyph-name="infinity" horiz-adv-x="2030" d="M1869 611Q1869 524 1847 448T1778 315T1661 226T1492 193Q1431 193 1371 220T1250 293T1130 397T1010 520Q955 459 897 401T777 296T652 222T519 193Q428 193 361 224T250 309T185 431T164
577Q164 665 187 741T257 873T375 962T539 995Q599 995 660 968T782 895T902 791T1022 667Q1076 728 1134 786T1254 891T1380 966T1513 995Q1602 995 1669 964T1780 880T1847 758T1869 611V611ZM1742 594Q1742 648 1729 702T1688 798T1614 867T1503 894Q1451 894
1401 870T1300 806T1198 712T1094 601Q1149 541 1202 486T1306 389T1408 320T1508 294Q1572 294 1616 320T1688 389T1729 486T1742 594V594ZM291 594Q291 540 303 486T344 390T418 321T530 294Q582 294 632 318T733 382T834 476T937 588Q882 647 829 702T725 800T624
868T525 894Q461 894 417 868T344 799T304 702T291 594V594Z" />
<glyph unicode="&#x222b;" glyph-name="integral'" horiz-adv-x="800" d="M715 1319Q694 1327 662 1334T598 1341Q517 1341 482 1296T447 1150V-74Q447 -139 433 -190T388 -278T313 -333T207 -353Q184 -353 162 -350T118 -342T78 -329T41 -313L63 -240Q84 -248
116 -255T180 -262Q261 -262 296 -217T331 -71V1153Q331 1217 345 1269T390 1357T465 1412T571 1432Q594 1432 616 1429T660 1421T700 1408T737 1392L715 1319Z" />
<glyph unicode="&#x2248;" glyph-name="approxequal" horiz-adv-x="1000" d="M898 799Q865 768 836 746T778 709T721 689T659 682Q618 682 587 690T529 711T478 739T430 766T377 787T314 796Q294 796 275 791T235 776T190 748T135 706L92 772Q125 803 154 825T212
862T269 882T331 889Q372 889 403 881T461 860T512 832T560 805T613 784T676 775Q695 775 714 779T755 795T800 823T855 865L898 799ZM898 415Q865 384 836 362T778 325T721 305T659 298Q618 298 587 306T529 327T478 355T430 382T377 403T314 412Q294 412 275
407T235 392T190 364T135 322L92 388Q125 419 154 441T212 478T269 498T331 505Q372 505 403 497T461 476T512 448T560 421T613 400T676 391Q695 391 714 396T755 411T800 439T855 481L898 415Z" />
<glyph unicode="&#x2260;" glyph-name="notequal" horiz-adv-x="1000" d="M434 360L264 45L180 87L331 360H104V447H373L533 740H104V827H575L745 1142L829 1102L678 827H902V740H635L476 447H902V360H434Z" />
<glyph unicode="&#x2264;" glyph-name="lessequal" horiz-adv-x="1000" d="M89 0V88H905V0H89ZM866 250L89 625V703L866 1078L906 991L212 666L906 339L866 250Z" />
<glyph unicode="&#x2265;" glyph-name="greaterequal" horiz-adv-x="1000" d="M89 0V88H905V0H89ZM129 250L89 338L782 662L89 990L129 1078L905 703V625L129 250Z" />
<glyph unicode="&#x25ca;" glyph-name="lozenge" horiz-adv-x="1000" d="M549 0H439L59 668L449 1350H559L939 682L549 0ZM493 1237L178 683L506 113L821 667L493 1237Z" />
<glyph unicode="&#xeeee;" glyph-name="BBox" horiz-adv-x="350" d="M350 1800V-400H0V1800H350Z" />
<glyph unicode="&#xf000;" glyph-name="LuFo" horiz-adv-x="360" d="M360 -400H0V-40H360V-400ZM40 -80V-360H320V-80H40ZM80 -120H120V-280H200V-320H80V-120ZM280 -120V-320H240V-240H160V-200H240V-160H160V-120H280ZM360 1410H0V1770H360V1410ZM40 1730V1450H320V1730H40ZM80
1690H120V1530H200V1490H80V1690ZM280 1690V1490H240V1570H160V1610H240V1650H160V1690H280Z" />
<glyph unicode="&#xf6be;" glyph-name="dotlessj" horiz-adv-x="485" d="M301 73Q301 1 292 -58T260 -168T203 -264T115 -351L50 -308Q109 -248 147 -162T185 34V986H301V73Z" />
<glyph unicode="&#xf6c1;" glyph-name="Scedilla" horiz-adv-x="992" d="M902 358Q902 274 871 206T784 89T651 13T478 -14Q370 -14 280 16T118 90L152 162Q220 132 310 108T464 84Q606 84 688 153T770 342Q770 426 723 483T602 581T446 657T292 738T172 855T124
1028Q124 1102 152 1163T230 1269T351 1339T506 1364Q596 1364 674 1341T814 1278L782 1208Q730 1230 661 1249T520 1268Q388 1268 320 1205T252 1046Q252 962 299 905T419 807T577 730T736 646T856 528T902 358ZM540 -87Q548 -172 511 -237T402 -353L340 -310Q367
-285 385 -262T415 -214T431 -158T434 -87H540Z" />
<glyph unicode="&#xf6c2;" glyph-name="scedilla" horiz-adv-x="790" d="M698 264Q698 140 607 63T364 -14Q290 -14 223 2T92 50L112 122Q179 99 235 89T350 78Q458 78 516 126T574 252Q574 293 559 323T516 376T456 415T368 453T282 489T217 524T155 575T112
646T96 740Q96 795 118 842T180 925T277 980T402 1000Q460 1000 513 989T620 952L598 880Q556 895 509 903T420 912Q323 912 271 867T218 752Q218 700 242 665T306 606T420 552T531 506T607 459T673 380T698 264ZM429 -87Q437 -172 400 -237T291 -353L229 -310Q256
-285 274 -262T304 -214T320 -158T323 -87H429Z" />
<glyph unicode="&#xf6c9;" glyph-name="acute.cap" horiz-adv-x="706" d="M486 1704L544 1610L199 1463L162 1525L486 1704Z" />
<glyph unicode="&#xf6ca;" glyph-name="caron.cap" horiz-adv-x="885" d="M162 1644L198 1704L445 1573L687 1704L724 1645L442 1463L162 1644Z" />
<glyph unicode="&#xf6cb;" glyph-name="dieresis.cap" horiz-adv-x="859" d="M697 1553Q697 1533 694 1520T683 1500T662 1489T626 1486Q603 1486 589 1489T566 1499T556 1520T553 1553Q553 1575 555 1588T566 1609T588 1619T626 1621Q648 1621 661 1619T683 1610T694
1589T697 1553ZM304 1553Q304 1533 302 1520T292 1500T271 1489T235 1486Q212 1486 198 1489T176 1499T165 1520T162 1553Q162 1575 165 1588T175 1609T197 1619T235 1621Q257 1621 270 1619T291 1610T301 1589T304 1553Z" />
<glyph unicode="&#xf6ce;" glyph-name="grave.cap" horiz-adv-x="706" d="M507 1463L162 1610L220 1704L544 1525L507 1463Z" />
<glyph unicode="&#xf6cf;" glyph-name="hungarumlaut.cap" horiz-adv-x="1052" d="M558 1454L518 1499L823 1704L890 1629L558 1454ZM208 1451L162 1492L448 1720L521 1649L208 1451Z" />
<glyph unicode="&#xf6d0;" glyph-name="macron.cap" horiz-adv-x="851" d="M162 1510V1597H690V1510H162Z" />
<glyph unicode="&#xf730;" glyph-name="zero.oldstyle" horiz-adv-x="1000" d="M905 562Q905 412 879 304T801 125T672 20T493 -14Q388 -14 313 12T189 102T117 276T94 552Q94 721 123 834T208 1016T339 1114T510 1144Q606 1144 679 1117T802 1024T879 846T905
562V562ZM781 546Q781 694 763 791T709 945T621 1026T498 1050Q428 1050 376 1027T288 947T235 798T217 567Q217 433 232 341T282 190T372 107T509 81Q584 81 635 109T719 195T766 340T781 546V546Z" />
<glyph unicode="&#xf731;" glyph-name="one.oldstyle" horiz-adv-x="1000" d="M155 0V101H473V1003L186 903L159 979L501 1128H596V101H882V0H155Z" />
<glyph unicode="&#xf732;" glyph-name="two.oldstyle" horiz-adv-x="1000" d="M123 0V85Q246 189 337 269T493 414T602 529T669 625T702 711T712 799Q712 868 691 915T635 991T552 1032T455 1044Q423 1044 392 1042T327 1033T255 1016T171 992L150 1076Q197 1092
238 1104T320 1125T404 1138T501 1142Q569 1142 630 1124T739 1067T815 966T843 818Q843 760 831 710T792 609T722 505T616 392T469 261T277 101H877V0H123Z" />
<glyph unicode="&#xf733;" glyph-name="three.oldstyle" horiz-adv-x="1000" d="M87 -73Q195 -97 282 -110T439 -123Q515 -123 569 -106T656 -53T704 37T719 168Q719 235 703 289T652 381T560 438T421 458H285V554H413Q479 554 528 570T611 620T660 703T676 820Q676
872 664 914T623 985T546 1029T426 1045Q391 1045 354 1041T279 1031T207 1017T142 998L122 1080Q153 1091 191 1102T273 1123T366 1137T470 1142Q560 1142 623 1118T727 1053T787 957T806 840Q806 769 790 713T744 617T676 553T592 519Q658 511 707 481T788 405T836
303T852 184Q852 79 828 3T754 -123T627 -197T446 -221Q407 -221 366 -217T279 -204T182 -181T72 -148L87 -73Z" />
<glyph unicode="&#xf734;" glyph-name="four.oldstyle" horiz-adv-x="1000" d="M754 1128V209H928V107H754V-208H636V107H62V193Q124 317 191 443T325 689T458 921T584 1128H754ZM636 1031Q586 951 530 856T416 655T296 437T175 209H636V1031Z" />
<glyph unicode="&#xf735;" glyph-name="five.oldstyle" horiz-adv-x="1000" d="M280 1023L251 582Q270 586 294 588T344 593T399 596T455 597Q554 597 629 569T756 488T833 363T859 198Q859 91 835 12T758 -119T626 -196T435 -221Q365 -221 277 -204T79 -153L91
-79Q195 -99 283 -112T444 -125Q515 -125 568 -110T658 -60T712 33T731 176Q731 250 713 310T657 412T558 477T415 500Q380 500 347 498T281 493T213 483T143 469L186 1128H286H768V1023H280Z" />
<glyph unicode="&#xf736;" glyph-name="six.oldstyle" horiz-adv-x="1000" d="M851 1231Q787 1247 720 1258T587 1269Q510 1269 449 1234T346 1125T280 939T256 672Q299 696 338 714T415 746T491 765T572 772Q646 772 706 748T808 678T872 566T895 417Q895 315
868 235T792 99T673 15T517 -14Q454 -14 402 -2T307 39T232 115T179 232T146 397T135 618Q135 769 151 883T196 1080T267 1217T358 1304T463 1350T580 1364Q641 1364 709 1351T866 1309L851 1231ZM258 574Q258 446 274 352T323 198T408 109T529 80Q591 80 637 101T713
163T758 260T773 389Q773 458 759 512T714 602T636 657T524 676Q496 676 467 671T406 655T338 626T258 583V574Z" />
<glyph unicode="&#xf737;" glyph-name="seven.oldstyle" horiz-adv-x="1000" d="M618 421Q594 372 568 318T514 208T456 94T398 -19T342 -125T289 -221L209 -190L769 1023H96V1128H912V1040L618 421Z" />
<glyph unicode="&#xf738;" glyph-name="eight.oldstyle" horiz-adv-x="1000" d="M901 326Q901 255 876 193T800 85T670 13T485 -14Q386 -14 313 9T193 74T123 174T99 301Q99 375 124 433T192 537T289 619T402 689Q348 720 299 754T211 830T151 923T129 1040Q129
1110 154 1169T229 1272T349 1340T514 1364Q615 1364 683 1340T794 1273T853 1176T871 1062Q871 995 849 943T790 849T705 772T604 707Q662 676 715 641T810 560T876 457T901 326V326ZM780 308Q780 370 756 418T691 506T599 578T490 641Q438 612 389 581T303 511T243
428T220 323Q220 265 238 220T294 143T385 95T512 78Q571 78 620 94T705 141T760 213T780 308V308ZM498 1273Q440 1273 394 1258T315 1214T266 1147T249 1061Q249 1004 270 960T328 880T412 813T512 755Q559 782 602 811T679 876T731 953T751 1048Q751 1101 736
1142T690 1213T612 1258T498 1273V1273Z" />
<glyph unicode="&#xf739;" glyph-name="nine.oldstyle" horiz-adv-x="1000" d="M123 -86Q161 -96 197 -103T269 -116T337 -125T403 -128Q479 -128 541 -95T649 10T718 192T744 457Q701 432 662 414T586 383T509 364T428 357Q353 357 294 381T192 451T128 563T105
712Q105 814 132 894T208 1029T328 1114T483 1143Q545 1143 598 1131T693 1090T768 1014T821 897T854 732T865 511Q865 360 848 247T801 53T727 -82T634 -166T527 -209T410 -222Q379 -222 347 -219T278 -209T200 -191T109 -163L123 -86ZM227 740Q227 670 241 617T286
527T364 472T476 453Q532 453 594 474T742 546V555Q742 683 726 776T677 930T592 1020T472 1049Q409 1049 363 1028T287 966T242 869T227 740V740Z" />
<glyph unicode="&#xf8ff;" glyph-name="" horiz-adv-x="2000" d="M1353 257L1423 93L1356 75L1423 -81L1354 -99L1378 -154L1312 -303H1198Q1195 -324 1179 -342T1136 -373T1076 -393T1002 -400Q961 -400 927 -393T866 -372T823 -341T804 -303H690L577 -34L645
-15L577 149L653 167L611 268V437Q579 472 552 513T506 601T476 699T465 806Q465 880 484 948T538 1076T622 1185T730 1268T858 1322T1002 1341Q1075 1341 1143 1322T1270 1269T1378 1185T1462 1077T1516 949T1535 806Q1535 749 1524 697T1494 597T1447 509T1389
437V267L1353 257ZM1095 799Q1075 801 1053 802T1007 803Q979 803 954 803T905 799L936 488H1065L1095 799ZM89 746Q88 760 88 775T87 807T87 838T89 867L332 851Q331 840 331 829T330 806T330 784T332 762L89 746ZM314 1408Q323 1419 334 1430T355 1452T377 1474T398
1493L559 1311Q550 1303 542 1296T525 1280T510 1264T496 1247L314 1408ZM1044 1475Q1033 1476 1022 1476T1000 1476T977 1476T956 1475L937 1767Q952 1768 967 1769T1000 1770Q1016 1770 1032 1770T1063 1767L1044 1475ZM1504 1247Q1496 1257 1488 1265T1472 1282T1456
1297T1441 1311L1602 1493Q1613 1483 1624 1473T1646 1451T1667 1429T1686 1408L1504 1247ZM1668 762Q1669 773 1669 785T1670 808T1670 829T1668 851L1911 867Q1912 852 1912 837T1912 806T1912 775T1911 746L1668 762ZM1274 488Q1304 513 1330 546T1376 620T1408
707T1420 806Q1420 894 1387 970T1298 1103T1165 1193T1002 1227Q915 1227 838 1194T704 1103T613 970T580 806Q580 760 590 716T618 631T665 553T728 488H855L820 785Q800 779 777 772T738 758Q727 754 720 760T709 777T703 802T703 830T710 852T722 864Q753 874
787 882T856 897T929 906T1002 909Q1039 909 1075 906T1147 897T1217 883T1284 864Q1290 862 1294 853T1299 830T1300 803T1295 777T1284 760T1266 759Q1248 765 1225 772T1180 785L1146 488H1274ZM1275 395H727V276L760 195L1275 325V395ZM1245 231L718 95L754
11L1282 145L1245 231ZM1249 50L720 -87L774 -220H1227L1258 -150L1245 -122L1082 -163L1055 -88L1282 -31L1249 50ZM1020 848Q1022 855 1020 862H1018Q1020 855 1018 848H1020ZM1016 858Q1011 859 1011 858T1012 855T1014 852T1012 852V850Q1017 849 1017 850T1017
852T1014 855T1016 856V858ZM1010 856Q1010 861 1004 858V856Q1008 858 1008 856Q1004 856 1004 852Q1004 849 1006 849T1008 852V850H1010V856ZM1002 848Q1000 855 1002 862H1000Q998 855 1000 848H1002ZM996 852Q993 850 993 854T996 856V858Q990 859 990 853T996
850V852ZM988 858H986V852Q986 850 985 850T984 852V858H982V852Q982 849 985 849T988 852V858ZM980 852H978V860H976V850H980V852ZM1006 852Q1006 852 1006 853T1008 854Q1008 852 1007 851T1006 852V852Z" />
<glyph unicode="&#xfb00;" glyph-name="f_f" horiz-adv-x="1138" d="M1174 1305Q1140 1321 1103 1331T1031 1341Q950 1341 915 1297T880 1161V986H1116V900H880V0H764V900H324V0H208V900H35V986H208V1140Q208 1204 222 1256T266 1344T340 1399T444 1419Q501 1419
550 1404T634 1370L605 1297Q577 1310 542 1319T472 1328Q393 1328 359 1284T324 1148V986H764V1153Q764 1217 778 1269T822 1357T897 1412T1004 1432Q1033 1432 1061 1427T1116 1415T1164 1397T1205 1376L1174 1305Z" />
<glyph unicode="&#xfb01;" glyph-name="fi" horiz-adv-x="1065" d="M764 0V900H324V0H208V900H35V986H208V1153Q208 1217 222 1269T266 1357T340 1412T444 1432Q500 1432 548 1418T629 1385L600 1311Q573 1323 539 1332T471 1341Q392 1341 358 1297T324 1161V986H880V0H764ZM898
1280Q898 1258 896 1244T885 1221T863 1210T824 1207Q798 1207 783 1210T760 1221T749 1243T746 1280Q746 1303 748 1317T759 1340T783 1350T824 1353Q848 1353 863 1351T885 1340T895 1318T898 1280V1280Z" />
<glyph unicode="&#xfb02;" glyph-name="fl" horiz-adv-x="1104" d="M1032 4Q1020 1 1006 -2T976 -7T945 -10T918 -11Q877 -11 848 -4T799 24T772 82T763 181V1324Q741 1328 718 1331T670 1336T621 1340T574 1341Q506 1341 459 1328T381 1284T337 1204T324 1086V986H540V900H324V0H208V900H35V986H208V1080Q208
1153 222 1217T273 1329T378 1404T552 1432Q580 1432 609 1431T667 1428T721 1423T767 1418H879V226Q879 179 882 150T894 105T918 84T960 78Q977 78 994 78T1025 81L1032 4Z" />
<glyph unicode="&#xfb03;" glyph-name="f_f_i" horiz-adv-x="1621" d="M1320 0V900H880V0H764V900H324V0H208V900H35V986H208V1140Q208 1204 222 1256T266 1344T340 1399T444 1419Q501 1419 550 1404T634 1370L605 1297Q577 1310 542 1319T472 1328Q393 1328 359
1284T324 1148V986H764V1153Q764 1217 778 1269T822 1357T896 1412T1000 1432Q1056 1432 1104 1418T1185 1385L1156 1311Q1129 1323 1095 1332T1027 1341Q948 1341 914 1297T880 1161V986H1436V0H1320ZM1454 1280Q1454 1258 1452 1244T1441 1221T1419 1210T1380
1207Q1354 1207 1339 1210T1316 1221T1305 1243T1302 1280Q1302 1303 1304 1317T1315 1340T1339 1350T1380 1353Q1404 1353 1419 1351T1441 1340T1451 1318T1454 1280V1280Z" />
<glyph unicode="&#xfb04;" glyph-name="f_f_l" horiz-adv-x="1660" d="M1588 4Q1576 1 1562 -2T1531 -7T1500 -10T1474 -11Q1432 -11 1403 -4T1355 24T1328 82T1319 181V1324Q1297 1328 1274 1331T1226 1336T1177 1340T1130 1341Q1062 1341 1015 1328T937 1284T893
1204T880 1086V986H1096V900H880V0H764V900H324V0H208V900H35V986H208V1140Q208 1204 222 1256T266 1344T340 1399T444 1419Q501 1419 550 1404T634 1370L603 1298Q576 1310 541 1319T472 1328Q393 1328 359 1284T324 1148V986H764V1080Q764 1153 778 1217T829
1329T934 1404T1108 1432Q1136 1432 1165 1431T1223 1428T1277 1423T1323 1418H1435V226Q1435 179 1438 150T1450 105T1474 84T1515 78Q1533 78 1550 78T1581 81L1588 4Z" />
<glyph unicode="&#xfb06;" glyph-name="s_t" horiz-adv-x="1438" d="M1382 41Q1327 15 1272 1T1171 -14Q1110 -14 1069 0T1002 47T965 129T953 253V900H781V986H953V1051Q953 1127 939 1180T896 1266T825 1314T725 1329Q677 1329 638 1315T569 1275T525 1211T509
1125Q509 1098 515 1072T535 1023T568 981T619 949L599 880Q577 887 554 893T509 903T464 910T419 912Q369 912 332 900T269 865T231 814T218 752Q218 704 238 672T293 616T370 574T458 538T546 499T623 446T677 372T698 265Q698 203 675 152T608 64T503 7T364
-14Q285 -14 219 3T92 50L112 121Q178 99 235 89T350 78Q406 78 448 91T518 128T560 183T574 253Q574 301 554 333T499 389T423 430T335 466T247 506T171 558T117 633T96 740Q96 795 117 843T179 925T276 980T403 1000Q420 1000 433 999T456 996Q467 994 474 992Q445
1012 428 1051T410 1136Q410 1199 434 1251T503 1340T609 1397T746 1418Q824 1418 884 1397T985 1333T1047 1224T1069 1067V986H1356V900H1069V282Q1069 226 1074 187T1093 124T1133 90T1199 79Q1227 79 1266 86T1364 115L1382 41Z" />
<glyph unicode="&#xfeff;" glyph-name="uniFEFF" horiz-adv-x="0" />
</font>
</defs>
</svg>
