<svg xmlns="http://www.w3.org/2000/svg" viewBox="0 0 480 559.97"><path d="M120 480.11h240v39.89a40.57 40.57 0 0 0 .65 7.45 40 40 0 0 0 79.3-7.66v-39.94h40v-194a291 291 0 0 0-7.18-63.94q-16.64-73.54-33.67-147c-3-13.07-10.85-23-21-31.38-13.64-11.21-29.31-18.72-45.78-24.53-29.26-10.3-59.66-15.12-90.47-17.45a561.92 561.92 0 0 0-81.41-.15c-26.15 1.82-52 5.64-77.25 12.69-20.19 5.63-39.39 13.39-56.49 25.76-14.21 10.29-23.46 23.26-27.17 41.1-9.07 43.58-19.3 86.93-29.37 130.3-6.07 26.14-10.16 52.47-10.16 79.36v189.39h40v39.26c0 21.15 14.46 37.63 35.4 40.37 17.71 2.31 35.9-8.46 41.86-25.28a48.3 48.3 0 0 0 2.6-14.63c.35-13.12.14-26.28.14-39.61z" fill="#fff"/><path d="M120 480.11c0 13.33.23 26.49-.12 39.64a48.3 48.3 0 0 1-2.6 14.63c-5.98 16.82-24.18 27.62-41.88 25.27-20.94-2.73-35.4-19.22-35.4-40.36v-39.26h-40v-189.42c0-26.89 4.09-53.22 10.16-79.35 10.07-43.37 20.3-86.72 29.37-130.3 3.71-17.84 13-30.81 27.17-41.09 17.1-12.39 36.3-20.15 56.49-25.78 25.28-7 51.1-10.87 77.25-12.69a561.92 561.92 0 0 1 81.41.15c30.81 2.33 61.21 7.15 90.47 17.45 16.48 5.81 32.15 13.31 45.78 24.54 10.16 8.36 18 18.31 21 31.38q16.93 73.47 33.67 147a291 291 0 0 1 7.18 63.94q.13 95.74 0 191.49v2.51h-39.95v39.94a40 40 0 0 1-79.3 7.66 40.57 40.57 0 0 1-.7-7.46c-.06-12.42 0-24.83 0-37.25v-2.64zm120-200.11h164c3.85 0 7.67-.23 11.15-2.16 8.58-4.76 12.18-13.08 10.25-23.34q-11-58.5-21.94-117c-2-10.95-9.81-17.52-21-17.52h-285c-11.15 0-18.91 6.59-21 17.54q-10.94 58.51-22 117c-1 5.52-.73 10.75 2.26 15.66 4.26 7 10.62 9.87 18.67 9.86q82.37-.1 164.61-.04zm0-200h97.74c1.08 0 2.17 0 3.25-.06 6.13-.49 10.59-3.57 12.88-9.21a14.38 14.38 0 0 0-2.87-16c-3.39-3.73-7.75-4.78-12.65-4.78q-98.36.06-196.73 0c-1 0-2 0-3 .08a14.92 14.92 0 0 0-13.39 17.86c1.56 7.54 7.43 12.11 15.77 12.11h99zm-120 300a40 40 0 0 0-80-.42c0 22.7 17.46 40.36 40 40.42a39.74 39.74 0 0 0 40-40zm320 0a40 40 0 0 0-80-.51c0 22.73 17.47 40.43 40 40.48a39.75 39.75 0 0 0 40-39.97z" fill="#58A93F"/><path d="M240 280h-164.47c-8.05 0-14.4-2.85-18.67-9.86-3-4.91-3.3-10.14-2.26-15.66q11-58.49 22-117c2-11 9.8-17.54 21-17.54h285c11.16 0 18.92 6.58 21 17.52q10.94 58.51 21.94 117c1.93 10.26-1.67 18.59-10.25 23.34-3.48 1.93-7.3 2.16-11.15 2.16h-164.14zm0-200h-99c-8.35 0-14.22-4.55-15.78-12.1a14.92 14.92 0 0 1 13.4-17.9c1-.08 2-.08 3-.08h196.73c4.89 0 9.25 1 12.65 4.78a14.38 14.38 0 0 1 2.87 16c-2.28 5.64-6.74 8.73-12.88 9.21-1.08.09-2.16.06-3.25.06zm-120 300a39.74 39.74 0 0 1-40 40c-22.57 0-40.07-17.7-40.05-40.43a40 40 0 0 1 80 .42zm320 0a39.75 39.75 0 0 1-40 40c-22.54-.05-40-17.74-40-40.48a40 40 0 0 1 80 .51z" fill="#fff"/></svg>