<svg xmlns="http://www.w3.org/2000/svg" viewBox="0 0 535.04 188.43"><path d="M362.45 147.09h-336.09c-31.54 0-15.53-26.62 10-44.37s89.85-86.52 144.2-98.72h181.91m-220.76 143.09v-84.3h55.46v84.3m18.86-77.65h28.84v28.84h-28.84zm46.59 0h28.84v28.84h-28.84zm46.59 0h28.84v28.84h-28.84zm-233.33.01s44.75-10 52.48-14.42l22.22-21.08h-30m-116.58 123.38h358.45v13.32h-358.45zm319.63 13.24v13.86m-25.52-13.86v13.86m-25.51-13.86v13.86m-25.51-13.86v13.86m-25.51-13.86v13.86m-25.52-13.86v13.86m-25.51-13.86v13.86m-25.51-13.86v13.86m-25.51-13.86v13.86m-25.52-13.86v13.86m-25.51-13.86v13.86m-25.51-13.86v13.86m-25.51-13.86v13.86m386.27-180.43h110.79m-110.79 34.8h69.55m-80.68 131.84h139.42m-148.74-43.21h67.5m-47.05-29.15h87.29" stroke="#000" stroke-linecap="round" stroke-linejoin="round" fill="none"/></svg>