<svg xmlns="http://www.w3.org/2000/svg" viewBox="0 0 480.08 559.96"><title>trein</title><path d="M134.14 480.07c-.38.41-.79.9-1.25 1.34l-44.61 42.32-20.13 19.09c-3.09 2.93-4.06 6.38-2.64 10.44a9.13 9.13 0 0 0 8.49 6.6c1.16.09 2.33.11 3.49.11h325a22.23 22.23 0 0 0 5.2-.44 9.51 9.51 0 0 0 3.93-1.94c4.83-4.25 4.66-10.53-.31-15.25l-64-60.74c-.54-.51-1-1.08-2-2.1h3.71a183.57 183.57 0 0 0 49.3-8.54c21.78-7.14 41.26-18.2 57.47-34.55s24.33-35.63 24.28-58.78q-.29-138.74-.08-277.49a75.25 75.25 0 0 0-15.41-46.33c-13.46-17.92-31.37-30.15-51.51-39.29-23.46-10.68-48.35-14.52-73.94-14.52h-198.24c-20.94 0-41.54 2.54-61.41 9.56-23.42 8.27-44.13 20.75-60.48 39.73q-19.07 22.16-19 51.57.07 140.37.07 280.74a67.88 67.88 0 0 0 1.26 12.65c3.67 19.09 13.72 34.46 28.12 47.15 22.17 19.54 48.21 30.86 77.21 35.51 9.02 1.45 18.17 2.09 27.48 3.16z" fill="#fff"/><path d="M134.14 480.07c-9.32-1-18.46-1.71-27.49-3.16-29-4.65-55-16-77.21-35.51-14.39-12.69-24.44-28.06-28.1-47.15a67.88 67.88 0 0 1-1.27-12.65q-.07-140.37-.07-280.74 0-29.37 19-51.57c16.34-19 37-31.46 60.47-39.73 19.88-7.02 40.48-9.56 61.42-9.56h198.24c25.59 0 50.48 3.82 74 14.47 20.14 9.14 38 21.37 51.51 39.29a75.25 75.25 0 0 1 15.36 46.36q0 138.74.08 277.49c0 23.16-8.19 42.56-24.28 58.78s-35.69 27.41-57.47 34.55a183.57 183.57 0 0 1-49.3 8.54h-3.71c1 1 1.45 1.58 2 2.1l64 60.74c5 4.71 5.13 11 .31 15.25a9.51 9.51 0 0 1-3.93 1.94 22.23 22.23 0 0 1-5.2.44h-325c-1.17 0-2.33 0-3.49-.11a9.13 9.13 0 0 1-8.51-6.59c-1.42-4.06-.46-7.52 2.64-10.44l20.13-19.09 44.62-42.32c.47-.4.87-.92 1.25-1.33zm285.77-399.93h-359.71v159.73h359.71zm-119.91 280.04c.83-32.47-26.65-60.3-59.92-60.34s-60 27.7-60.26 59.66c-.22 32.59 26.62 60.59 60.08 60.62s60.71-27.86 60.1-59.94z"/><path d="M419.91 80.14v159.73h-359.71v-159.73zm-119.91 280.04c.58 32.08-26.54 60-60.1 59.94s-60.29-28-60.08-60.62c.21-32 26.88-59.7 60.26-59.66s60.77 27.87 59.92 60.34z" fill="#fff"/></svg>