<svg xmlns="http://www.w3.org/2000/svg" viewBox="0 0 439.8 195.71"><g stroke="#000" stroke-linecap="round" stroke-linejoin="round" fill="none"><circle cx="202.73" cy="163.95" r="27.76"/><circle cx="354.09" cy="163.95" r="27.76"/><path d="M177.31 177.13h-47l-3.79-7.88h-23.5v-152.36h46.24v-12.89h147.82v13.64h138.72v153.13h-13.65v6.36h-42.83m56.48-126.13h-21.23v64.43h21.23m-36.39-64.43v64.43h-23.5l-16.67-12.13h-209.98l-12.89-7.58h-17.43v-44.72h280.47zm-296.39 60.64h20.46v42.45h-20.46m226.64 23.04h-102.5m-103.67-30.62h57.65m43.18 0h108.19m43.17 0h35.26m24.86-13.64h-24.86v21.22h24.86m-312.31-150.09h-97.82m44 19.13h-53.34m69.34 154h-52.67m20.67-13.18h-50.67m71.58-64.16h-46.25m57.34-19h-47.34"/></g></svg>