<svg xmlns="http://www.w3.org/2000/svg" viewBox="0 0 480 240"><path fill="#0399ff" d="M40 40h-40v-40"/><path fill="#0ec1ff" d="M0 0h40v40"/><path fill="#08b8ff" d="M80 80h-40v-40"/><path fill="#08a9ff" d="M40 40h40v40"/><path fill="#00c3ff" d="M80 0v40h-40"/><path fill="#077aff" d="M40 40v-40h40"/><path fill="#00b2ff" d="M120 40h-40v-40"/><path fill="#03bdff" d="M80 0h40v40"/><path fill="#01a6ff" d="M160 0v40h-40"/><path fill="#0eacff" d="M120 40v-40h40"/><path fill="#0086ff" d="M120 40v40h-40"/><path fill="#088cff" d="M80 80v-40h40"/><path fill="#0e94ff" d="M40 120h-40v-40"/><path fill="#0686ff" d="M0 80h40v40"/><path fill="#01c2ff" d="M80 80v40h-40"/><path fill="#0d9cff" d="M40 120v-40h40"/><path fill="#09a5ff" d="M120 120h-40v-40"/><path fill="#0ea7ff" d="M80 80h40v40"/><path fill="#05a1ff" d="M160 80v40h-40"/><path fill="#0aa1ff" d="M120 120v-40h40"/><path fill="#09b3ff" d="M200 120h-40v-40"/><path fill="#0ecfff" d="M160 80h40v40"/><path fill="#08baff" d="M240 80h-40v-40"/><path fill="#0bc3ff" d="M200 40h40v40"/><path fill="#06b9ff" d="M240 80v40h-40"/><path fill="#0cb3ff" d="M200 120v-40h40"/><path fill="#087cff" d="M160 80h-40v-40"/><path fill="#0b9dff" d="M120 40h40v40"/><path fill="#0e99ff" d="M200 40v40h-40"/><path fill="#0e98ff" d="M160 80v-40h40"/><path fill="#019cff" d="M200 40h-40v-40"/><path fill="#0496ff" d="M160 0h40v40"/><path fill="#0fb8ff" d="M240 0v40h-40"/><path fill="#037cff" d="M200 40v-40h40"/><path fill="#07a2ff" d="M0 80v-40h40"/><path fill="#09a5ff" d="M40 40v40h-40"/><path fill="#0ea5ff" d="M80 160h-40v-40"/><path fill="#0e89ff" d="M40 120h40v40"/><path fill="#077aff" d="M120 120v40h-40"/><path fill="#077eff" d="M80 160v-40h40"/><path fill="#0394ff" d="M240 160h-40v-40"/><path fill="#089bff" d="M200 120h40v40"/><path fill="#0783ff" d="M160 160h-40v-40"/><path fill="#08a4ff" d="M120 120h40v40"/><path fill="#0ecdff" d="M200 120v40h-40"/><path fill="#069eff" d="M160 160v-40h40"/><path fill="#097aff" d="M0 160v-40h40"/><path fill="#0fb8ff" d="M40 120v40h-40"/><path fill="#0ed1ff" d="M320 160h-40v-40"/><path fill="#0481ff" d="M280 120h40v40"/><path fill="#04a4ff" d="M360 120v40h-40"/><path fill="#0ac8ff" d="M320 160v-40h40"/><path fill="#098aff" d="M480 160h-40v-40"/><path fill="#0b80ff" d="M440 120h40v40"/><path fill="#0a99ff" d="M400 160h-40v-40"/><path fill="#0a84ff" d="M360 120h40v40"/><path fill="#0087ff" d="M440 120v40h-40"/><path fill="#0d86ff" d="M400 160v-40h40"/><path fill="#08aaff" d="M240 160v-40h40"/><path fill="#08f" d="M280 120v40h-40"/><path fill="#01b1ff" d="M280 40h-40v-40"/><path fill="#09ccff" d="M240 0h40v40"/><path fill="#00bfff" d="M320 80h-40v-40"/><path fill="#067aff" d="M280 40h40v40"/><path fill="#0f80ff" d="M320 0v40h-40"/><path fill="#0f83ff" d="M280 40v-40h40"/><path fill="#06a5ff" d="M360 40h-40v-40"/><path fill="#078dff" d="M320 0h40v40"/><path fill="#0cbeff" d="M400 0v40h-40"/><path fill="#08d0ff" d="M360 40v-40h40"/><path fill="#0bbdff" d="M360 40v40h-40"/><path fill="#00cfff" d="M320 80v-40h40"/><path fill="#0888ff" d="M280 120h-40v-40"/><path fill="#03c6ff" d="M240 80h40v40"/><path fill="#0379ff" d="M320 80v40h-40"/><path fill="#0894ff" d="M280 120v-40h40"/><path fill="#05b8ff" d="M360 120h-40v-40"/><path fill="#0daeff" d="M320 80h40v40"/><path fill="#03d1ff" d="M400 80v40h-40"/><path fill="#0ccbff" d="M360 120v-40h40"/><path fill="#0bbbff" d="M440 120h-40v-40"/><path fill="#0e9dff" d="M400 80h40v40"/><path fill="#007aff" d="M480 80h-40v-40"/><path fill="#077cff" d="M440 40h40v40"/><path fill="#0f8dff" d="M480 80v40h-40"/><path fill="#05a7ff" d="M440 120v-40h40"/><path fill="#02a8ff" d="M40 200h-40v-40"/><path fill="#0684ff" d="M0 160h40v40"/><path fill="#09b0ff" d="M80 160v40h-40"/><path fill="#068bff" d="M40 200v-40h40"/><path fill="#08acff" d="M120 200h-40v-40"/><path fill="#088eff" d="M80 160h40v40"/><path fill="#0696ff" d="M160 160v40h-40"/><path fill="#0094ff" d="M120 200v-40h40"/><path fill="#06a4ff" d="M200 200h-40v-40"/><path fill="#0f98ff" d="M160 160h40v40"/><path fill="#0c95ff" d="M240 160v40h-40"/><path fill="#0e91ff" d="M200 200v-40h40"/><path fill="#0fbfff" d="M80 240h-40v-40"/><path fill="#087cff" d="M40 200h40v40"/><path fill="#04ceff" d="M120 200v40h-40"/><path fill="#0a9cff" d="M80 240v-40h40"/><path fill="#09a4ff" d="M240 240h-40v-40"/><path fill="#007cff" d="M200 200h40v40"/><path fill="#0795ff" d="M160 240h-40v-40"/><path fill="#0bcfff" d="M120 200h40v40"/><path fill="#0db7ff" d="M200 200v40h-40"/><path fill="#0b9dff" d="M160 240v-40h40"/><path fill="#017bff" d="M0 240v-40h40"/><path fill="#0f9dff" d="M40 200v40h-40"/><path fill="#038dff" d="M320 240h-40v-40"/><path fill="#0accff" d="M280 200h40v40"/><path fill="#00b1ff" d="M360 200v40h-40"/><path fill="#08b5ff" d="M320 240v-40h40"/><path fill="#087fff" d="M480 240h-40v-40"/><path fill="#0590ff" d="M440 200h40v40"/><path fill="#0ea8ff" d="M400 240h-40v-40"/><path fill="#09d0ff" d="M360 200h40v40"/><path fill="#077eff" d="M440 200v40h-40"/><path fill="#0fa0ff" d="M400 240v-40h40"/><path fill="#04b7ff" d="M240 240v-40h40"/><path fill="#09d0ff" d="M280 200v40h-40"/><path fill="#0684ff" d="M280 200h-40v-40"/><path fill="#059cff" d="M240 160h40v40"/><path fill="#0091ff" d="M320 160v40h-40"/><path fill="#0fbdff" d="M280 200v-40h40"/><path fill="#079dff" d="M360 200h-40v-40"/><path fill="#0980ff" d="M320 160h40v40"/><path fill="#01b3ff" d="M400 160v40h-40"/><path fill="#0a91ff" d="M360 200v-40h40"/><path fill="#00a8ff" d="M440 200h-40v-40"/><path fill="#0c8bff" d="M400 160h40v40"/><path fill="#0bc9ff" d="M480 160v40h-40"/><path fill="#0b7bff" d="M440 200v-40h40"/><path fill="#0778ff" d="M400 80h-40v-40"/><path fill="#0599ff" d="M360 40h40v40"/><path fill="#0587ff" d="M440 40v40h-40"/><path fill="#0e7eff" d="M400 80v-40h40"/><path fill="#0fa3ff" d="M440 40h-40v-40"/><path fill="#0cb4ff" d="M400 0h40v40"/><path fill="#0ac0ff" d="M480 0v40h-40"/><path fill="#089cff" d="M440 40v-40h40"/><path fill="#029fff" d="M240 80v-40h40"/><path fill="#0d96ff" d="M280 40v40h-40"/></svg>